SplineFontDB: 3.2
FontName: NotoSansPahawhHmong-Regular
FullName: Noto Sans Pahawh Hmong Regular
FamilyName: Noto Sans Pahawh Hmong
Weight: Book
Copyright: Copyright 2017 Google Inc. All Rights Reserved.
Version: 2.000
ItalicAngle: 0
UnderlinePosition: -125
UnderlineWidth: 50
Ascent: 800
Descent: 200
InvalidEm: 0
sfntRevision: 0x00020000
LayerCount: 2
Layer: 0 1 "+BBcEMAQ0BD0EOAQ5 +BD8EOwQwBD0A" 1
Layer: 1 1 "+BB8ENQRABDUENAQ9BDgEOQAA +BD8EOwQwBD0A" 0
XUID: [1021 59 1751208496 17320]
StyleMap: 0x0040
FSType: 0
OS2Version: 4
OS2_WeightWidthSlopeOnly: 1
OS2_UseTypoMetrics: 0
CreationTime: 1449699788
ModificationTime: 1635606767
PfmFamily: 17
TTFWeight: 400
TTFWidth: 5
LineGap: 0
VLineGap: 0
Panose: 2 11 5 2 4 5 4 2 2 4
OS2TypoAscent: 1069
OS2TypoAOffset: 0
OS2TypoDescent: -293
OS2TypoDOffset: 0
OS2TypoLinegap: 0
OS2WinAscent: 1069
OS2WinAOffset: 0
OS2WinDescent: 293
OS2WinDOffset: 0
HheadAscent: 1069
HheadAOffset: 0
HheadDescent: -293
HheadDOffset: 0
OS2SubXSize: 650
OS2SubYSize: 600
OS2SubXOff: 0
OS2SubYOff: 75
OS2SupXSize: 650
OS2SupYSize: 600
OS2SupXOff: 0
OS2SupYOff: 350
OS2StrikeYSize: 50
OS2StrikeYPos: 322
OS2CapHeight: 714
OS2XHeight: 536
OS2Vendor: 'GOOG'
OS2CodePages: 00000001.00000000
OS2UnicodeRanges: 80000003.02002000.00000000.00000000
Lookup: 260 0 0 "'mark' Mark Positioning lookup 0" { "'mark' Mark Positioning lookup 0 subtable"  } ['mark' ('DFLT' <'dflt' > ) ]
Lookup: 260 0 0 "'mark' Mark Positioning lookup 1" { "'mark' Mark Positioning lookup 1 subtable"  } ['mark' ('DFLT' <'dflt' > ) ]
Lookup: 258 8 0 "'kern' Horizontal Kerning lookup 2" { "'kern' Horizontal Kerning lookup 2 per glyph data 0"  "'kern' Horizontal Kerning lookup 2 kerning class 1"  } ['kern' ('DFLT' <'dflt' > ) ]
MarkAttachClasses: 1
DEI: 91125
KernClass2: 7+ 9 "'kern' Horizontal Kerning lookup 2 kerning class 1"
 69 u16B17 u16B1B u16B1F u16B24 u16B26 u16B2C u16B5C u16B87 u16B8D u16B8E
 20 u16B02 u16B15 u16B2E
 20 u16B00 u16B2F u16B5F
 13 u16B6C u16B6F
 6 u16B76
 6 u16B6B
 6 u16B61

StartChar: .notdef
Encoding: 1114112 -1 0
Width: 600
Flags: W
HStem: 0 51<145 454> 663 51<145 454>
VStem: 94 51<51 663> 454 51<51 663>
LayerCount: 2
Fore
SplineSet
94 0 m 1,0,-1
 94 714 l 1,1,-1
 505 714 l 1,2,-1
 505 0 l 1,3,-1
 94 0 l 1,0,-1
145 51 m 1,4,-1
 454 51 l 1,5,-1
 454 663 l 1,6,-1
 145 663 l 1,7,-1
 145 51 l 1,4,-1
EndSplineSet
EndChar

StartChar: uni25CC
Encoding: 9676 9676 7
Width: 594
GlyphClass: 2
Flags: W
HStem: 42 53<271.311 322.689> 60 52<186.311 238.677 355.335 407.701> 107 53<114.311 166.677 428.323 479.701> 180 53<65.323 117.689 476.311 528.677> 265 52<48.2373 100.771 494.237 545.78> 349 53<65.335 117.689 476.323 528.677> 422 53<114.406 166.677 428.323 479.701> 470 53<186.311 238.677 355.335 407.701> 487 53<271.311 322.689>
VStem: 48 53<265.311 316.689> 65 53<180.311 232.677 349.422 401.689> 114 53<107.311 159.677 422.311 474.665> 186 53<60.323 111.701 470.311 522.677> 271 52<42.2373 94.7715 487.237 539.771> 355 53<60.3906 111.578 470.406 522.578> 428 52<107.311 159.677 422.311 474.677> 476 53<180.311 232.677 349.323 401.689> 494 52<265.311 316.689>
AnchorPoint: "+BBEENQQ3BEsEPARPBD0EPQQ+BDUA--1" 297 625 basechar 0
AnchorPoint: "+BBEENQQ3BEsEPARPBD0EPQQ+BDUA--0" 297 625 basechar 0
LayerCount: 2
Fore
SplineSet
323 514 m 0,0,1
 323 487 323 487 297 487 c 256,2,3
 271 487 271 487 271 514 c 0,4,5
 271 540 271 540 297 540 c 256,6,7
 323 540 323 540 323 514 c 0,0,1
408 496 m 0,8,9
 408 470 408 470 383 470 c 0,10,11
 355 470 355 470 355 496 c 0,12,13
 355 523 355 523 383 523 c 0,14,15
 408 523 408 523 408 496 c 0,8,9
239 496 m 0,16,17
 239 470 239 470 212 470 c 0,18,19
 186 470 186 470 186 496 c 0,20,21
 186 523 186 523 212 523 c 0,22,23
 239 523 239 523 239 496 c 0,16,17
480 448 m 0,24,25
 480 422 480 422 455 422 c 0,26,27
 428 422 428 422 428 448 c 0,28,29
 428 475 428 475 455 475 c 0,30,31
 480 475 480 475 480 448 c 0,24,25
167 448 m 0,32,33
 167 422 167 422 140 422 c 0,34,35
 114 422 114 422 114 447 c 0,36,37
 114 475 114 475 140 475 c 0,38,39
 167 475 167 475 167 448 c 0,32,33
529 376 m 0,40,41
 529 349 529 349 502 349 c 0,42,43
 476 349 476 349 476 376 c 0,44,45
 476 402 476 402 503 402 c 0,46,47
 529 402 529 402 529 376 c 0,40,41
118 376 m 0,48,49
 118 349 118 349 93 349 c 0,50,51
 65 349 65 349 65 376 c 0,52,53
 65 402 65 402 92 402 c 0,54,55
 118 402 118 402 118 376 c 0,48,49
546 291 m 256,56,57
 546 265 546 265 521 265 c 0,58,59
 494 265 494 265 494 291 c 256,60,61
 494 317 494 317 521 317 c 0,62,63
 546 317 546 317 546 291 c 256,56,57
101 291 m 256,64,65
 101 265 101 265 75 265 c 0,66,67
 48 265 48 265 48 291 c 256,68,69
 48 317 48 317 75 317 c 0,70,71
 101 317 101 317 101 291 c 256,64,65
529 206 m 0,72,73
 529 180 529 180 502 180 c 0,74,75
 476 180 476 180 476 206 c 0,76,77
 476 233 476 233 502 233 c 0,78,79
 529 233 529 233 529 206 c 0,72,73
118 206 m 0,80,81
 118 180 118 180 92 180 c 0,82,83
 65 180 65 180 65 206 c 0,84,85
 65 233 65 233 92 233 c 0,86,87
 118 233 118 233 118 206 c 0,80,81
480 133 m 0,88,89
 480 107 480 107 455 107 c 0,90,91
 428 107 428 107 428 133 c 0,92,93
 428 160 428 160 455 160 c 0,94,95
 480 160 480 160 480 133 c 0,88,89
167 133 m 0,96,97
 167 107 167 107 140 107 c 0,98,99
 114 107 114 107 114 133 c 0,100,101
 114 160 114 160 140 160 c 0,102,103
 167 160 167 160 167 133 c 0,96,97
408 85 m 0,104,105
 408 60 408 60 383 60 c 0,106,107
 355 60 355 60 355 85 c 0,108,109
 355 112 355 112 383 112 c 0,110,111
 408 112 408 112 408 85 c 0,104,105
239 87 m 0,112,113
 239 60 239 60 212 60 c 0,114,115
 186 60 186 60 186 85 c 0,116,117
 186 112 186 112 212 112 c 0,118,119
 239 112 239 112 239 87 c 0,112,113
323 69 m 0,120,121
 323 42 323 42 297 42 c 256,122,123
 271 42 271 42 271 69 c 0,124,125
 271 95 271 95 297 95 c 256,126,127
 323 95 323 95 323 69 c 0,120,121
EndSplineSet
EndChar

StartChar: u16B00
Encoding: 92928 92928 8
Width: 659
GlyphClass: 2
Flags: W
HStem: 0 21G<283.129 381.007> 480 70<336.133 416.958> 655 70<336.485 416.548>
VStem: 250 74<561.988 642.334> 429 74<561.73 610.344> 514 85<462.259 610.456>
AnchorPoint: "+BBEENQQ3BEsEPARPBD0EPQQ+BDUA--0" 340 800 basechar 0
LayerCount: 2
Fore
SplineSet
291 0 m 1,0,-1
 10 714 l 1,1,-1
 104 714 l 1,2,-1
 336 113 l 1,3,-1
 487 450 l 2,4,5
 514 510 514 510 514 555 c 0,6,7
 514 589 514 589 502 611 c 1,8,9
 502 609 502 609 502.5 606.5 c 128,-1,10
 503 604 503 604 503 602 c 0,11,12
 503 568 503 568 485.5 540 c 128,-1,13
 468 512 468 512 439 496 c 128,-1,14
 410 480 410 480 376 480 c 256,15,16
 342 480 342 480 313.5 496 c 128,-1,17
 285 512 285 512 267.5 540 c 128,-1,18
 250 568 250 568 250 602 c 0,19,20
 250 653 250 653 287 689 c 128,-1,21
 324 725 324 725 399 725 c 0,22,23
 467 725 467 725 507 704.5 c 128,-1,24
 547 684 547 684 566.5 655 c 128,-1,25
 586 626 586 626 592.5 598.5 c 128,-1,26
 599 571 599 571 599 556 c 0,27,28
 599 534 599 534 592.5 504.5 c 128,-1,29
 586 475 586 475 567 433 c 2,30,-1
 372 0 l 1,31,-1
 291 0 l 1,0,-1
376 550 m 0,32,33
 399 550 399 550 414 564 c 128,-1,34
 429 578 429 578 429 602 c 0,35,36
 429 625 429 625 414 640 c 128,-1,37
 399 655 399 655 376 655 c 0,38,39
 354 655 354 655 339 640 c 128,-1,40
 324 625 324 625 324 602 c 256,41,42
 324 579 324 579 339 564.5 c 128,-1,43
 354 550 354 550 376 550 c 0,32,33
EndSplineSet
EndChar

StartChar: u16B01
Encoding: 92929 92929 9
Width: 662
GlyphClass: 2
Flags: W
HStem: 0 80<182.429 457.588> 339 80<187.095 492> 634 80<75 492>
VStem: 60 90<112.469 301.922> 492 90<113.953 339 419 634>
AnchorPoint: "+BBEENQQ3BEsEPARPBD0EPQQ+BDUA--0" 320 800 basechar 0
LayerCount: 2
Fore
SplineSet
265 0 m 2,0,1
 162 0 162 0 111 45 c 128,-1,2
 60 90 60 90 60 169 c 2,3,-1
 60 248 l 2,4,5
 60 322 60 322 109.5 370.5 c 128,-1,6
 159 419 159 419 255 419 c 2,7,-1
 492 419 l 1,8,-1
 492 634 l 1,9,-1
 75 634 l 1,10,-1
 75 714 l 1,11,-1
 582 714 l 1,12,-1
 582 159 l 2,13,14
 582 92 582 92 535.5 46 c 128,-1,15
 489 0 489 0 393 0 c 2,16,-1
 265 0 l 2,0,1
265 80 m 2,17,-1
 384 80 l 2,18,19
 436 80 436 80 464 107 c 128,-1,20
 492 134 492 134 492 174 c 2,21,-1
 492 339 l 1,22,-1
 255 339 l 2,23,24
 206 339 206 339 178 310 c 128,-1,25
 150 281 150 281 150 243 c 2,26,-1
 150 174 l 2,27,28
 150 126 150 126 180.5 103 c 128,-1,29
 211 80 211 80 265 80 c 2,17,-1
EndSplineSet
EndChar

StartChar: u16B02
Encoding: 92930 92930 10
Width: 682
GlyphClass: 2
Flags: W
HStem: -11 70<485.246 565.958> 0 21G<10 109.387> 164 70<485.589 565.48>
VStem: 578 74<70.7305 151.587>
AnchorPoint: "+BBEENQQ3BEsEPARPBD0EPQQ+BDUA--0" 280 800 basechar 0
LayerCount: 2
Fore
SplineSet
525 -11 m 0,0,1
 474 -11 474 -11 445 15.5 c 128,-1,2
 416 42 416 42 400.5 82.5 c 128,-1,3
 385 123 385 123 374 164 c 2,4,-1
 264 594 l 1,5,-1
 104 0 l 1,6,-1
 10 0 l 1,7,-1
 221 714 l 1,8,-1
 311 714 l 1,9,-1
 452 210 l 1,10,11
 486 234 486 234 525 234 c 0,12,13
 559 234 559 234 588 217.5 c 128,-1,14
 617 201 617 201 634.5 173.5 c 128,-1,15
 652 146 652 146 652 111 c 0,16,17
 652 77 652 77 634.5 49 c 128,-1,18
 617 21 617 21 588 5 c 128,-1,19
 559 -11 559 -11 525 -11 c 0,0,1
525 59 m 0,20,21
 548 59 548 59 563 73 c 128,-1,22
 578 87 578 87 578 111 c 0,23,24
 578 134 578 134 563 149 c 128,-1,25
 548 164 548 164 525 164 c 0,26,27
 503 164 503 164 488 149 c 128,-1,28
 473 134 473 134 473 111 c 256,29,30
 473 88 473 88 488 73.5 c 128,-1,31
 503 59 503 59 525 59 c 0,20,21
EndSplineSet
EndChar

StartChar: u16B03
Encoding: 92931 92931 11
Width: 779
GlyphClass: 2
Flags: W
HStem: -11 68<110.181 181.766 583.175 662> 164 70<582.458 662.48>
VStem: 30 72<66.4651 164.131> 195 90<76.5962 250 350 357 456 714> 480 90<73.9552 148.529 223 589 685 714> 675 74<70.7305 151.587>
AnchorPoint: "+BBEENQQ3BEsEPARPBD0EPQQ+BDUA--0" 392 800 basechar 0
LayerCount: 2
Fore
SplineSet
142 -11 m 256,0,1
 96 -11 96 -11 63 16.5 c 128,-1,2
 30 44 30 44 30 100 c 0,3,4
 30 139 30 139 50 171 c 128,-1,5
 70 203 70 203 94 231 c 2,6,-1
 195 350 l 1,7,-1
 195 714 l 1,8,-1
 285 714 l 1,9,-1
 285 456 l 1,10,-1
 480 685 l 1,11,-1
 480 714 l 1,12,-1
 570 714 l 1,13,-1
 570 223 l 1,14,15
 595 234 595 234 622 234 c 0,16,17
 656 234 656 234 685 217.5 c 128,-1,18
 714 201 714 201 731.5 173.5 c 128,-1,19
 749 146 749 146 749 111 c 0,20,21
 749 77 749 77 731.5 49 c 128,-1,22
 714 21 714 21 685 5 c 128,-1,23
 656 -11 656 -11 622 -11 c 0,24,25
 578 -11 578 -11 550 6 c 128,-1,26
 522 23 522 23 507 48.5 c 128,-1,27
 492 74 492 74 486 101.5 c 128,-1,28
 480 129 480 129 480 150 c 2,29,-1
 480 589 l 1,30,-1
 285 357 l 1,31,-1
 285 154 l 2,32,33
 285 126 285 126 279.5 97 c 128,-1,34
 274 68 274 68 259.5 43.5 c 128,-1,35
 245 19 245 19 216.5 4 c 128,-1,36
 188 -11 188 -11 142 -11 c 256,0,1
142 57 m 0,37,38
 168 57 168 57 181.5 76 c 128,-1,39
 195 95 195 95 195 124 c 2,40,-1
 195 250 l 1,41,-1
 133 176 l 2,42,43
 116 156 116 156 109 138.5 c 128,-1,44
 102 121 102 121 102 100 c 0,45,46
 102 84 102 84 112 70.5 c 128,-1,47
 122 57 122 57 142 57 c 0,37,38
622 59 m 0,48,49
 645 59 645 59 660 73 c 128,-1,50
 675 87 675 87 675 111 c 0,51,52
 675 134 675 134 660 149 c 128,-1,53
 645 164 645 164 622 164 c 0,54,55
 600 164 600 164 585 149 c 128,-1,56
 570 134 570 134 570 111 c 256,57,58
 570 88 570 88 585 73.5 c 128,-1,59
 600 59 600 59 622 59 c 0,48,49
EndSplineSet
EndChar

StartChar: u16B04
Encoding: 92932 92932 12
Width: 690
GlyphClass: 2
Flags: W
HStem: -11 70<427.3 508.192> 0 21G<80 170> 164 70<427.778 507.8> 643 82<232.266 457.708>
VStem: 80 90<0 581.545> 341 74<70.7305 151.118> 520 90<73.9552 148.529 223 581.156>
AnchorPoint: "+BBEENQQ3BEsEPARPBD0EPQQ+BDUA--0" 341 800 basechar 0
LayerCount: 2
Fore
SplineSet
468 -11 m 0,0,1
 434 -11 434 -11 405 5 c 128,-1,2
 376 21 376 21 358.5 49 c 128,-1,3
 341 77 341 77 341 111 c 0,4,5
 341 146 341 146 358.5 173.5 c 128,-1,6
 376 201 376 201 405 217.5 c 128,-1,7
 434 234 434 234 468 234 c 0,8,9
 495 234 495 234 520 223 c 1,10,-1
 520 483 l 2,11,12
 520 564 520 564 482 603.5 c 128,-1,13
 444 643 444 643 347 643 c 0,14,15
 253 643 253 643 211.5 607 c 128,-1,16
 170 571 170 571 170 484 c 2,17,-1
 170 0 l 1,18,-1
 80 0 l 1,19,-1
 80 489 l 2,20,21
 80 608 80 608 144.5 666.5 c 128,-1,22
 209 725 209 725 342 725 c 0,23,24
 484 725 484 725 547 663.5 c 128,-1,25
 610 602 610 602 610 491 c 2,26,-1
 610 150 l 2,27,28
 610 129 610 129 604 101.5 c 128,-1,29
 598 74 598 74 583 48.5 c 128,-1,30
 568 23 568 23 540 6 c 128,-1,31
 512 -11 512 -11 468 -11 c 0,0,1
468 59 m 0,32,33
 491 59 491 59 505.5 73.5 c 128,-1,34
 520 88 520 88 520 111 c 256,35,36
 520 134 520 134 505.5 149 c 128,-1,37
 491 164 491 164 468 164 c 0,38,39
 446 164 446 164 430.5 149 c 128,-1,40
 415 134 415 134 415 111 c 0,41,42
 415 87 415 87 430.5 73 c 128,-1,43
 446 59 446 59 468 59 c 0,32,33
EndSplineSet
EndChar

StartChar: u16B05
Encoding: 92933 92933 13
Width: 710
GlyphClass: 2
Flags: W
HStem: -11 70<182.065 262.958 464.535 528.351> 164 70<182.458 262.48> 643 82<234.448 476.1>
VStem: 80 90<73.9552 148.529 223 581.312> 275 74<70.7305 151.587> 369 74<80.2217 386.507> 540 90<77.5652 524.405>
AnchorPoint: "+BBEENQQ3BEsEPARPBD0EPQQ+BDUA--0" 355 800 basechar 0
LayerCount: 2
Fore
SplineSet
222 -11 m 0,0,1
 178 -11 178 -11 150 6 c 128,-1,2
 122 23 122 23 107 48.5 c 128,-1,3
 92 74 92 74 86 101.5 c 128,-1,4
 80 129 80 129 80 150 c 2,5,-1
 80 497 l 2,6,7
 80 608 80 608 148 666.5 c 128,-1,8
 216 725 216 725 358 725 c 0,9,10
 510 725 510 725 577 652 c 1,11,12
 594 666 594 666 612.5 680 c 128,-1,13
 631 694 631 694 652 708 c 1,14,-1
 685 647 l 1,15,16
 665 634 665 634 647 621.5 c 128,-1,17
 629 609 629 609 612 595 c 1,18,19
 630 552 630 552 630 492 c 2,20,-1
 630 154 l 2,21,22
 630 117 630 117 618.5 78.5 c 128,-1,23
 607 40 607 40 578.5 14.5 c 128,-1,24
 550 -11 550 -11 498 -11 c 0,25,26
 462 -11 462 -11 432.5 9.5 c 128,-1,27
 403 30 403 30 386 76.5 c 128,-1,28
 369 123 369 123 369 200 c 0,29,30
 369 258 369 258 376.5 322 c 128,-1,31
 384 386 384 386 414.5 454.5 c 128,-1,32
 445 523 445 523 512 593 c 1,33,34
 490 621 490 621 450 632 c 128,-1,35
 410 643 410 643 353 643 c 0,36,37
 256 643 256 643 213 607.5 c 128,-1,38
 170 572 170 572 170 491 c 2,39,-1
 170 223 l 1,40,41
 195 234 195 234 222 234 c 0,42,43
 256 234 256 234 285 217.5 c 128,-1,44
 314 201 314 201 331.5 173.5 c 128,-1,45
 349 146 349 146 349 111 c 0,46,47
 349 77 349 77 331.5 49 c 128,-1,48
 314 21 314 21 285 5 c 128,-1,49
 256 -11 256 -11 222 -11 c 0,0,1
496 59 m 0,50,51
 515 59 515 59 527.5 77 c 128,-1,52
 540 95 540 95 540 124 c 2,53,-1
 540 492 l 2,54,55
 540 501 540 501 539.5 509.5 c 128,-1,56
 539 518 539 518 538 526 c 1,57,58
 492 471 492 471 467.5 395.5 c 128,-1,59
 443 320 443 320 443 200 c 0,60,61
 443 142 443 142 456 100.5 c 128,-1,62
 469 59 469 59 496 59 c 0,50,51
222 59 m 0,63,64
 245 59 245 59 260 73 c 128,-1,65
 275 87 275 87 275 111 c 0,66,67
 275 134 275 134 260 149 c 128,-1,68
 245 164 245 164 222 164 c 0,69,70
 200 164 200 164 185 149 c 128,-1,71
 170 134 170 134 170 111 c 256,72,73
 170 88 170 88 185 73.5 c 128,-1,74
 200 59 200 59 222 59 c 0,63,64
EndSplineSet
EndChar

StartChar: u16B06
Encoding: 92934 92934 14
Width: 764
GlyphClass: 2
Flags: W
HStem: -11 82<199.459 332.2> 0 21G<584 674> 634 80<450 584>
VStem: 80 90<101.209 714> 360 90<99.1182 634> 584 90<0 634>
AnchorPoint: "+BBEENQQ3BEsEPARPBD0EPQQ+BDUA--0" 411 800 basechar 0
LayerCount: 2
Fore
SplineSet
262 -11 m 0,0,1
 186 -11 186 -11 146.5 17 c 128,-1,2
 107 45 107 45 93.5 99.5 c 128,-1,3
 80 154 80 154 80 233 c 2,4,-1
 80 714 l 1,5,-1
 170 714 l 1,6,-1
 170 232 l 2,7,8
 170 183 170 183 174.5 147 c 128,-1,9
 179 111 179 111 199.5 91 c 128,-1,10
 220 71 220 71 267 71 c 256,11,12
 314 71 314 71 333 92.5 c 128,-1,13
 352 114 352 114 356 150.5 c 128,-1,14
 360 187 360 187 360 231 c 2,15,-1
 360 714 l 1,16,-1
 674 714 l 1,17,-1
 674 0 l 1,18,-1
 584 0 l 1,19,-1
 584 634 l 1,20,-1
 450 634 l 1,21,-1
 450 231 l 2,22,23
 450 157 450 157 436 102.5 c 128,-1,24
 422 48 422 48 382 18.5 c 128,-1,25
 342 -11 342 -11 262 -11 c 0,0,1
EndSplineSet
EndChar

StartChar: u16B07
Encoding: 92935 92935 15
Width: 659
GlyphClass: 2
Flags: W
HStem: 0 21G<80 170 479 569> 643 82<191.242 340.894>
VStem: 80 90<0 621.004> 479 90<0 521.449 608 714>
AnchorPoint: "+BBEENQQ3BEsEPARPBD0EPQQ+BDUA--0" 320 800 basechar 0
LayerCount: 2
Fore
SplineSet
80 0 m 1,0,-1
 80 511 l 2,1,2
 80 578 80 578 94 625.5 c 128,-1,3
 108 673 108 673 143 699 c 128,-1,4
 178 725 178 725 241 725 c 0,5,6
 295 725 295 725 339.5 707.5 c 128,-1,7
 384 690 384 690 419.5 663 c 128,-1,8
 455 636 455 636 479 608 c 1,9,-1
 479 714 l 1,10,-1
 569 714 l 1,11,-1
 569 0 l 1,12,-1
 479 0 l 1,13,-1
 479 469 l 1,14,15
 474 498 474 498 452.5 528 c 128,-1,16
 431 558 431 558 398.5 584.5 c 128,-1,17
 366 611 366 611 328 627 c 128,-1,18
 290 643 290 643 252 643 c 0,19,20
 200 643 200 643 185 611.5 c 128,-1,21
 170 580 170 580 170 514 c 2,22,-1
 170 0 l 1,23,-1
 80 0 l 1,0,-1
EndSplineSet
EndChar

StartChar: u16B08
Encoding: 92936 92936 16
Width: 710
GlyphClass: 2
Flags: W
HStem: -11 82<232.292 456.448> 480 70<182.458 262.48> 655 70<182.065 262.958>
VStem: 80 90<132.844 491 565.471 640.045> 275 74<562.746 643.134> 520 90<132.455 714>
AnchorPoint: "+BBEENQQ3BEsEPARPBD0EPQQ+BDUA--0" 362 800 basechar 0
LayerCount: 2
Fore
SplineSet
348 -11 m 0,0,1
 206 -11 206 -11 143 50.5 c 128,-1,2
 80 112 80 112 80 223 c 2,3,-1
 80 564 l 2,4,5
 80 585 80 585 86 612.5 c 128,-1,6
 92 640 92 640 107 665.5 c 128,-1,7
 122 691 122 691 150 708 c 128,-1,8
 178 725 178 725 222 725 c 0,9,10
 256 725 256 725 285 709 c 128,-1,11
 314 693 314 693 331.5 665.5 c 128,-1,12
 349 638 349 638 349 603 c 0,13,14
 349 569 349 569 331.5 541 c 128,-1,15
 314 513 314 513 285 496.5 c 128,-1,16
 256 480 256 480 222 480 c 0,17,18
 195 480 195 480 170 491 c 1,19,-1
 170 231 l 2,20,21
 170 150 170 150 208 110.5 c 128,-1,22
 246 71 246 71 343 71 c 0,23,24
 437 71 437 71 478.5 107 c 128,-1,25
 520 143 520 143 520 230 c 2,26,-1
 520 714 l 1,27,-1
 610 714 l 1,28,-1
 610 225 l 2,29,30
 610 106 610 106 546 47.5 c 128,-1,31
 482 -11 482 -11 348 -11 c 0,0,1
222 550 m 0,32,33
 245 550 245 550 260 565 c 128,-1,34
 275 580 275 580 275 603 c 0,35,36
 275 627 275 627 260 641 c 128,-1,37
 245 655 245 655 222 655 c 0,38,39
 200 655 200 655 185 640.5 c 128,-1,40
 170 626 170 626 170 603 c 256,41,42
 170 580 170 580 185 565 c 128,-1,43
 200 550 200 550 222 550 c 0,32,33
EndSplineSet
EndChar

StartChar: u16B09
Encoding: 92937 92937 17
Width: 693
GlyphClass: 2
Flags: W
HStem: -11 70<430.3 511.192> 0 21G<90 180> 164 70<430.778 510.8> 342 80<180 523>
VStem: 90 90<0 342 422 714> 344 74<70.7305 151.118> 523 90<73.9552 148.529 223 342 422 714>
AnchorPoint: "+BBEENQQ3BEsEPARPBD0EPQQ+BDUA--0" 340 800 basechar 0
LayerCount: 2
Fore
SplineSet
471 -11 m 0,0,1
 437 -11 437 -11 408 5 c 128,-1,2
 379 21 379 21 361.5 49 c 128,-1,3
 344 77 344 77 344 111 c 0,4,5
 344 146 344 146 361.5 173.5 c 128,-1,6
 379 201 379 201 408 217.5 c 128,-1,7
 437 234 437 234 471 234 c 0,8,9
 498 234 498 234 523 223 c 1,10,-1
 523 342 l 1,11,-1
 180 342 l 1,12,-1
 180 0 l 1,13,-1
 90 0 l 1,14,-1
 90 714 l 1,15,-1
 180 714 l 1,16,-1
 180 422 l 1,17,-1
 523 422 l 1,18,-1
 523 714 l 1,19,-1
 613 714 l 1,20,-1
 613 150 l 2,21,22
 613 129 613 129 607 101.5 c 128,-1,23
 601 74 601 74 586 48.5 c 128,-1,24
 571 23 571 23 543 6 c 128,-1,25
 515 -11 515 -11 471 -11 c 0,0,1
471 59 m 0,26,27
 494 59 494 59 508.5 73.5 c 128,-1,28
 523 88 523 88 523 111 c 256,29,30
 523 134 523 134 508.5 149 c 128,-1,31
 494 164 494 164 471 164 c 0,32,33
 449 164 449 164 433.5 149 c 128,-1,34
 418 134 418 134 418 111 c 0,35,36
 418 87 418 87 433.5 73 c 128,-1,37
 449 59 449 59 471 59 c 0,26,27
EndSplineSet
EndChar

StartChar: u16B0A
Encoding: 92938 92938 18
Width: 680
GlyphClass: 2
Flags: W
HStem: 0 21G<108.88 200 480 571.12> 229 82<260.744 418.645>
AnchorPoint: "+BBEENQQ3BEsEPARPBD0EPQQ+BDUA--0" 313 800 basechar 0
LayerCount: 2
Fore
SplineSet
110 0 m 1,0,-1
 70 714 l 1,1,-1
 160 714 l 1,2,-1
 186 246 l 1,3,4
 210 278 210 278 247.5 294.5 c 128,-1,5
 285 311 285 311 337 311 c 0,6,7
 391 311 391 311 429.5 292.5 c 128,-1,8
 468 274 468 274 493 242 c 1,9,-1
 520 714 l 1,10,-1
 610 714 l 1,11,-1
 570 0 l 1,12,-1
 480 0 l 1,13,-1
 484 78 l 1,14,15
 482 119 482 119 465 153.5 c 128,-1,16
 448 188 448 188 417 208.5 c 128,-1,17
 386 229 386 229 342 229 c 0,18,19
 275 229 275 229 237 187.5 c 128,-1,20
 199 146 199 146 195 78 c 1,21,-1
 200 0 l 1,22,-1
 110 0 l 1,0,-1
EndSplineSet
EndChar

StartChar: u16B0B
Encoding: 92939 92939 19
Width: 810
GlyphClass: 2
Flags: W
HStem: -10 82<202.6 338.937> 0 21G<640 730> 499 66<292.476 364.269> 643 82<536.519 620.502> 658 67<292.664 367.013>
VStem: 80 90<105.663 714> 212 70<575.893 647.299> 370 90<105.208 502> 640 90<0 624.909>
AnchorPoint: "+BBEENQQ3BEsEPARPBD0EPQQ+BDUA--0" 383 800 basechar 0
LayerCount: 2
Fore
SplineSet
267 -10 m 0,0,1
 188 -10 188 -10 148 18 c 128,-1,2
 108 46 108 46 94 100.5 c 128,-1,3
 80 155 80 155 80 234 c 2,4,-1
 80 714 l 1,5,-1
 170 714 l 1,6,-1
 170 233 l 2,7,8
 170 184 170 184 175.5 148 c 128,-1,9
 181 112 181 112 203 92 c 128,-1,10
 225 72 225 72 272 72 c 256,11,12
 319 72 319 72 339.5 93.5 c 128,-1,13
 360 115 360 115 365 151.5 c 128,-1,14
 370 188 370 188 370 232 c 2,15,-1
 370 502 l 1,16,17
 354 499 354 499 332 499 c 0,18,19
 283 499 283 499 247.5 530 c 128,-1,20
 212 561 212 561 212 613 c 0,21,22
 212 648 212 648 229 673 c 128,-1,23
 246 698 246 698 272.5 711.5 c 128,-1,24
 299 725 299 725 329 725 c 0,25,26
 422 725 422 725 450 633 c 1,27,28
 468 654 468 654 488.5 675.5 c 128,-1,29
 509 697 509 697 533.5 711 c 128,-1,30
 558 725 558 725 588 725 c 0,31,32
 631 725 631 725 659 707.5 c 128,-1,33
 687 690 687 690 702.5 661.5 c 128,-1,34
 718 633 718 633 724 599.5 c 128,-1,35
 730 566 730 566 730 533 c 2,36,-1
 730 0 l 1,37,-1
 640 0 l 1,38,-1
 640 533 l 2,39,40
 640 557 640 557 635 582.5 c 128,-1,41
 630 608 630 608 618 625.5 c 128,-1,42
 606 643 606 643 584 643 c 0,43,44
 564 643 564 643 543.5 627 c 128,-1,45
 523 611 523 611 502.5 588.5 c 128,-1,46
 482 566 482 566 460 547 c 1,47,-1
 460 232 l 2,48,49
 460 158 460 158 447 103.5 c 128,-1,50
 434 49 434 49 393 19.5 c 128,-1,51
 352 -10 352 -10 267 -10 c 0,0,1
328 565 m 256,52,53
 347 565 347 565 361 578.5 c 128,-1,54
 375 592 375 592 375 611 c 256,55,56
 375 630 375 630 361 644 c 128,-1,57
 347 658 347 658 328 658 c 256,58,59
 309 658 309 658 295.5 644 c 128,-1,60
 282 630 282 630 282 611 c 256,61,62
 282 592 282 592 295.5 578.5 c 128,-1,63
 309 565 309 565 328 565 c 256,52,53
EndSplineSet
EndChar

StartChar: u16B0C
Encoding: 92940 92940 20
Width: 703
GlyphClass: 2
Flags: W
HStem: 0 80<187.537 515.463> 342 80<170 350>
VStem: 80 90<99.0868 342 422 714> 533 90<99.0868 714>
AnchorPoint: "+BBEENQQ3BEsEPARPBD0EPQQ+BDUA--0" 348 800 basechar 0
LayerCount: 2
Fore
SplineSet
212 0 m 2,0,1
 164 0 164 0 135 20 c 128,-1,2
 106 40 106 40 93 73.5 c 128,-1,3
 80 107 80 107 80 148 c 2,4,-1
 80 714 l 1,5,-1
 170 714 l 1,6,-1
 170 422 l 1,7,-1
 350 422 l 1,8,-1
 350 342 l 1,9,-1
 170 342 l 1,10,-1
 170 171 l 2,11,12
 170 117 170 117 187 98.5 c 128,-1,13
 204 80 204 80 245 80 c 2,14,-1
 458 80 l 2,15,16
 499 80 499 80 516 98.5 c 128,-1,17
 533 117 533 117 533 171 c 2,18,-1
 533 714 l 1,19,-1
 623 714 l 1,20,-1
 623 148 l 2,21,22
 623 107 623 107 610 73.5 c 128,-1,23
 597 40 597 40 568 20 c 128,-1,24
 539 0 539 0 491 0 c 2,25,-1
 212 0 l 2,0,1
EndSplineSet
EndChar

StartChar: u16B0E
Encoding: 92942 92942 21
Width: 709
GlyphClass: 2
Flags: W
HStem: -11 70<512.065 592.958> 0 21G<90 180> 164 70<512.458 592.48> 634 80<180 410 500 585>
VStem: 90 90<0 634> 410 90<73.9552 148.529 223 634> 605 74<70.7305 151.587>
AnchorPoint: "+BBEENQQ3BEsEPARPBD0EPQQ+BDUA--0" 299 800 basechar 0
LayerCount: 2
Fore
SplineSet
552 -11 m 0,0,1
 508 -11 508 -11 480 6 c 128,-1,2
 452 23 452 23 437 48.5 c 128,-1,3
 422 74 422 74 416 101.5 c 128,-1,4
 410 129 410 129 410 150 c 2,5,-1
 410 634 l 1,6,-1
 180 634 l 1,7,-1
 180 0 l 1,8,-1
 90 0 l 1,9,-1
 90 714 l 1,10,-1
 585 714 l 1,11,-1
 585 634 l 1,12,-1
 500 634 l 1,13,-1
 500 223 l 1,14,15
 525 234 525 234 552 234 c 0,16,17
 586 234 586 234 615 217.5 c 128,-1,18
 644 201 644 201 661.5 173.5 c 128,-1,19
 679 146 679 146 679 111 c 0,20,21
 679 77 679 77 661.5 49 c 128,-1,22
 644 21 644 21 615 5 c 128,-1,23
 586 -11 586 -11 552 -11 c 0,0,1
552 59 m 0,24,25
 575 59 575 59 590 73 c 128,-1,26
 605 87 605 87 605 111 c 0,27,28
 605 134 605 134 590 149 c 128,-1,29
 575 164 575 164 552 164 c 0,30,31
 530 164 530 164 515 149 c 128,-1,32
 500 134 500 134 500 111 c 256,33,34
 500 88 500 88 515 73.5 c 128,-1,35
 530 59 530 59 552 59 c 0,24,25
EndSplineSet
EndChar

StartChar: u16B0F
Encoding: 92943 92943 22
Width: 750
GlyphClass: 2
Flags: W
HStem: -10 82<197.415 294.825 455.175 553.713> 480 70<487.778 567.8> 655 70<487.3 568.192>
VStem: 80 90<101.803 714> 330 90<114.007 374> 401 74<562.746 643.134> 580 90<100.121 491 565.471 640.045>
AnchorPoint: "+BBEENQQ3BEsEPARPBD0EPQQ+BDUA--0" 355 800 basechar 0
LayerCount: 2
Fore
SplineSet
240 -10 m 0,0,1
 179 -10 179 -10 144 19.5 c 128,-1,2
 109 49 109 49 94.5 103.5 c 128,-1,3
 80 158 80 158 80 232 c 2,4,-1
 80 714 l 1,5,-1
 170 714 l 1,6,-1
 170 232 l 2,7,8
 170 151 170 151 186.5 111.5 c 128,-1,9
 203 72 203 72 243 72 c 0,10,11
 330 72 330 72 330 232 c 2,12,-1
 330 374 l 1,13,-1
 420 374 l 1,14,-1
 420 230 l 2,15,16
 420 72 420 72 507 72 c 0,17,18
 548 72 548 72 564 111.5 c 128,-1,19
 580 151 580 151 580 232 c 2,20,-1
 580 491 l 1,21,22
 555 480 555 480 528 480 c 0,23,24
 494 480 494 480 465 496.5 c 128,-1,25
 436 513 436 513 418.5 541 c 128,-1,26
 401 569 401 569 401 603 c 0,27,28
 401 638 401 638 418.5 665.5 c 128,-1,29
 436 693 436 693 465 709 c 128,-1,30
 494 725 494 725 528 725 c 0,31,32
 572 725 572 725 600 708 c 128,-1,33
 628 691 628 691 643 665.5 c 128,-1,34
 658 640 658 640 664 612.5 c 128,-1,35
 670 585 670 585 670 564 c 2,36,-1
 670 232 l 2,37,38
 670 158 670 158 655.5 103.5 c 128,-1,39
 641 49 641 49 606 19.5 c 128,-1,40
 571 -10 571 -10 510 -10 c 0,41,42
 468 -10 468 -10 433.5 12 c 128,-1,43
 399 34 399 34 375 70 c 1,44,45
 351 34 351 34 316.5 12 c 128,-1,46
 282 -10 282 -10 240 -10 c 0,0,1
528 550 m 0,47,48
 551 550 551 550 565.5 565 c 128,-1,49
 580 580 580 580 580 603 c 256,50,51
 580 626 580 626 565.5 640.5 c 128,-1,52
 551 655 551 655 528 655 c 0,53,54
 506 655 506 655 490.5 641 c 128,-1,55
 475 627 475 627 475 603 c 0,56,57
 475 580 475 580 490.5 565 c 128,-1,58
 506 550 506 550 528 550 c 0,47,48
EndSplineSet
EndChar

StartChar: u16B10
Encoding: 92944 92944 23
Width: 765
GlyphClass: 2
Flags: W
HStem: -11 82<434.155 567.2> 0 21G<90 180> 634 80<180 315>
VStem: 90 90<0 634> 315 90<101.209 634> 595 90<99.1182 714>
AnchorPoint: "+BBEENQQ3BEsEPARPBD0EPQQ+BDUA--0" 390 800 basechar 0
LayerCount: 2
Fore
SplineSet
497 -11 m 0,0,1
 420 -11 420 -11 381 17 c 128,-1,2
 342 45 342 45 328.5 99.5 c 128,-1,3
 315 154 315 154 315 233 c 2,4,-1
 315 634 l 1,5,-1
 180 634 l 1,6,-1
 180 0 l 1,7,-1
 90 0 l 1,8,-1
 90 714 l 1,9,-1
 405 714 l 1,10,-1
 405 232 l 2,11,12
 405 183 405 183 409.5 147 c 128,-1,13
 414 111 414 111 434.5 91 c 128,-1,14
 455 71 455 71 502 71 c 256,15,16
 549 71 549 71 568 92.5 c 128,-1,17
 587 114 587 114 591 150.5 c 128,-1,18
 595 187 595 187 595 231 c 2,19,-1
 595 714 l 1,20,-1
 685 714 l 1,21,-1
 685 231 l 2,22,23
 685 157 685 157 671 102.5 c 128,-1,24
 657 48 657 48 617 18.5 c 128,-1,25
 577 -11 577 -11 497 -11 c 0,0,1
EndSplineSet
EndChar

StartChar: u16B11
Encoding: 92945 92945 24
Width: 750
GlyphClass: 2
Flags: W
HStem: -11 82<197.415 294.825 455.175 553.713>
VStem: 80 90<100.803 714> 330 90<113.007 714> 580 90<99.1206 714>
CounterMasks: 1 70
AnchorPoint: "+BBEENQQ3BEsEPARPBD0EPQQ+BDUA--0" 376 800 basechar 0
LayerCount: 2
Fore
SplineSet
240 -11 m 0,0,1
 179 -11 179 -11 144 18.5 c 128,-1,2
 109 48 109 48 94.5 102.5 c 128,-1,3
 80 157 80 157 80 231 c 2,4,-1
 80 714 l 1,5,-1
 170 714 l 1,6,-1
 170 231 l 2,7,8
 170 150 170 150 186.5 110.5 c 128,-1,9
 203 71 203 71 243 71 c 0,10,11
 330 71 330 71 330 231 c 2,12,-1
 330 714 l 1,13,-1
 420 714 l 1,14,-1
 420 229 l 2,15,16
 420 71 420 71 507 71 c 0,17,18
 548 71 548 71 564 110.5 c 128,-1,19
 580 150 580 150 580 231 c 2,20,-1
 580 714 l 1,21,-1
 670 714 l 1,22,-1
 670 231 l 2,23,24
 670 157 670 157 655.5 102.5 c 128,-1,25
 641 48 641 48 606 18.5 c 128,-1,26
 571 -11 571 -11 510 -11 c 0,27,28
 468 -11 468 -11 433.5 11 c 128,-1,29
 399 33 399 33 375 69 c 1,30,31
 351 33 351 33 316.5 11 c 128,-1,32
 282 -11 282 -11 240 -11 c 0,0,1
EndSplineSet
EndChar

StartChar: u16B0D
Encoding: 92941 92941 25
Width: 750
GlyphClass: 2
Flags: W
HStem: -10 82<197.415 294.825 455.175 553.713> 480 70<182.458 262.48> 655 70<182.065 262.958>
VStem: 80 90<101.803 491 565.471 640.045> 275 74<562.746 643.134> 330 90<114.007 374> 580 90<100.121 714>
AnchorPoint: "+BBEENQQ3BEsEPARPBD0EPQQ+BDUA--0" 376 800 basechar 0
LayerCount: 2
Fore
SplineSet
240 -10 m 0,0,1
 179 -10 179 -10 144 19.5 c 128,-1,2
 109 49 109 49 94.5 103.5 c 128,-1,3
 80 158 80 158 80 232 c 2,4,-1
 80 564 l 2,5,6
 80 585 80 585 86 612.5 c 128,-1,7
 92 640 92 640 107 665.5 c 128,-1,8
 122 691 122 691 150 708 c 128,-1,9
 178 725 178 725 222 725 c 0,10,11
 256 725 256 725 285 709 c 128,-1,12
 314 693 314 693 331.5 665.5 c 128,-1,13
 349 638 349 638 349 603 c 0,14,15
 349 569 349 569 331.5 541 c 128,-1,16
 314 513 314 513 285 496.5 c 128,-1,17
 256 480 256 480 222 480 c 0,18,19
 195 480 195 480 170 491 c 1,20,-1
 170 232 l 2,21,22
 170 151 170 151 186.5 111.5 c 128,-1,23
 203 72 203 72 243 72 c 0,24,25
 330 72 330 72 330 230 c 2,26,-1
 330 374 l 1,27,-1
 420 374 l 1,28,-1
 420 232 l 2,29,30
 420 72 420 72 507 72 c 0,31,32
 548 72 548 72 564 111.5 c 128,-1,33
 580 151 580 151 580 232 c 2,34,-1
 580 714 l 1,35,-1
 670 714 l 1,36,-1
 670 232 l 2,37,38
 670 158 670 158 655.5 103.5 c 128,-1,39
 641 49 641 49 606 19.5 c 128,-1,40
 571 -10 571 -10 510 -10 c 0,41,42
 468 -10 468 -10 433.5 12 c 128,-1,43
 399 34 399 34 375 70 c 1,44,45
 351 34 351 34 316.5 12 c 128,-1,46
 282 -10 282 -10 240 -10 c 0,0,1
222 550 m 0,47,48
 245 550 245 550 260 565 c 128,-1,49
 275 580 275 580 275 603 c 0,50,51
 275 627 275 627 260 641 c 128,-1,52
 245 655 245 655 222 655 c 0,53,54
 200 655 200 655 185 640.5 c 128,-1,55
 170 626 170 626 170 603 c 256,56,57
 170 580 170 580 185 565 c 128,-1,58
 200 550 200 550 222 550 c 0,47,48
EndSplineSet
EndChar

StartChar: u16B12
Encoding: 92946 92946 26
Width: 747
GlyphClass: 2
Flags: W
HStem: -11 82<188.365 270.782> 0 21G<577 667> 634 80<201.115 290 380 554.816>
VStem: 80 90<87.5029 601.281> 290 90<89.4738 634> 577 90<0 611.479>
AnchorPoint: "+BBEENQQ3BEsEPARPBD0EPQQ+BDUA--0" 380 800 basechar 0
LayerCount: 2
Fore
SplineSet
227 -11 m 0,0,1
 163 -11 163 -11 131.5 18.5 c 128,-1,2
 100 48 100 48 90 104.5 c 128,-1,3
 80 161 80 161 80 240 c 2,4,-1
 80 450 l 2,5,6
 80 526 80 526 92.5 585.5 c 128,-1,7
 105 645 105 645 141.5 679.5 c 128,-1,8
 178 714 178 714 250 714 c 2,9,-1
 510 714 l 2,10,11
 588 714 588 714 627.5 668.5 c 128,-1,12
 667 623 667 623 667 555 c 2,13,-1
 667 0 l 1,14,-1
 577 0 l 1,15,-1
 577 540 l 2,16,17
 577 581 577 581 558.5 607.5 c 128,-1,18
 540 634 540 634 497 634 c 2,19,-1
 380 634 l 1,20,-1
 380 238 l 2,21,22
 380 164 380 164 370.5 108 c 128,-1,23
 361 52 361 52 329 20.5 c 128,-1,24
 297 -11 297 -11 227 -11 c 0,0,1
232 71 m 0,25,26
 269 71 269 71 279.5 114 c 128,-1,27
 290 157 290 157 290 238 c 2,28,-1
 290 634 l 1,29,-1
 262 634 l 2,30,31
 220 634 220 634 200.5 613 c 128,-1,32
 181 592 181 592 175.5 551.5 c 128,-1,33
 170 511 170 511 170 453 c 2,34,-1
 170 237 l 2,35,36
 170 150 170 150 180.5 110.5 c 128,-1,37
 191 71 191 71 232 71 c 0,25,26
EndSplineSet
EndChar

StartChar: u16B13
Encoding: 92947 92947 27
Width: 820
GlyphClass: 2
Flags: W
HStem: -11 82<202.6 338.937> 0 21G<640 730> 512 79<554.308 640> 655 70<295.485 358.631>
VStem: 80 90<104.663 714> 212 74<565.997 647.992> 370 90<104.208 477 554 642.102> 640 90<0 512 584.719 714>
AnchorPoint: "+BBEENQQ3BEsEPARPBD0EPQQ+BDUA--0" 404 800 basechar 0
LayerCount: 2
Fore
SplineSet
267 -11 m 0,0,1
 188 -11 188 -11 148 17 c 128,-1,2
 108 45 108 45 94 99.5 c 128,-1,3
 80 154 80 154 80 233 c 2,4,-1
 80 714 l 1,5,-1
 170 714 l 1,6,-1
 170 232 l 2,7,8
 170 183 170 183 175.5 147 c 128,-1,9
 181 111 181 111 203 91 c 128,-1,10
 225 71 225 71 272 71 c 256,11,12
 319 71 319 71 339.5 92.5 c 128,-1,13
 360 114 360 114 365 150.5 c 128,-1,14
 370 187 370 187 370 231 c 2,15,-1
 370 477 l 1,16,17
 301 479 301 479 256.5 510 c 128,-1,18
 212 541 212 541 212 613 c 0,19,20
 212 665 212 665 245 695 c 128,-1,21
 278 725 278 725 329 725 c 0,22,23
 391 725 391 725 425.5 685.5 c 128,-1,24
 460 646 460 646 460 566 c 2,25,-1
 460 554 l 1,26,27
 504 559 504 559 551 568.5 c 128,-1,28
 598 578 598 578 640 591 c 1,29,-1
 640 714 l 1,30,-1
 730 714 l 1,31,-1
 730 0 l 1,32,-1
 640 0 l 1,33,-1
 640 512 l 1,34,35
 596 499 596 499 550 491.5 c 128,-1,36
 504 484 504 484 460 480 c 1,37,-1
 460 231 l 2,38,39
 460 157 460 157 447 102.5 c 128,-1,40
 434 48 434 48 393 18.5 c 128,-1,41
 352 -11 352 -11 267 -11 c 0,0,1
370 548 m 1,42,-1
 370 589 l 2,43,44
 370 630 370 630 356 642.5 c 128,-1,45
 342 655 342 655 328 655 c 256,46,47
 314 655 314 655 300 646 c 128,-1,48
 286 637 286 637 286 613 c 0,49,50
 286 579 286 579 309.5 564 c 128,-1,51
 333 549 333 549 370 548 c 1,42,-1
EndSplineSet
EndChar

StartChar: u16B14
Encoding: 92948 92948 28
Width: 727
GlyphClass: 2
Flags: W
HStem: -12 83<395.768 530.222> 57 83<200.739 328.043>
VStem: 90 90<120 714> 557 90<98.5055 714>
AnchorPoint: "+BBEENQQ3BEsEPARPBD0EPQQ+BDUA--0" 355 800 basechar 0
LayerCount: 2
Fore
SplineSet
161 -16 m 1,0,-1
 90 13 l 1,1,-1
 90 714 l 1,2,-1
 180 714 l 1,3,-1
 180 120 l 1,4,5
 196 129 196 129 214 134.5 c 128,-1,6
 232 140 232 140 252 140 c 0,7,8
 277 140 277 140 306 129.5 c 128,-1,9
 335 119 335 119 365.5 105.5 c 128,-1,10
 396 92 396 92 425.5 81.5 c 128,-1,11
 455 71 455 71 479 71 c 0,12,13
 514 71 514 71 535.5 98.5 c 128,-1,14
 557 126 557 126 557 199 c 2,15,-1
 557 714 l 1,16,-1
 647 714 l 1,17,-1
 647 202 l 2,18,19
 647 102 647 102 609 45 c 128,-1,20
 571 -12 571 -12 476 -12 c 0,21,22
 438 -12 438 -12 408.5 -1.5 c 128,-1,23
 379 9 379 9 353.5 22.5 c 128,-1,24
 328 36 328 36 303 46.5 c 128,-1,25
 278 57 278 57 249 57 c 0,26,27
 226 57 226 57 203.5 37.5 c 128,-1,28
 181 18 181 18 161 -16 c 1,0,-1
EndSplineSet
EndChar

StartChar: u16B15
Encoding: 92949 92949 29
Width: 630
GlyphClass: 2
Flags: W
HStem: -11 70<124.341 203.651> 0 21G<499.278 600> 164 70<146.375 204.125>
VStem: 30 81<72.2354 152.21> 216 74<71.2783 152.345>
AnchorPoint: "+BBEENQQ3BEsEPARPBD0EPQQ+BDUA--0" 305 800 basechar 0
LayerCount: 2
Fore
SplineSet
164 -11 m 0,0,1
 103 -11 103 -11 66.5 27 c 128,-1,2
 30 65 30 65 30 123 c 0,3,4
 30 163 30 163 49 207 c 2,5,-1
 268 714 l 1,6,-1
 349 714 l 1,7,-1
 600 0 l 1,8,-1
 506 0 l 1,9,-1
 304 601 l 1,10,-1
 146 232 l 1,11,12
 151 233 151 233 155.5 233.5 c 128,-1,13
 160 234 160 234 164 234 c 0,14,15
 198 234 198 234 226.5 218 c 128,-1,16
 255 202 255 202 272.5 174.5 c 128,-1,17
 290 147 290 147 290 112 c 0,18,19
 290 78 290 78 272.5 50 c 128,-1,20
 255 22 255 22 226.5 5.5 c 128,-1,21
 198 -11 198 -11 164 -11 c 0,0,1
164 59 m 0,22,23
 187 59 187 59 201.5 74 c 128,-1,24
 216 89 216 89 216 112 c 256,25,26
 216 135 216 135 201.5 149.5 c 128,-1,27
 187 164 187 164 164 164 c 0,28,29
 142 164 142 164 126.5 150 c 128,-1,30
 111 136 111 136 111 112 c 0,31,32
 111 89 111 89 126.5 74 c 128,-1,33
 142 59 142 59 164 59 c 0,22,23
EndSplineSet
EndChar

StartChar: u16B16
Encoding: 92950 92950 30
Width: 663
GlyphClass: 2
Flags: W
HStem: 0 80<184.701 458.588> 339 80<183.5 461.281> 634 80<172.184 470.816>
VStem: 61 90<111.337 306.112 480 612.005> 493 90<113.953 307.465 387 611.479>
AnchorPoint: "+BBEENQQ3BEsEPARPBD0EPQQ+BDUA--0" 320 800 basechar 0
LayerCount: 2
Fore
SplineSet
246 0 m 2,0,1
 152 0 152 0 106.5 42 c 128,-1,2
 61 84 61 84 61 159 c 2,3,-1
 61 258 l 2,4,5
 61 300 61 300 81 337 c 128,-1,6
 101 374 101 374 140 396.5 c 128,-1,7
 179 419 179 419 236 419 c 2,8,-1
 388 419 l 2,9,10
 424 419 424 419 450 409.5 c 128,-1,11
 476 400 476 400 493 387 c 1,12,-1
 493 540 l 2,13,14
 493 581 493 581 474.5 607.5 c 128,-1,15
 456 634 456 634 413 634 c 2,16,-1
 230 634 l 2,17,18
 187 634 187 634 168.5 607.5 c 128,-1,19
 150 581 150 581 150 540 c 2,20,-1
 150 480 l 1,21,-1
 60 480 l 1,22,-1
 60 555 l 2,23,24
 60 623 60 623 99.5 668.5 c 128,-1,25
 139 714 139 714 217 714 c 2,26,-1
 426 714 l 2,27,28
 504 714 504 714 543.5 668.5 c 128,-1,29
 583 623 583 623 583 555 c 2,30,-1
 583 159 l 2,31,32
 583 92 583 92 536.5 46 c 128,-1,33
 490 0 490 0 394 0 c 2,34,-1
 246 0 l 2,0,1
266 80 m 2,35,-1
 385 80 l 2,36,37
 437 80 437 80 465 107 c 128,-1,38
 493 134 493 134 493 174 c 2,39,-1
 493 246 l 2,40,41
 493 283 493 283 468 311 c 128,-1,42
 443 339 443 339 388 339 c 2,43,-1
 256 339 l 2,44,45
 200 339 200 339 175.5 310 c 128,-1,46
 151 281 151 281 151 243 c 2,47,-1
 151 174 l 2,48,49
 151 126 151 126 181.5 103 c 128,-1,50
 212 80 212 80 266 80 c 2,35,-1
EndSplineSet
EndChar

StartChar: u16B17
Encoding: 92951 92951 31
Width: 659
GlyphClass: 2
Flags: W
HStem: -11 82<199.155 332.2> 480 70<462.458 542.48> 655 70<462.065 542.958>
VStem: 80 90<101.209 714> 360 90<99.1182 491 565.471 640.045> 555 74<562.746 643.134>
AnchorPoint: "+BBEENQQ3BEsEPARPBD0EPQQ+BDUA--0" 292 800 basechar 0
LayerCount: 2
Fore
SplineSet
262 -11 m 0,0,1
 185 -11 185 -11 146 17 c 128,-1,2
 107 45 107 45 93.5 99.5 c 128,-1,3
 80 154 80 154 80 233 c 2,4,-1
 80 714 l 1,5,-1
 170 714 l 1,6,-1
 170 232 l 2,7,8
 170 183 170 183 174.5 147 c 128,-1,9
 179 111 179 111 199.5 91 c 128,-1,10
 220 71 220 71 267 71 c 256,11,12
 314 71 314 71 333 92.5 c 128,-1,13
 352 114 352 114 356 150.5 c 128,-1,14
 360 187 360 187 360 231 c 2,15,-1
 360 564 l 2,16,17
 360 585 360 585 366 612.5 c 128,-1,18
 372 640 372 640 387 665.5 c 128,-1,19
 402 691 402 691 430 708 c 128,-1,20
 458 725 458 725 502 725 c 0,21,22
 536 725 536 725 565 709 c 128,-1,23
 594 693 594 693 611.5 665.5 c 128,-1,24
 629 638 629 638 629 603 c 0,25,26
 629 569 629 569 611.5 541 c 128,-1,27
 594 513 594 513 565 496.5 c 128,-1,28
 536 480 536 480 502 480 c 0,29,30
 475 480 475 480 450 491 c 1,31,-1
 450 231 l 2,32,33
 450 157 450 157 436 102.5 c 128,-1,34
 422 48 422 48 382 18.5 c 128,-1,35
 342 -11 342 -11 262 -11 c 0,0,1
502 550 m 0,36,37
 525 550 525 550 540 565 c 128,-1,38
 555 580 555 580 555 603 c 0,39,40
 555 627 555 627 540 641 c 128,-1,41
 525 655 525 655 502 655 c 0,42,43
 480 655 480 655 465 640.5 c 128,-1,44
 450 626 450 626 450 603 c 256,45,46
 450 580 450 580 465 565 c 128,-1,47
 480 550 480 550 502 550 c 0,36,37
EndSplineSet
EndChar

StartChar: u16B18
Encoding: 92952 92952 32
Width: 567
GlyphClass: 2
Flags: W
HStem: -11 82<263.102 391.507> 634 80<20 142 232 527>
VStem: 142 90<105.225 634> 422 90<98.8049 170>
AnchorPoint: "+BBEENQQ3BEsEPARPBD0EPQQ+BDUA--0" 278 800 basechar 0
LayerCount: 2
Fore
SplineSet
329 -11 m 0,0,1
 250 -11 250 -11 209.5 19.5 c 128,-1,2
 169 50 169 50 155.5 107 c 128,-1,3
 142 164 142 164 142 243 c 2,4,-1
 142 634 l 1,5,-1
 20 634 l 1,6,-1
 20 714 l 1,7,-1
 527 714 l 1,8,-1
 527 634 l 1,9,-1
 232 634 l 1,10,-1
 232 244 l 2,11,12
 232 195 232 195 236.5 156 c 128,-1,13
 241 117 241 117 261.5 94 c 128,-1,14
 282 71 282 71 329 71 c 0,15,16
 370 71 370 71 389.5 87.5 c 128,-1,17
 409 104 409 104 415.5 125.5 c 128,-1,18
 422 147 422 147 422 162 c 2,19,-1
 422 170 l 1,20,-1
 512 170 l 1,21,-1
 512 161 l 2,22,23
 512 120 512 120 495 80 c 128,-1,24
 478 40 478 40 438 14.5 c 128,-1,25
 398 -11 398 -11 329 -11 c 0,0,1
EndSplineSet
EndChar

StartChar: u16B19
Encoding: 92953 92953 33
Width: 714
GlyphClass: 2
Flags: W
HStem: -11 82<145.599 224.274> 0 21G<534 624> 564 80<89 240 330 534>
VStem: 40 90<85.375 170> 240 90<85.6598 564> 534 90<0 564 644 714>
AnchorPoint: "+BBEENQQ3BEsEPARPBD0EPQQ+BDUA--0" 360 800 basechar 0
LayerCount: 2
Fore
SplineSet
180 -11 m 0,0,1
 119 -11 119 -11 79.5 32.5 c 128,-1,2
 40 76 40 76 40 157 c 2,3,-1
 40 170 l 1,4,-1
 130 170 l 1,5,-1
 130 165 l 2,6,7
 130 71 130 71 185 71 c 256,8,9
 240 71 240 71 240 165 c 2,10,-1
 240 564 l 1,11,-1
 89 564 l 1,12,-1
 89 644 l 1,13,-1
 534 644 l 1,14,-1
 534 714 l 1,15,-1
 624 714 l 1,16,-1
 624 0 l 1,17,-1
 534 0 l 1,18,-1
 534 564 l 1,19,-1
 330 564 l 1,20,-1
 330 160 l 2,21,22
 330 72 330 72 289.5 30.5 c 128,-1,23
 249 -11 249 -11 180 -11 c 0,0,1
EndSplineSet
EndChar

StartChar: u16B1A
Encoding: 92954 92954 34
Width: 903
GlyphClass: 2
Flags: W
HStem: 0 80<424.701 698.588> 339 80<423.5 701.281> 634 80<412.184 710.816>
VStem: 90 90<0 714> 301 90<111.337 306.112 480 612.005> 733 90<113.953 307.465 387 611.479>
AnchorPoint: "+BBEENQQ3BEsEPARPBD0EPQQ+BDUA--0" 430 800 basechar 0
LayerCount: 2
Fore
SplineSet
486 0 m 2,0,1
 392 0 392 0 346.5 42 c 128,-1,2
 301 84 301 84 301 159 c 2,3,-1
 301 258 l 2,4,5
 301 300 301 300 321 337 c 128,-1,6
 341 374 341 374 380 396.5 c 128,-1,7
 419 419 419 419 476 419 c 2,8,-1
 628 419 l 2,9,10
 664 419 664 419 690 409.5 c 128,-1,11
 716 400 716 400 733 387 c 1,12,-1
 733 540 l 2,13,14
 733 581 733 581 714.5 607.5 c 128,-1,15
 696 634 696 634 653 634 c 2,16,-1
 470 634 l 2,17,18
 427 634 427 634 408.5 607.5 c 128,-1,19
 390 581 390 581 390 540 c 2,20,-1
 390 480 l 1,21,-1
 300 480 l 1,22,-1
 300 555 l 2,23,24
 300 623 300 623 339.5 668.5 c 128,-1,25
 379 714 379 714 457 714 c 2,26,-1
 666 714 l 2,27,28
 744 714 744 714 783.5 668.5 c 128,-1,29
 823 623 823 623 823 555 c 2,30,-1
 823 159 l 2,31,32
 823 92 823 92 776.5 46 c 128,-1,33
 730 0 730 0 634 0 c 2,34,-1
 486 0 l 2,0,1
90 0 m 1,35,-1
 90 714 l 1,36,-1
 180 714 l 1,37,-1
 180 0 l 1,38,-1
 90 0 l 1,35,-1
506 80 m 2,39,-1
 625 80 l 2,40,41
 677 80 677 80 705 107 c 128,-1,42
 733 134 733 134 733 174 c 2,43,-1
 733 246 l 2,44,45
 733 283 733 283 708 311 c 128,-1,46
 683 339 683 339 628 339 c 2,47,-1
 496 339 l 2,48,49
 440 339 440 339 415.5 310 c 128,-1,50
 391 281 391 281 391 243 c 2,51,-1
 391 174 l 2,52,53
 391 126 391 126 421.5 103 c 128,-1,54
 452 80 452 80 506 80 c 2,39,-1
EndSplineSet
EndChar

StartChar: u16B1B
Encoding: 92955 92955 35
Width: 869
GlyphClass: 2
Flags: W
HStem: -11 82<409.155 542.2> 0 21G<90 180> 480 70<672.458 752.48> 655 70<672.065 752.958>
VStem: 90 90<0 714> 290 90<101.209 714> 570 90<99.1182 491 565.471 640.045> 765 74<562.746 643.134>
AnchorPoint: "+BBEENQQ3BEsEPARPBD0EPQQ+BDUA--0" 411 800 basechar 0
LayerCount: 2
Fore
SplineSet
472 -11 m 0,0,1
 395 -11 395 -11 356 17 c 128,-1,2
 317 45 317 45 303.5 99.5 c 128,-1,3
 290 154 290 154 290 233 c 2,4,-1
 290 714 l 1,5,-1
 380 714 l 1,6,-1
 380 232 l 2,7,8
 380 183 380 183 384.5 147 c 128,-1,9
 389 111 389 111 409.5 91 c 128,-1,10
 430 71 430 71 477 71 c 256,11,12
 524 71 524 71 543 92.5 c 128,-1,13
 562 114 562 114 566 150.5 c 128,-1,14
 570 187 570 187 570 231 c 2,15,-1
 570 564 l 2,16,17
 570 585 570 585 576 612.5 c 128,-1,18
 582 640 582 640 597 665.5 c 128,-1,19
 612 691 612 691 640 708 c 128,-1,20
 668 725 668 725 712 725 c 0,21,22
 746 725 746 725 775 709 c 128,-1,23
 804 693 804 693 821.5 665.5 c 128,-1,24
 839 638 839 638 839 603 c 0,25,26
 839 569 839 569 821.5 541 c 128,-1,27
 804 513 804 513 775 496.5 c 128,-1,28
 746 480 746 480 712 480 c 0,29,30
 685 480 685 480 660 491 c 1,31,-1
 660 231 l 2,32,33
 660 157 660 157 646 102.5 c 128,-1,34
 632 48 632 48 592 18.5 c 128,-1,35
 552 -11 552 -11 472 -11 c 0,0,1
90 0 m 1,36,-1
 90 714 l 1,37,-1
 180 714 l 1,38,-1
 180 0 l 1,39,-1
 90 0 l 1,36,-1
712 550 m 0,40,41
 735 550 735 550 750 565 c 128,-1,42
 765 580 765 580 765 603 c 0,43,44
 765 627 765 627 750 641 c 128,-1,45
 735 655 735 655 712 655 c 0,46,47
 690 655 690 655 675 640.5 c 128,-1,48
 660 626 660 626 660 603 c 256,49,50
 660 580 660 580 675 565 c 128,-1,51
 690 550 690 550 712 550 c 0,40,41
EndSplineSet
EndChar

StartChar: u16B1C
Encoding: 92956 92956 36
Width: 599
GlyphClass: 2
Flags: W
HStem: 0 80<194.081 396.919> 480 70<349 421 511 569> 634 80<192.184 396.919>
VStem: 80 90<102.946 611.479> 421 90<102.946 215 550 609.762>
AnchorPoint: "+BBEENQQ3BEsEPARPBD0EPQQ+BDUA--1" 300 800 basechar 0
LayerCount: 2
Fore
SplineSet
237 0 m 2,0,1
 159 0 159 0 119.5 46 c 128,-1,2
 80 92 80 92 80 159 c 2,3,-1
 80 555 l 2,4,5
 80 623 80 623 119.5 668.5 c 128,-1,6
 159 714 159 714 237 714 c 2,7,-1
 354 714 l 2,8,9
 432 714 432 714 471.5 668.5 c 128,-1,10
 511 623 511 623 511 555 c 2,11,-1
 511 550 l 1,12,-1
 569 550 l 1,13,-1
 569 480 l 1,14,-1
 349 480 l 1,15,-1
 349 550 l 1,16,-1
 421 550 l 1,17,18
 419 587 419 587 400 610.5 c 128,-1,19
 381 634 381 634 341 634 c 2,20,-1
 250 634 l 2,21,22
 207 634 207 634 188.5 607.5 c 128,-1,23
 170 581 170 581 170 540 c 2,24,-1
 170 174 l 2,25,26
 170 134 170 134 188.5 107 c 128,-1,27
 207 80 207 80 250 80 c 2,28,-1
 341 80 l 2,29,30
 384 80 384 80 402.5 107 c 128,-1,31
 421 134 421 134 421 174 c 2,32,-1
 421 215 l 1,33,-1
 511 215 l 1,34,-1
 511 159 l 2,35,36
 511 92 511 92 471.5 46 c 128,-1,37
 432 0 432 0 354 0 c 2,38,-1
 237 0 l 2,0,1
EndSplineSet
EndChar

StartChar: u16B1D
Encoding: 92957 92957 37
Width: 622
GlyphClass: 2
Flags: W
HStem: 0 21G<90 180 501.112 612>
VStem: 90 90<0 134 262 714>
AnchorPoint: "+BBEENQQ3BEsEPARPBD0EPQQ+BDUA--1" 300 800 basechar 0
LayerCount: 2
Fore
SplineSet
90 0 m 1,0,-1
 90 714 l 1,1,-1
 180 714 l 1,2,-1
 180 262 l 1,3,-1
 501 714 l 1,4,-1
 601 714 l 1,5,-1
 384 416 l 1,6,-1
 612 0 l 1,7,-1
 512 0 l 1,8,-1
 328 338 l 1,9,-1
 180 134 l 1,10,-1
 180 0 l 1,11,-1
 90 0 l 1,0,-1
EndSplineSet
EndChar

StartChar: u16B1E
Encoding: 92958 92958 38
Width: 765
GlyphClass: 2
Flags: W
HStem: 0 80<180 315> 643 82<434.155 567.2>
VStem: 90 90<80 714> 315 90<80 613.306> 595 90<0 614.882>
AnchorPoint: "+BBEENQQ3BEsEPARPBD0EPQQ+BDUA--1" 380 800 basechar 0
LayerCount: 2
Fore
SplineSet
90 0 m 1,0,-1
 90 714 l 1,1,-1
 180 714 l 1,2,-1
 180 80 l 1,3,-1
 315 80 l 1,4,-1
 315 481 l 2,5,6
 315 561 315 561 328.5 615 c 128,-1,7
 342 669 342 669 381 697 c 128,-1,8
 420 725 420 725 497 725 c 0,9,10
 577 725 577 725 617 695.5 c 128,-1,11
 657 666 657 666 671 611.5 c 128,-1,12
 685 557 685 557 685 483 c 2,13,-1
 685 0 l 1,14,-1
 595 0 l 1,15,-1
 595 483 l 2,16,17
 595 527 595 527 591 563.5 c 128,-1,18
 587 600 587 600 568 621.5 c 128,-1,19
 549 643 549 643 502 643 c 256,20,21
 455 643 455 643 434.5 623 c 128,-1,22
 414 603 414 603 409.5 567 c 128,-1,23
 405 531 405 531 405 482 c 2,24,-1
 405 0 l 1,25,-1
 90 0 l 1,0,-1
EndSplineSet
EndChar

StartChar: u16B1F
Encoding: 92959 92959 39
Width: 779
GlyphClass: 2
Flags: W
HStem: 0 21G<90 180 364 454> 469 70<582.133 662.958> 634 80<180 364 454 504> 644 70<585.47 659.529>
VStem: 90 90<0 634> 364 90<0 634> 496 74<550.988 630.921> 675 74<550.73 631.587>
AnchorPoint: "+BBEENQQ3BEsEPARPBD0EPQQ+BDUA--1" 377 800 basechar 0
LayerCount: 2
Fore
SplineSet
90 0 m 1,0,-1
 90 714 l 1,1,-1
 622 714 l 2,2,3
 656 714 656 714 685 697.5 c 128,-1,4
 714 681 714 681 731.5 653.5 c 128,-1,5
 749 626 749 626 749 591 c 0,6,7
 749 557 749 557 731.5 529 c 128,-1,8
 714 501 714 501 685 485 c 128,-1,9
 656 469 656 469 622 469 c 256,10,11
 588 469 588 469 559.5 485 c 128,-1,12
 531 501 531 501 513.5 529 c 128,-1,13
 496 557 496 557 496 591 c 0,14,15
 496 612 496 612 504 634 c 1,16,-1
 454 634 l 1,17,-1
 454 0 l 1,18,-1
 364 0 l 1,19,-1
 364 634 l 1,20,-1
 180 634 l 1,21,-1
 180 0 l 1,22,-1
 90 0 l 1,0,-1
622 539 m 0,23,24
 645 539 645 539 660 553 c 128,-1,25
 675 567 675 567 675 591 c 0,26,27
 675 614 675 614 660 629 c 128,-1,28
 645 644 645 644 622 644 c 0,29,30
 600 644 600 644 585 629 c 128,-1,31
 570 614 570 614 570 591 c 256,32,33
 570 568 570 568 585 553.5 c 128,-1,34
 600 539 600 539 622 539 c 0,23,24
EndSplineSet
EndChar

StartChar: u16B20
Encoding: 92960 92960 40
Width: 711
GlyphClass: 2
Flags: W
HStem: -11 82<209.886 351.558> 424 80<480 671> 634 80<480 671>
VStem: 80 90<113.508 714> 390 90<112.89 424 504 634>
AnchorPoint: "+BBEENQQ3BEsEPARPBD0EPQQ+BDUA--1" 279 800 basechar 0
LayerCount: 2
Fore
SplineSet
277 -11 m 0,0,1
 200 -11 200 -11 157 17 c 128,-1,2
 114 45 114 45 97 99.5 c 128,-1,3
 80 154 80 154 80 233 c 2,4,-1
 80 714 l 1,5,-1
 170 714 l 1,6,-1
 170 232 l 2,7,8
 170 183 170 183 178 147 c 128,-1,9
 186 111 186 111 210.5 91 c 128,-1,10
 235 71 235 71 282 71 c 256,11,12
 329 71 329 71 352 92.5 c 128,-1,13
 375 114 375 114 382.5 150.5 c 128,-1,14
 390 187 390 187 390 231 c 2,15,-1
 390 714 l 1,16,-1
 671 714 l 1,17,-1
 671 634 l 1,18,-1
 480 634 l 1,19,-1
 480 504 l 1,20,-1
 671 504 l 1,21,-1
 671 424 l 1,22,-1
 480 424 l 1,23,-1
 480 231 l 2,24,25
 480 157 480 157 462.5 102.5 c 128,-1,26
 445 48 445 48 401 18.5 c 128,-1,27
 357 -11 357 -11 277 -11 c 0,0,1
EndSplineSet
EndChar

StartChar: u16B21
Encoding: 92961 92961 41
Width: 670
GlyphClass: 2
Flags: W
HStem: -11 82<222.65 447.046> 364 80<170 500>
VStem: 80 90<123.17 364 444 714> 500 90<123.552 364 444 714>
AnchorPoint: "+BBEENQQ3BEsEPARPBD0EPQQ+BDUA--1" 335 800 basechar 0
LayerCount: 2
Fore
SplineSet
332 -11 m 0,0,1
 199 -11 199 -11 139.5 45.5 c 128,-1,2
 80 102 80 102 80 221 c 2,3,-1
 80 714 l 1,4,-1
 170 714 l 1,5,-1
 170 444 l 1,6,-1
 500 444 l 1,7,-1
 500 714 l 1,8,-1
 590 714 l 1,9,-1
 590 219 l 2,10,11
 590 108 590 108 532 48.5 c 128,-1,12
 474 -11 474 -11 332 -11 c 0,0,1
337 71 m 0,13,14
 402 71 402 71 437 87 c 128,-1,15
 472 103 472 103 486 136.5 c 128,-1,16
 500 170 500 170 500 224 c 2,17,-1
 500 364 l 1,18,-1
 170 364 l 1,19,-1
 170 223 l 2,20,21
 170 165 170 165 185.5 132 c 128,-1,22
 201 99 201 99 238 85 c 128,-1,23
 275 71 275 71 337 71 c 0,13,14
EndSplineSet
EndChar

StartChar: u16B22
Encoding: 92962 92962 42
Width: 659
GlyphClass: 2
Flags: W
HStem: 0 21G<90 180 489 579> 643 82<317.527 468.366>
VStem: 90 90<0 521.449 608 714> 489 90<0 622.512>
AnchorPoint: "+BBEENQQ3BEsEPARPBD0EPQQ+BDUA--1" 321 800 basechar 0
LayerCount: 2
Fore
SplineSet
90 0 m 1,0,-1
 90 714 l 1,1,-1
 180 714 l 1,2,-1
 180 608 l 1,3,4
 205 636 205 636 239.5 663 c 128,-1,5
 274 690 274 690 319 707.5 c 128,-1,6
 364 725 364 725 418 725 c 0,7,8
 482 725 482 725 516.5 699 c 128,-1,9
 551 673 551 673 565 625.5 c 128,-1,10
 579 578 579 578 579 511 c 2,11,-1
 579 0 l 1,12,-1
 489 0 l 1,13,-1
 489 514 l 2,14,15
 489 580 489 580 474.5 611.5 c 128,-1,16
 460 643 460 643 407 643 c 0,17,18
 369 643 369 643 330.5 627 c 128,-1,19
 292 611 292 611 260 584.5 c 128,-1,20
 228 558 228 558 206.5 528 c 128,-1,21
 185 498 185 498 180 469 c 1,22,-1
 180 0 l 1,23,-1
 90 0 l 1,0,-1
EndSplineSet
EndChar

StartChar: u16B23
Encoding: 92963 92963 43
Width: 625
GlyphClass: 2
Flags: W
HStem: 0 80<180 555> 334 80<180 555> 634 80<180 555>
VStem: 90 90<80 334 414 634>
AnchorPoint: "+BBEENQQ3BEsEPARPBD0EPQQ+BDUA--1" 320 800 basechar 0
LayerCount: 2
Fore
SplineSet
90 0 m 1,0,-1
 90 714 l 1,1,-1
 555 714 l 1,2,-1
 555 634 l 1,3,-1
 180 634 l 1,4,-1
 180 414 l 1,5,-1
 555 414 l 1,6,-1
 555 334 l 1,7,-1
 180 334 l 1,8,-1
 180 80 l 1,9,-1
 555 80 l 1,10,-1
 555 0 l 1,11,-1
 90 0 l 1,0,-1
EndSplineSet
EndChar

StartChar: u16B24
Encoding: 92964 92964 44
Width: 879
GlyphClass: 2
Flags: W
HStem: -11 82<197.415 294.825 455.175 553.713> 480 70<682.458 762.48> 655 70<682.065 762.958>
VStem: 80 90<100.803 714> 330 90<113.007 714> 580 90<99.1206 491 565.471 640.045> 775 74<562.746 643.134>
AnchorPoint: "+BBEENQQ3BEsEPARPBD0EPQQ+BDUA--1" 375 800 basechar 0
LayerCount: 2
Fore
SplineSet
240 -11 m 0,0,1
 179 -11 179 -11 144 18.5 c 128,-1,2
 109 48 109 48 94.5 102.5 c 128,-1,3
 80 157 80 157 80 231 c 2,4,-1
 80 714 l 1,5,-1
 170 714 l 1,6,-1
 170 231 l 2,7,8
 170 150 170 150 186.5 110.5 c 128,-1,9
 203 71 203 71 243 71 c 0,10,11
 330 71 330 71 330 231 c 2,12,-1
 330 714 l 1,13,-1
 420 714 l 1,14,-1
 420 229 l 2,15,16
 420 71 420 71 507 71 c 0,17,18
 548 71 548 71 564 110.5 c 128,-1,19
 580 150 580 150 580 231 c 2,20,-1
 580 564 l 2,21,22
 580 585 580 585 586 612.5 c 128,-1,23
 592 640 592 640 607 665.5 c 128,-1,24
 622 691 622 691 650 708 c 128,-1,25
 678 725 678 725 722 725 c 0,26,27
 756 725 756 725 785 709 c 128,-1,28
 814 693 814 693 831.5 665.5 c 128,-1,29
 849 638 849 638 849 603 c 0,30,31
 849 569 849 569 831.5 541 c 128,-1,32
 814 513 814 513 785 496.5 c 128,-1,33
 756 480 756 480 722 480 c 0,34,35
 695 480 695 480 670 491 c 1,36,-1
 670 231 l 2,37,38
 670 157 670 157 655.5 102.5 c 128,-1,39
 641 48 641 48 606 18.5 c 128,-1,40
 571 -11 571 -11 510 -11 c 0,41,42
 468 -11 468 -11 433.5 11 c 128,-1,43
 399 33 399 33 375 69 c 1,44,45
 351 33 351 33 316.5 11 c 128,-1,46
 282 -11 282 -11 240 -11 c 0,0,1
722 550 m 0,47,48
 745 550 745 550 760 565 c 128,-1,49
 775 580 775 580 775 603 c 0,50,51
 775 627 775 627 760 641 c 128,-1,52
 745 655 745 655 722 655 c 0,53,54
 700 655 700 655 685 640.5 c 128,-1,55
 670 626 670 626 670 603 c 256,56,57
 670 580 670 580 685 565 c 128,-1,58
 700 550 700 550 722 550 c 0,47,48
EndSplineSet
EndChar

StartChar: u16B25
Encoding: 92965 92965 45
Width: 664
GlyphClass: 2
Flags: W
HStem: 0 21G<470 560> 180 80<170 470 560 624>
VStem: 80 90<260 714> 470 90<0 180 260 714>
AnchorPoint: "+BBEENQQ3BEsEPARPBD0EPQQ+BDUA--1" 320 800 basechar 0
LayerCount: 2
Fore
SplineSet
470 0 m 1,0,-1
 470 180 l 1,1,-1
 80 180 l 1,2,-1
 80 714 l 1,3,-1
 170 714 l 1,4,-1
 170 260 l 1,5,-1
 470 260 l 1,6,-1
 470 714 l 1,7,-1
 560 714 l 1,8,-1
 560 260 l 1,9,-1
 624 260 l 1,10,-1
 624 180 l 1,11,-1
 560 180 l 1,12,-1
 560 0 l 1,13,-1
 470 0 l 1,0,-1
EndSplineSet
EndChar

StartChar: u16B26
Encoding: 92966 92966 46
Width: 688
GlyphClass: 2
Flags: W
HStem: 0 21G<80 170 410 500> 499 66<505.79 577.524> 643 82<196.379 309.101> 658 67<503.354 577.454>
VStem: 80 90<0 617.948> 410 90<0 502> 588 70<575.893 647.299>
AnchorPoint: "+BBEENQQ3BEsEPARPBD0EPQQ+BDUA--1" 300 800 basechar 0
LayerCount: 2
Fore
SplineSet
80 0 m 1,0,-1
 80 533 l 2,1,2
 80 566 80 566 86.5 599.5 c 128,-1,3
 93 633 93 633 110 661.5 c 128,-1,4
 127 690 127 690 159 707.5 c 128,-1,5
 191 725 191 725 241 725 c 0,6,7
 277 725 277 725 308 709 c 128,-1,8
 339 693 339 693 366 670 c 128,-1,9
 393 647 393 647 417 626 c 1,10,11
 443 725 443 725 541 725 c 0,12,13
 571 725 571 725 598 711.5 c 128,-1,14
 625 698 625 698 641.5 673 c 128,-1,15
 658 648 658 648 658 613 c 0,16,17
 658 561 658 561 622.5 530 c 128,-1,18
 587 499 587 499 538 499 c 0,19,20
 517 499 517 499 500 502 c 1,21,-1
 500 0 l 1,22,-1
 410 0 l 1,23,-1
 410 544 l 1,24,25
 384 563 384 563 356.5 586 c 128,-1,26
 329 609 329 609 301.5 626 c 128,-1,27
 274 643 274 643 247 643 c 0,28,29
 215 643 215 643 198 625.5 c 128,-1,30
 181 608 181 608 175.5 582.5 c 128,-1,31
 170 557 170 557 170 533 c 2,32,-1
 170 0 l 1,33,-1
 80 0 l 1,0,-1
542 565 m 256,34,35
 561 565 561 565 574.5 578.5 c 128,-1,36
 588 592 588 592 588 611 c 256,37,38
 588 630 588 630 574.5 644 c 128,-1,39
 561 658 561 658 542 658 c 256,40,41
 523 658 523 658 509 644 c 128,-1,42
 495 630 495 630 495 611 c 256,43,44
 495 592 495 592 509 578.5 c 128,-1,45
 523 565 523 565 542 565 c 256,34,35
EndSplineSet
EndChar

StartChar: u16B27
Encoding: 92967 92967 47
Width: 794
GlyphClass: 2
Flags: W
HStem: -11 82<152.202 267.65> 0 21G<614 704> 322 80<387 614> 643 82<152.202 267.65>
VStem: 40 90<90.1086 170 544 623.341> 297 90<101.346 322 402 612.654> 614 90<0 322 402 714>
AnchorPoint: "+BBEENQQ3BEsEPARPBD0EPQQ+BDUA--1" 360 800 basechar 0
LayerCount: 2
Fore
SplineSet
212 -11 m 0,0,1
 143 -11 143 -11 106 14.5 c 128,-1,2
 69 40 69 40 54.5 80 c 128,-1,3
 40 120 40 120 40 161 c 2,4,-1
 40 170 l 1,5,-1
 130 170 l 1,6,-1
 130 162 l 2,7,8
 130 147 130 147 133.5 125.5 c 128,-1,9
 137 104 137 104 154.5 87.5 c 128,-1,10
 172 71 172 71 212 71 c 0,11,12
 249 71 249 71 267 90.5 c 128,-1,13
 285 110 285 110 291 141.5 c 128,-1,14
 297 173 297 173 297 209 c 2,15,-1
 297 505 l 2,16,17
 297 542 297 542 291 573 c 128,-1,18
 285 604 285 604 267 623.5 c 128,-1,19
 249 643 249 643 212 643 c 0,20,21
 172 643 172 643 154.5 626.5 c 128,-1,22
 137 610 137 610 133.5 589 c 128,-1,23
 130 568 130 568 130 552 c 2,24,-1
 130 544 l 1,25,-1
 40 544 l 1,26,-1
 40 553 l 2,27,28
 40 595 40 595 54.5 634.5 c 128,-1,29
 69 674 69 674 106 699.5 c 128,-1,30
 143 725 143 725 212 725 c 0,31,32
 282 725 282 725 320 698 c 128,-1,33
 358 671 358 671 372.5 622 c 128,-1,34
 387 573 387 573 387 506 c 2,35,-1
 387 402 l 1,36,-1
 614 402 l 1,37,-1
 614 714 l 1,38,-1
 704 714 l 1,39,-1
 704 0 l 1,40,-1
 614 0 l 1,41,-1
 614 322 l 1,42,-1
 387 322 l 1,43,-1
 387 208 l 2,44,45
 387 141 387 141 372.5 92 c 128,-1,46
 358 43 358 43 320 16 c 128,-1,47
 282 -11 282 -11 212 -11 c 0,0,1
EndSplineSet
EndChar

StartChar: u16B28
Encoding: 92968 92968 48
Width: 671
GlyphClass: 2
Flags: W
HStem: 0 21G<80 170 501 591> 252 80<170 501> 634 80<172.184 478.816>
VStem: 60 90<480 611.479> 80 90<0 252> 501 90<0 252 332 611.479>
AnchorPoint: "+BBEENQQ3BEsEPARPBD0EPQQ+BDUA--1" 307 800 basechar 0
LayerCount: 2
Fore
SplineSet
80 0 m 1,0,-1
 80 332 l 1,1,-1
 501 332 l 1,2,-1
 501 540 l 2,3,4
 501 581 501 581 482.5 607.5 c 128,-1,5
 464 634 464 634 421 634 c 2,6,-1
 230 634 l 2,7,8
 187 634 187 634 168.5 607.5 c 128,-1,9
 150 581 150 581 150 540 c 2,10,-1
 150 480 l 1,11,-1
 60 480 l 1,12,-1
 60 555 l 2,13,14
 60 623 60 623 99.5 668.5 c 128,-1,15
 139 714 139 714 217 714 c 2,16,-1
 434 714 l 2,17,18
 512 714 512 714 551.5 668.5 c 128,-1,19
 591 623 591 623 591 555 c 2,20,-1
 591 0 l 1,21,-1
 501 0 l 1,22,-1
 501 252 l 1,23,-1
 170 252 l 1,24,-1
 170 0 l 1,25,-1
 80 0 l 1,0,-1
EndSplineSet
EndChar

StartChar: u16B29
Encoding: 92969 92969 49
Width: 791
GlyphClass: 2
Flags: W
HStem: -11 70<116.3 197.192 594.065 674.958> 164 70<116.778 196.8 594.458 674.48> 342 80<299 492>
VStem: 30 74<70.7305 151.118> 209 90<73.9552 148.529 223 342 422 714> 492 90<73.9552 148.529 223 342 422 714> 687 74<70.7305 151.587>
AnchorPoint: "+BBEENQQ3BEsEPARPBD0EPQQ+BDUA--1" 390 800 basechar 0
LayerCount: 2
Fore
SplineSet
157 -11 m 0,0,1
 123 -11 123 -11 94 5 c 128,-1,2
 65 21 65 21 47.5 49 c 128,-1,3
 30 77 30 77 30 111 c 0,4,5
 30 146 30 146 47.5 173.5 c 128,-1,6
 65 201 65 201 94 217.5 c 128,-1,7
 123 234 123 234 157 234 c 0,8,9
 184 234 184 234 209 223 c 1,10,-1
 209 714 l 1,11,-1
 299 714 l 1,12,-1
 299 422 l 1,13,-1
 492 422 l 1,14,-1
 492 714 l 1,15,-1
 582 714 l 1,16,-1
 582 223 l 1,17,18
 607 234 607 234 634 234 c 0,19,20
 668 234 668 234 697 217.5 c 128,-1,21
 726 201 726 201 743.5 173.5 c 128,-1,22
 761 146 761 146 761 111 c 0,23,24
 761 77 761 77 743.5 49 c 128,-1,25
 726 21 726 21 697 5 c 128,-1,26
 668 -11 668 -11 634 -11 c 0,27,28
 590 -11 590 -11 562 6 c 128,-1,29
 534 23 534 23 519 48.5 c 128,-1,30
 504 74 504 74 498 101.5 c 128,-1,31
 492 129 492 129 492 150 c 2,32,-1
 492 342 l 1,33,-1
 299 342 l 1,34,-1
 299 150 l 2,35,36
 299 129 299 129 293 101.5 c 128,-1,37
 287 74 287 74 272 48.5 c 128,-1,38
 257 23 257 23 229 6 c 128,-1,39
 201 -11 201 -11 157 -11 c 0,0,1
157 59 m 0,40,41
 180 59 180 59 194.5 73.5 c 128,-1,42
 209 88 209 88 209 111 c 256,43,44
 209 134 209 134 194.5 149 c 128,-1,45
 180 164 180 164 157 164 c 0,46,47
 135 164 135 164 119.5 149 c 128,-1,48
 104 134 104 134 104 111 c 0,49,50
 104 87 104 87 119.5 73 c 128,-1,51
 135 59 135 59 157 59 c 0,40,41
634 59 m 0,52,53
 657 59 657 59 672 73 c 128,-1,54
 687 87 687 87 687 111 c 0,55,56
 687 134 687 134 672 149 c 128,-1,57
 657 164 657 164 634 164 c 0,58,59
 612 164 612 164 597 149 c 128,-1,60
 582 134 582 134 582 111 c 256,61,62
 582 88 582 88 597 73.5 c 128,-1,63
 612 59 612 59 634 59 c 0,52,53
EndSplineSet
EndChar

StartChar: u16B2A
Encoding: 92970 92970 50
Width: 750
GlyphClass: 2
Flags: W
HStem: 0 21G<80 170 330 420 580 670> 643 82<197.415 294.825 455.175 553.713>
VStem: 80 90<0 613.197> 330 90<0 600.993> 580 90<0 614.879>
CounterMasks: 1 38
AnchorPoint: "+BBEENQQ3BEsEPARPBD0EPQQ+BDUA--1" 377 800 basechar 0
LayerCount: 2
Fore
SplineSet
80 0 m 1,0,-1
 80 483 l 2,1,2
 80 557 80 557 94.5 611.5 c 128,-1,3
 109 666 109 666 144 695.5 c 128,-1,4
 179 725 179 725 240 725 c 0,5,6
 282 725 282 725 316.5 703 c 128,-1,7
 351 681 351 681 375 645 c 1,8,9
 399 681 399 681 433.5 703 c 128,-1,10
 468 725 468 725 510 725 c 0,11,12
 571 725 571 725 606 695.5 c 128,-1,13
 641 666 641 666 655.5 611.5 c 128,-1,14
 670 557 670 557 670 483 c 2,15,-1
 670 0 l 1,16,-1
 580 0 l 1,17,-1
 580 483 l 2,18,19
 580 564 580 564 564 603.5 c 128,-1,20
 548 643 548 643 507 643 c 0,21,22
 420 643 420 643 420 485 c 2,23,-1
 420 0 l 1,24,-1
 330 0 l 1,25,-1
 330 483 l 2,26,27
 330 643 330 643 243 643 c 0,28,29
 203 643 203 643 186.5 603.5 c 128,-1,30
 170 564 170 564 170 483 c 2,31,-1
 170 0 l 1,32,-1
 80 0 l 1,0,-1
EndSplineSet
EndChar

StartChar: u16B2B
Encoding: 92971 92971 51
Width: 692
GlyphClass: 2
Flags: W
HStem: 0 21G<90 180 512 602>
VStem: 90 90<0 559> 512 90<0 553>
AnchorPoint: "+BBEENQQ3BEsEPARPBD0EPQQ+BDUA--1" 335 800 basechar 0
LayerCount: 2
Fore
SplineSet
90 0 m 1,0,-1
 90 714 l 1,1,-1
 180 714 l 1,2,-1
 346 399 l 1,3,-1
 512 714 l 1,4,-1
 602 714 l 1,5,-1
 602 0 l 1,6,-1
 512 0 l 1,7,-1
 512 553 l 1,8,-1
 371 278 l 1,9,-1
 321 278 l 1,10,-1
 180 559 l 1,11,-1
 180 0 l 1,12,-1
 90 0 l 1,0,-1
EndSplineSet
EndChar

StartChar: u16B2C
Encoding: 92972 92972 52
Width: 701
GlyphClass: 2
Flags: W
HStem: -11 82<209.886 351.558> 634 80<480 671>
VStem: 80 90<113.508 714> 390 90<112.89 634>
AnchorPoint: "+BBEENQQ3BEsEPARPBD0EPQQ+BDUA--1" 300 800 basechar 0
LayerCount: 2
Fore
SplineSet
277 -11 m 0,0,1
 200 -11 200 -11 157 17 c 128,-1,2
 114 45 114 45 97 99.5 c 128,-1,3
 80 154 80 154 80 233 c 2,4,-1
 80 714 l 1,5,-1
 170 714 l 1,6,-1
 170 232 l 2,7,8
 170 183 170 183 178 147 c 128,-1,9
 186 111 186 111 210.5 91 c 128,-1,10
 235 71 235 71 282 71 c 256,11,12
 329 71 329 71 352 92.5 c 128,-1,13
 375 114 375 114 382.5 150.5 c 128,-1,14
 390 187 390 187 390 231 c 2,15,-1
 390 714 l 1,16,-1
 671 714 l 1,17,-1
 671 634 l 1,18,-1
 480 634 l 1,19,-1
 480 231 l 2,20,21
 480 157 480 157 462.5 102.5 c 128,-1,22
 445 48 445 48 401 18.5 c 128,-1,23
 357 -11 357 -11 277 -11 c 0,0,1
EndSplineSet
EndChar

StartChar: u16B2D
Encoding: 92973 92973 53
Width: 561
GlyphClass: 2
Flags: W
HStem: -11 82<209.886 351.558> 634 80<170 521>
VStem: 80 90<113.508 634> 390 90<112.89 294>
AnchorPoint: "+BBEENQQ3BEsEPARPBD0EPQQ+BDUA--1" 300 800 basechar 0
LayerCount: 2
Fore
SplineSet
277 -11 m 0,0,1
 200 -11 200 -11 157 17 c 128,-1,2
 114 45 114 45 97 99.5 c 128,-1,3
 80 154 80 154 80 233 c 2,4,-1
 80 714 l 1,5,-1
 521 714 l 1,6,-1
 521 634 l 1,7,-1
 170 634 l 1,8,-1
 170 232 l 2,9,10
 170 183 170 183 178 147 c 128,-1,11
 186 111 186 111 210.5 91 c 128,-1,12
 235 71 235 71 282 71 c 256,13,14
 329 71 329 71 352 92.5 c 128,-1,15
 375 114 375 114 382.5 150.5 c 128,-1,16
 390 187 390 187 390 231 c 2,17,-1
 390 294 l 1,18,-1
 480 294 l 1,19,-1
 480 231 l 2,20,21
 480 157 480 157 462.5 102.5 c 128,-1,22
 445 48 445 48 401 18.5 c 128,-1,23
 357 -11 357 -11 277 -11 c 0,0,1
EndSplineSet
EndChar

StartChar: u16B2E
Encoding: 92974 92974 54
Width: 598
GlyphClass: 2
Flags: W
HStem: 0 21G<10 107.25 488.5 588> 80 80<152 444>
AnchorPoint: "+BBEENQQ3BEsEPARPBD0EPQQ+BDUA--1" 320 800 basechar 0
LayerCount: 2
Fore
SplineSet
10 0 m 1,0,-1
 249 717 l 1,1,-1
 350 717 l 1,2,-1
 588 0 l 1,3,-1
 495 0 l 1,4,-1
 469 80 l 1,5,-1
 126 80 l 1,6,-1
 101 0 l 1,7,-1
 10 0 l 1,0,-1
152 160 m 1,8,-1
 444 160 l 1,9,-1
 332 517 l 2,10,11
 330 525 330 525 323 546.5 c 128,-1,12
 316 568 316 568 309 591.5 c 128,-1,13
 302 615 302 615 298 627 c 1,14,15
 291 596 291 596 282 565.5 c 128,-1,16
 273 535 273 535 267 517 c 2,17,-1
 152 160 l 1,8,-1
EndSplineSet
EndChar

StartChar: u16B2F
Encoding: 92975 92975 55
Width: 598
GlyphClass: 2
Flags: W
HStem: 0 21G<241.361 355.667> 457 80<185 413>
AnchorPoint: "+BBEENQQ3BEsEPARPBD0EPQQ+BDUA--1" 320 800 basechar 0
LayerCount: 2
Fore
SplineSet
248 0 m 1,0,-1
 10 717 l 1,1,-1
 103 717 l 1,2,-1
 160 537 l 1,3,-1
 439 537 l 1,4,-1
 497 717 l 1,5,-1
 588 717 l 1,6,-1
 349 0 l 1,7,-1
 248 0 l 1,0,-1
300 90 m 1,8,9
 308 121 308 121 316.5 151.5 c 128,-1,10
 325 182 325 182 331 200 c 2,11,-1
 413 457 l 1,12,-1
 185 457 l 1,13,-1
 266 200 l 2,14,15
 269 192 269 192 275.5 170.5 c 128,-1,16
 282 149 282 149 289.5 126 c 128,-1,17
 297 103 297 103 300 90 c 1,8,9
EndSplineSet
EndChar

StartChar: u16B30
Encoding: 92976 92976 56
Width: 0
GlyphClass: 4
Flags: W
HStem: 790 145<-50.3416 50.826>
VStem: -72 145<811.658 912.826>
AnchorPoint: "+BBEENQQ3BEsEPARPBD0EPQQ+BDUA--1" 0 800 mark 0
AnchorPoint: "+BBEENQQ3BEsEPARPBD0EPQQ+BDUA--0" 0 800 mark 0
LayerCount: 2
Fore
SplineSet
0 790 m 256,0,1
 -30 790 -30 790 -51 811 c 128,-1,2
 -72 832 -72 832 -72 862 c 256,3,4
 -72 892 -72 892 -51 913.5 c 128,-1,5
 -30 935 -30 935 0 935 c 256,6,7
 30 935 30 935 51.5 913.5 c 128,-1,8
 73 892 73 892 73 862 c 256,9,10
 73 832 73 832 51.5 811 c 128,-1,11
 30 790 30 790 0 790 c 256,0,1
EndSplineSet
EndChar

StartChar: u16B31
Encoding: 92977 92977 57
Width: 0
GlyphClass: 4
Flags: W
HStem: 770 200
VStem: -100 200
AnchorPoint: "+BBEENQQ3BEsEPARPBD0EPQQ+BDUA--0" 0 800 mark 0
LayerCount: 2
Fore
SplineSet
0 770 m 1,0,-1
 -100 970 l 1,1,-1
 100 970 l 1,2,-1
 0 770 l 1,0,-1
EndSplineSet
EndChar

StartChar: u16B32
Encoding: 92978 92978 58
Width: 0
GlyphClass: 4
Flags: W
HStem: 800 74<-172 173>
AnchorPoint: "+BBEENQQ3BEsEPARPBD0EPQQ+BDUA--0" 0 800 mark 0
LayerCount: 2
Fore
SplineSet
-172 800 m 1,0,-1
 -172 874 l 1,1,-1
 173 874 l 1,2,-1
 173 800 l 1,3,-1
 -172 800 l 1,0,-1
EndSplineSet
EndChar

StartChar: u16B33
Encoding: 92979 92979 59
Width: 0
GlyphClass: 4
Flags: W
HStem: 800 219
AnchorPoint: "+BBEENQQ3BEsEPARPBD0EPQQ+BDUA--0" 0 800 mark 0
LayerCount: 2
Fore
SplineSet
-215 800 m 1,0,-1
 -9 1019 l 1,1,-1
 10 1019 l 1,2,-1
 216 800 l 1,3,-1
 112 800 l 1,4,-1
 0 918 l 1,5,-1
 -111 800 l 1,6,-1
 -215 800 l 1,0,-1
EndSplineSet
EndChar

StartChar: u16B34
Encoding: 92980 92980 60
Width: 0
GlyphClass: 4
Flags: W
HStem: 800 74<-172 173> 910 145<-50.3416 50.826>
VStem: -72 145<931.658 1032.83>
AnchorPoint: "+BBEENQQ3BEsEPARPBD0EPQQ+BDUA--0" 0 800 mark 0
LayerCount: 2
Fore
SplineSet
0 910 m 256,0,1
 -30 910 -30 910 -51 931 c 128,-1,2
 -72 952 -72 952 -72 982 c 256,3,4
 -72 1012 -72 1012 -51 1033.5 c 128,-1,5
 -30 1055 -30 1055 0 1055 c 256,6,7
 30 1055 30 1055 51.5 1033.5 c 128,-1,8
 73 1012 73 1012 73 982 c 256,9,10
 73 952 73 952 51.5 931 c 128,-1,11
 30 910 30 910 0 910 c 256,0,1
-172 800 m 1,12,-1
 -172 874 l 1,13,-1
 173 874 l 1,14,-1
 173 800 l 1,15,-1
 -172 800 l 1,12,-1
EndSplineSet
EndChar

StartChar: u16B35
Encoding: 92981 92981 61
Width: 0
GlyphClass: 4
Flags: W
HStem: 800 74<-172 -42 43 173>
VStem: -42 85<874 1028>
AnchorPoint: "+BBEENQQ3BEsEPARPBD0EPQQ+BDUA--1" 0 800 mark 0
AnchorPoint: "+BBEENQQ3BEsEPARPBD0EPQQ+BDUA--0" 0 800 mark 0
LayerCount: 2
Fore
SplineSet
-172 800 m 1,0,-1
 -172 874 l 1,1,-1
 -42 874 l 1,2,-1
 -42 1028 l 1,3,-1
 43 1028 l 1,4,-1
 43 874 l 1,5,-1
 173 874 l 1,6,-1
 173 800 l 1,7,-1
 -172 800 l 1,0,-1
EndSplineSet
EndChar

StartChar: u16B36
Encoding: 92982 92982 62
Width: 0
GlyphClass: 4
Flags: W
HStem: 790 145<-180.342 -79.174 79.6584 180.826>
VStem: -202 145<811.658 912.826> 58 145<811.658 912.826>
AnchorPoint: "+BBEENQQ3BEsEPARPBD0EPQQ+BDUA--0" 0 800 mark 0
LayerCount: 2
Fore
SplineSet
130 790 m 256,0,1
 100 790 100 790 79 811 c 128,-1,2
 58 832 58 832 58 862 c 256,3,4
 58 892 58 892 79 913.5 c 128,-1,5
 100 935 100 935 130 935 c 256,6,7
 160 935 160 935 181.5 913.5 c 128,-1,8
 203 892 203 892 203 862 c 256,9,10
 203 832 203 832 181.5 811 c 128,-1,11
 160 790 160 790 130 790 c 256,0,1
-130 790 m 256,12,13
 -160 790 -160 790 -181 811 c 128,-1,14
 -202 832 -202 832 -202 862 c 256,15,16
 -202 892 -202 892 -181 913.5 c 128,-1,17
 -160 935 -160 935 -130 935 c 256,18,19
 -100 935 -100 935 -78.5 913.5 c 128,-1,20
 -57 892 -57 892 -57 862 c 256,21,22
 -57 832 -57 832 -78.5 811 c 128,-1,23
 -100 790 -100 790 -130 790 c 256,12,13
EndSplineSet
EndChar

StartChar: u16B37
Encoding: 92983 92983 63
Width: 830
Flags: W
HStem: -11 145<361.658 462.826> 190 80<20 205.919 624.081 810> 376 82<353.606 480.847>
VStem: 230 90<292.946 405 494.053 714> 340 145<10.6584 111.826> 510 90<292.946 407 489.57 714>
LayerCount: 2
Fore
SplineSet
20 190 m 1,0,-1
 20 270 l 1,1,-1
 150 270 l 2,2,3
 193 270 193 270 211.5 297 c 128,-1,4
 230 324 230 324 230 364 c 2,5,-1
 230 714 l 1,6,-1
 320 714 l 1,7,-1
 320 637 l 2,8,9
 320 579 320 579 326.5 539 c 128,-1,10
 333 499 333 499 354 478.5 c 128,-1,11
 375 458 375 458 417 458 c 0,12,13
 462 458 462 458 481.5 480.5 c 128,-1,14
 501 503 501 503 505.5 543.5 c 128,-1,15
 510 584 510 584 510 638 c 2,16,-1
 510 714 l 1,17,-1
 600 714 l 1,18,-1
 600 364 l 2,19,20
 600 324 600 324 618.5 297 c 128,-1,21
 637 270 637 270 680 270 c 2,22,-1
 810 270 l 1,23,-1
 810 190 l 1,24,-1
 667 190 l 2,25,26
 589 190 589 190 549.5 236 c 128,-1,27
 510 282 510 282 510 349 c 2,28,-1
 510 407 l 1,29,30
 491 393 491 393 467 384.5 c 128,-1,31
 443 376 443 376 412 376 c 0,32,33
 384 376 384 376 361 384 c 128,-1,34
 338 392 338 392 320 405 c 1,35,-1
 320 349 l 2,36,37
 320 282 320 282 280.5 236 c 128,-1,38
 241 190 241 190 163 190 c 2,39,-1
 20 190 l 1,0,-1
412 -11 m 256,40,41
 382 -11 382 -11 361 10 c 128,-1,42
 340 31 340 31 340 61 c 256,43,44
 340 91 340 91 361 112.5 c 128,-1,45
 382 134 382 134 412 134 c 256,46,47
 442 134 442 134 463.5 112.5 c 128,-1,48
 485 91 485 91 485 61 c 256,49,50
 485 31 485 31 463.5 10 c 128,-1,51
 442 -11 442 -11 412 -11 c 256,40,41
EndSplineSet
EndChar

StartChar: u16B38
Encoding: 92984 92984 64
Width: 650
Flags: W
HStem: -11 82<219.484 427.312> 634 80<80 286 376 570>
VStem: 80 90<121.125 490> 286 90<170 634> 480 90<120.498 490>
LayerCount: 2
Fore
SplineSet
286 170 m 1,0,-1
 286 634 l 1,1,-1
 80 634 l 1,2,-1
 80 714 l 1,3,-1
 570 714 l 1,4,-1
 570 634 l 1,5,-1
 376 634 l 1,6,-1
 376 170 l 1,7,-1
 286 170 l 1,0,-1
322 -11 m 0,8,9
 189 -11 189 -11 134.5 47.5 c 128,-1,10
 80 106 80 106 80 225 c 2,11,-1
 80 490 l 1,12,-1
 170 490 l 1,13,-1
 170 230 l 2,14,15
 170 172 170 172 183 137 c 128,-1,16
 196 102 196 102 230.5 86.5 c 128,-1,17
 265 71 265 71 327 71 c 0,18,19
 392 71 392 71 424.5 88.5 c 128,-1,20
 457 106 457 106 468.5 141.5 c 128,-1,21
 480 177 480 177 480 231 c 2,22,-1
 480 490 l 1,23,-1
 570 490 l 1,24,-1
 570 223 l 2,25,26
 570 149 570 149 547.5 96.5 c 128,-1,27
 525 44 525 44 471 16.5 c 128,-1,28
 417 -11 417 -11 322 -11 c 0,8,9
EndSplineSet
EndChar

StartChar: u16B39
Encoding: 92985 92985 65
Width: 397
Flags: W
HStem: 0 75<50 157.593> 264 75<50 180.311>
VStem: 212 85<128.469 233.75>
LayerCount: 2
Fore
SplineSet
50 0 m 1,0,-1
 50 75 l 1,1,-1
 97 75 l 2,2,3
 114 75 114 75 129.5 77 c 128,-1,4
 145 79 145 79 158 84 c 1,5,-1
 50 183 l 1,6,-1
 147 183 l 1,7,-1
 207 128 l 1,8,9
 212 143 212 143 212 159 c 2,10,-1
 212 178 l 2,11,12
 212 216 212 216 184 240 c 128,-1,13
 156 264 156 264 107 264 c 2,14,-1
 50 264 l 1,15,-1
 50 339 l 1,16,-1
 102 339 l 2,17,18
 166 339 166 339 209.5 315 c 128,-1,19
 253 291 253 291 275 253 c 128,-1,20
 297 215 297 215 297 173 c 2,21,-1
 297 164 l 2,22,23
 297 109 297 109 270 70 c 1,24,-1
 347 0 l 1,25,-1
 250 0 l 1,26,-1
 220 27 l 1,27,28
 172 0 172 0 92 0 c 2,29,-1
 50 0 l 1,0,-1
EndSplineSet
EndChar

StartChar: u16B3A
Encoding: 92986 92986 66
Width: 605
Flags: W
HStem: -11 82<318.989 439.742> 0 21G<76 172.786> 657 68<190.743 251.093>
VStem: 111 72<555.733 647.807> 261 90<519.112 645.234> 463 92<94.3456 261.562>
LayerCount: 2
Fore
SplineSet
388 -11 m 0,0,1
 338 -11 338 -11 303.5 5 c 128,-1,2
 269 21 269 21 246 49 c 128,-1,3
 223 77 223 77 204 112 c 1,4,-1
 166 0 l 1,5,-1
 76 0 l 1,6,-1
 152 226 l 1,7,-1
 50 452 l 1,8,-1
 132 452 l 1,9,-1
 187 328 l 1,10,-1
 226 443 l 1,11,-1
 185 474 l 2,12,13
 156 496 156 496 133.5 531.5 c 128,-1,14
 111 567 111 567 111 614 c 0,15,16
 111 666 111 666 142 695.5 c 128,-1,17
 173 725 173 725 223 725 c 0,18,19
 289 725 289 725 320 690.5 c 128,-1,20
 351 656 351 656 351 600 c 0,21,22
 351 569 351 569 343 535 c 128,-1,23
 335 501 335 501 323 466 c 1,24,-1
 388 419 l 2,25,26
 466 363 466 363 510.5 305 c 128,-1,27
 555 247 555 247 555 173 c 0,28,29
 555 123 555 123 536 81 c 128,-1,30
 517 39 517 39 479.5 14 c 128,-1,31
 442 -11 442 -11 388 -11 c 0,0,1
251 518 m 1,32,33
 261 557 261 557 261 588 c 0,34,35
 261 621 261 621 250.5 639 c 128,-1,36
 240 657 240 657 223 657 c 0,37,38
 203 657 203 657 193 643.5 c 128,-1,39
 183 630 183 630 183 614 c 0,40,41
 183 593 183 593 192.5 573.5 c 128,-1,42
 202 554 202 554 224 538 c 2,43,-1
 251 518 l 1,32,33
385 71 m 0,44,45
 426 71 426 71 444.5 98.5 c 128,-1,46
 463 126 463 126 463 174 c 0,47,48
 463 236 463 236 430 278.5 c 128,-1,49
 397 321 397 321 354 352 c 2,50,-1
 297 393 l 1,51,-1
 238 213 l 1,52,53
 253 179 253 179 272.5 146 c 128,-1,54
 292 113 292 113 319.5 92 c 128,-1,55
 347 71 347 71 385 71 c 0,44,45
EndSplineSet
EndChar

StartChar: u16B3B
Encoding: 92987 92987 67
Width: 665
Flags: W
HStem: -11 68<211.559 454.166> 103 118<290.533 372.952> 264 70<214.844 450.156> 383 118<290.533 372.952> 537 69<211.559 454.166>
VStem: 50 90<110.299 207.732 389.121 484.381> 273 118<120.533 202.952 400.533 482.952> 525 90<110.299 207.732 389.121 484.381>
LayerCount: 2
Fore
SplineSet
332 -11 m 256,0,1
 244 -11 244 -11 181 11.5 c 128,-1,2
 118 34 118 34 84 72.5 c 128,-1,3
 50 111 50 111 50 157 c 0,4,5
 50 201 50 201 86.5 238 c 128,-1,6
 123 275 123 275 184 297 c 1,7,8
 123 320 123 320 86.5 357 c 128,-1,9
 50 394 50 394 50 437 c 0,10,11
 50 484 50 484 84 522.5 c 128,-1,12
 118 561 118 561 181 583.5 c 128,-1,13
 244 606 244 606 332 606 c 256,14,15
 420 606 420 606 483.5 583.5 c 128,-1,16
 547 561 547 561 581 522.5 c 128,-1,17
 615 484 615 484 615 437 c 0,18,19
 615 394 615 394 578 357 c 128,-1,20
 541 320 541 320 480 297 c 1,21,22
 541 275 541 275 578 238 c 128,-1,23
 615 201 615 201 615 157 c 0,24,25
 615 111 615 111 581 72.5 c 128,-1,26
 547 34 547 34 483.5 11.5 c 128,-1,27
 420 -11 420 -11 332 -11 c 256,0,1
332 334 m 0,28,29
 386 334 386 334 429.5 347.5 c 128,-1,30
 473 361 473 361 499 384.5 c 128,-1,31
 525 408 525 408 525 437 c 256,32,33
 525 466 525 466 499 488.5 c 128,-1,34
 473 511 473 511 429.5 524 c 128,-1,35
 386 537 386 537 332 537 c 0,36,37
 279 537 279 537 235.5 524 c 128,-1,38
 192 511 192 511 166 488.5 c 128,-1,39
 140 466 140 466 140 437 c 256,40,41
 140 408 140 408 166 384.5 c 128,-1,42
 192 361 192 361 235.5 347.5 c 128,-1,43
 279 334 279 334 332 334 c 0,28,29
332 383 m 0,44,45
 307 383 307 383 290 400 c 128,-1,46
 273 417 273 417 273 442 c 0,47,48
 273 466 273 466 290 483.5 c 128,-1,49
 307 501 307 501 332 501 c 0,50,51
 356 501 356 501 373.5 483.5 c 128,-1,52
 391 466 391 466 391 442 c 0,53,54
 391 417 391 417 373.5 400 c 128,-1,55
 356 383 356 383 332 383 c 0,44,45
332 57 m 0,56,57
 386 57 386 57 429.5 70 c 128,-1,58
 473 83 473 83 499 106 c 128,-1,59
 525 129 525 129 525 157 c 0,60,61
 525 188 525 188 499 212 c 128,-1,62
 473 236 473 236 429.5 250 c 128,-1,63
 386 264 386 264 332 264 c 0,64,65
 279 264 279 264 235.5 250 c 128,-1,66
 192 236 192 236 166 212 c 128,-1,67
 140 188 140 188 140 157 c 0,68,69
 140 129 140 129 166 106 c 128,-1,70
 192 83 192 83 235.5 70 c 128,-1,71
 279 57 279 57 332 57 c 0,56,57
332 103 m 0,72,73
 307 103 307 103 290 120 c 128,-1,74
 273 137 273 137 273 162 c 0,75,76
 273 186 273 186 290 203.5 c 128,-1,77
 307 221 307 221 332 221 c 0,78,79
 356 221 356 221 373.5 203.5 c 128,-1,80
 391 186 391 186 391 162 c 0,81,82
 391 137 391 137 373.5 120 c 128,-1,83
 356 103 356 103 332 103 c 0,72,73
EndSplineSet
EndChar

StartChar: u16B3C
Encoding: 92988 92988 68
Width: 632
Flags: W
HStem: 0 21G<452 542> 90 78<188.648 452> 262 78<139 452> 431 78<188.746 452>
VStem: 452 90<0 90 168 262 340 431 509 604>
LayerCount: 2
Fore
SplineSet
452 0 m 1,0,-1
 452 90 l 1,1,-1
 287 90 l 2,2,3
 218 90 218 90 164.5 111 c 128,-1,4
 111 132 111 132 80.5 178 c 128,-1,5
 50 224 50 224 50 299 c 0,6,7
 50 366 50 366 80 412.5 c 128,-1,8
 110 459 110 459 161.5 484 c 128,-1,9
 213 509 213 509 277 509 c 2,10,-1
 452 509 l 1,11,-1
 452 604 l 1,12,-1
 542 604 l 1,13,-1
 542 0 l 1,14,-1
 452 0 l 1,0,-1
139 340 m 1,15,-1
 452 340 l 1,16,-1
 452 431 l 1,17,-1
 260 431 l 2,18,19
 220 431 220 431 185.5 407.5 c 128,-1,20
 151 384 151 384 139 340 c 1,15,-1
270 168 m 2,21,-1
 452 168 l 1,22,-1
 452 262 l 1,23,-1
 138 262 l 1,24,25
 146 227 146 227 167 206.5 c 128,-1,26
 188 186 188 186 215.5 177 c 128,-1,27
 243 168 243 168 270 168 c 2,21,-1
EndSplineSet
EndChar

StartChar: u16B3D
Encoding: 92989 92989 69
Width: 645
Flags: W
HStem: 0 21G<305 395> 214 145<126.658 227.826 471.658 572.826> 524 80<20 305>
VStem: 105 145<235.658 336.826> 305 90<0 524> 450 145<235.658 336.826>
CounterMasks: 1 1c
LayerCount: 2
Fore
SplineSet
305 0 m 1,0,-1
 305 524 l 1,1,-1
 20 524 l 1,2,-1
 20 604 l 1,3,-1
 395 604 l 1,4,-1
 395 0 l 1,5,-1
 305 0 l 1,0,-1
177 214 m 256,6,7
 147 214 147 214 126 235 c 128,-1,8
 105 256 105 256 105 286 c 256,9,10
 105 316 105 316 126 337.5 c 128,-1,11
 147 359 147 359 177 359 c 256,12,13
 207 359 207 359 228.5 337.5 c 128,-1,14
 250 316 250 316 250 286 c 256,15,16
 250 256 250 256 228.5 235 c 128,-1,17
 207 214 207 214 177 214 c 256,6,7
522 214 m 256,18,19
 492 214 492 214 471 235 c 128,-1,20
 450 256 450 256 450 286 c 256,21,22
 450 316 450 316 471 337.5 c 128,-1,23
 492 359 492 359 522 359 c 256,24,25
 552 359 552 359 573.5 337.5 c 128,-1,26
 595 316 595 316 595 286 c 256,27,28
 595 256 595 256 573.5 235 c 128,-1,29
 552 214 552 214 522 214 c 256,18,19
EndSplineSet
EndChar

StartChar: u16B3E
Encoding: 92990 92990 70
Width: 580
Flags: W
HStem: 0 21G<440 530> 185 80<192.219 440> 524 80<193.18 524>
VStem: 50 89<315.387 470.028> 440 90<0 185>
LayerCount: 2
Fore
SplineSet
440 0 m 1,0,-1
 440 185 l 1,1,-1
 287 185 l 2,2,3
 218 185 218 185 164.5 206 c 128,-1,4
 111 227 111 227 80.5 273 c 128,-1,5
 50 319 50 319 50 394 c 0,6,7
 50 461 50 461 80 507.5 c 128,-1,8
 110 554 110 554 161.5 579 c 128,-1,9
 213 604 213 604 277 604 c 2,10,-1
 524 604 l 1,11,-1
 524 524 l 1,12,-1
 265 524 l 2,13,14
 233 524 233 524 204 509 c 128,-1,15
 175 494 175 494 157 465 c 128,-1,16
 139 436 139 436 139 394 c 0,17,18
 139 345 139 345 160 316.5 c 128,-1,19
 181 288 181 288 212.5 276.5 c 128,-1,20
 244 265 244 265 275 265 c 2,21,-1
 530 265 l 1,22,-1
 530 0 l 1,23,-1
 440 0 l 1,0,-1
EndSplineSet
EndChar

StartChar: u16B3F
Encoding: 92991 92991 71
Width: 645
Flags: W
HStem: 0 80<340 625> 245 145<72.174 173.342 417.174 518.342>
VStem: 50 145<267.174 368.342> 250 90<80 604> 395 145<267.174 368.342>
CounterMasks: 1 38
LayerCount: 2
Fore
SplineSet
250 0 m 1,0,-1
 250 604 l 1,1,-1
 340 604 l 1,2,-1
 340 80 l 1,3,-1
 625 80 l 1,4,-1
 625 0 l 1,5,-1
 250 0 l 1,0,-1
123 245 m 256,6,7
 93 245 93 245 71.5 266.5 c 128,-1,8
 50 288 50 288 50 318 c 256,9,10
 50 348 50 348 71.5 369 c 128,-1,11
 93 390 93 390 123 390 c 256,12,13
 153 390 153 390 174 369 c 128,-1,14
 195 348 195 348 195 318 c 256,15,16
 195 288 195 288 174 266.5 c 128,-1,17
 153 245 153 245 123 245 c 256,6,7
468 245 m 256,18,19
 438 245 438 245 416.5 266.5 c 128,-1,20
 395 288 395 288 395 318 c 256,21,22
 395 348 395 348 416.5 369 c 128,-1,23
 438 390 438 390 468 390 c 256,24,25
 498 390 498 390 519 369 c 128,-1,26
 540 348 540 348 540 318 c 256,27,28
 540 288 540 288 519 266.5 c 128,-1,29
 498 245 498 245 468 245 c 256,18,19
EndSplineSet
EndChar

StartChar: u16B40
Encoding: 92992 92992 72
Width: 545
Flags: W
HStem: 111 145<71.6584 172.826> 290 145<371.658 472.826> 469 145<71.6584 172.826>
VStem: 50 145<132.658 233.826 490.658 591.826> 350 145<311.658 412.826>
CounterMasks: 1 e0
LayerCount: 2
Fore
SplineSet
122 469 m 256,0,1
 92 469 92 469 71 490 c 128,-1,2
 50 511 50 511 50 541 c 256,3,4
 50 571 50 571 71 592.5 c 128,-1,5
 92 614 92 614 122 614 c 256,6,7
 152 614 152 614 173.5 592.5 c 128,-1,8
 195 571 195 571 195 541 c 256,9,10
 195 511 195 511 173.5 490 c 128,-1,11
 152 469 152 469 122 469 c 256,0,1
422 290 m 256,12,13
 392 290 392 290 371 311 c 128,-1,14
 350 332 350 332 350 362 c 256,15,16
 350 392 350 392 371 413.5 c 128,-1,17
 392 435 392 435 422 435 c 256,18,19
 452 435 452 435 473.5 413.5 c 128,-1,20
 495 392 495 392 495 362 c 256,21,22
 495 332 495 332 473.5 311 c 128,-1,23
 452 290 452 290 422 290 c 256,12,13
122 111 m 256,24,25
 92 111 92 111 71 132 c 128,-1,26
 50 153 50 153 50 183 c 256,27,28
 50 213 50 213 71 234.5 c 128,-1,29
 92 256 92 256 122 256 c 256,30,31
 152 256 152 256 173.5 234.5 c 128,-1,32
 195 213 195 213 195 183 c 256,33,34
 195 153 195 153 173.5 132 c 128,-1,35
 152 111 152 111 122 111 c 256,24,25
EndSplineSet
EndChar

StartChar: u16B41
Encoding: 92993 92993 73
Width: 418
Flags: W
HStem: 0 21G<238 328>
VStem: 238 90<0 618>
LayerCount: 2
Fore
SplineSet
238 0 m 1,0,-1
 238 618 l 1,1,-1
 141 486 l 1,2,-1
 80 539 l 1,3,-1
 219 714 l 1,4,-1
 328 714 l 1,5,-1
 328 0 l 1,6,-1
 238 0 l 1,0,-1
EndSplineSet
EndChar

StartChar: u16B42
Encoding: 92994 92994 74
Width: 645
Flags: W
HStem: 0 21G<245 335> 364 80<50 245 335 475> 634 80<50 245>
VStem: 245 90<0 364 444 634> 475 90<-60 364>
LayerCount: 2
Fore
SplineSet
475 -60 m 1,0,-1
 475 364 l 1,1,-1
 335 364 l 1,2,-1
 335 0 l 1,3,-1
 245 0 l 1,4,-1
 245 364 l 1,5,-1
 50 364 l 1,6,-1
 50 444 l 1,7,-1
 245 444 l 1,8,-1
 245 634 l 1,9,-1
 50 634 l 1,10,-1
 50 714 l 1,11,-1
 335 714 l 1,12,-1
 335 444 l 1,13,-1
 565 444 l 1,14,-1
 565 -60 l 1,15,-1
 475 -60 l 1,0,-1
EndSplineSet
EndChar

StartChar: u16B43
Encoding: 92995 92995 75
Width: 729
Flags: W
HStem: -11 82<210.762 351.215> 434 80<480 651>
VStem: 80 90<114.29 294> 228 87<249.385 514> 390 90<212 434 514 714> 541 87<256.006 344>
LayerCount: 2
Fore
SplineSet
277 -11 m 0,0,1
 169 -11 169 -11 124.5 51.5 c 128,-1,2
 80 114 80 114 80 233 c 2,3,-1
 80 294 l 1,4,-1
 170 294 l 1,5,-1
 170 232 l 2,6,7
 170 183 170 183 178 147 c 128,-1,8
 186 111 186 111 210.5 91 c 128,-1,9
 235 71 235 71 282 71 c 0,10,11
 323 71 323 71 345.5 88 c 128,-1,12
 368 105 368 105 378 134 c 1,13,14
 296 149 296 149 262 211.5 c 128,-1,15
 228 274 228 274 228 371 c 2,16,-1
 228 514 l 1,17,-1
 315 514 l 1,18,-1
 315 366 l 2,19,20
 315 310 315 310 329 266.5 c 128,-1,21
 343 223 343 223 389 210 c 1,22,23
 389 215 389 215 389.5 220.5 c 128,-1,24
 390 226 390 226 390 231 c 2,25,-1
 390 714 l 1,26,-1
 480 714 l 1,27,-1
 480 514 l 1,28,-1
 651 514 l 1,29,-1
 651 434 l 1,30,-1
 480 434 l 1,31,-1
 480 231 l 2,32,33
 480 227 480 227 479.5 222 c 128,-1,34
 479 217 479 217 479 212 c 1,35,36
 517 223 517 223 529 255 c 128,-1,37
 541 287 541 287 541 344 c 1,38,-1
 628 344 l 1,39,40
 628 250 628 250 591.5 195.5 c 128,-1,41
 555 141 555 141 469 131 c 1,42,43
 453 64 453 64 407 26.5 c 128,-1,44
 361 -11 361 -11 277 -11 c 0,0,1
EndSplineSet
EndChar

StartChar: u16B44
Encoding: 92996 92996 76
Width: 667
Flags: W
HStem: 0 21G<289 379> 315 145<110.658 211.826 455.658 556.826> 634 80<20 289 379 647>
VStem: 89 145<336.658 437.826> 289 90<0 634> 434 145<336.658 437.826>
CounterMasks: 1 1c
LayerCount: 2
Fore
SplineSet
289 0 m 1,0,-1
 289 634 l 1,1,-1
 20 634 l 1,2,-1
 20 714 l 1,3,-1
 647 714 l 1,4,-1
 647 634 l 1,5,-1
 379 634 l 1,6,-1
 379 0 l 1,7,-1
 289 0 l 1,0,-1
161 315 m 256,8,9
 131 315 131 315 110 336 c 128,-1,10
 89 357 89 357 89 387 c 256,11,12
 89 417 89 417 110 438.5 c 128,-1,13
 131 460 131 460 161 460 c 256,14,15
 191 460 191 460 212.5 438.5 c 128,-1,16
 234 417 234 417 234 387 c 256,17,18
 234 357 234 357 212.5 336 c 128,-1,19
 191 315 191 315 161 315 c 256,8,9
506 315 m 256,20,21
 476 315 476 315 455 336 c 128,-1,22
 434 357 434 357 434 387 c 256,23,24
 434 417 434 417 455 438.5 c 128,-1,25
 476 460 476 460 506 460 c 256,26,27
 536 460 536 460 557.5 438.5 c 128,-1,28
 579 417 579 417 579 387 c 256,29,30
 579 357 579 357 557.5 336 c 128,-1,31
 536 315 536 315 506 315 c 256,20,21
EndSplineSet
EndChar

StartChar: u16B45
Encoding: 92997 92997 77
Width: 737
Flags: W
HStem: 238 80<375.084 548.891> 370 80<197.019 404.567> 632 76<329.284 408.716> 775 80<199.863 534.994>
VStem: 80 90<466.614 747.609> 234 86<546 622.717> 266 90<-71 220.978> 418 83<461.825 622.717> 567 90<335.25 743.836>
LayerCount: 2
Fore
SplineSet
299 -213 m 1,0,-1
 99 -4 l 1,1,-1
 99 115 l 1,2,-1
 266 -71 l 1,3,-1
 266 179 l 2,4,5
 266 247 266 247 305.5 282.5 c 128,-1,6
 345 318 345 318 423 318 c 2,7,-1
 487 318 l 2,8,9
 538 318 538 318 552.5 345 c 128,-1,10
 567 372 567 372 567 412 c 2,11,-1
 567 691 l 2,12,13
 567 732 567 732 535 753.5 c 128,-1,14
 503 775 503 775 459 775 c 2,15,-1
 285 775 l 2,16,17
 239 775 239 775 204.5 757 c 128,-1,18
 170 739 170 739 170 691 c 2,19,-1
 170 542 l 2,20,21
 170 517 170 517 175 496 c 128,-1,22
 180 475 180 475 196.5 462.5 c 128,-1,23
 213 450 213 450 245 450 c 2,24,-1
 350 450 l 2,25,26
 393 450 393 450 405.5 471 c 128,-1,27
 418 492 418 492 418 532 c 2,28,-1
 418 597 l 2,29,30
 418 614 418 614 409 623 c 128,-1,31
 400 632 400 632 378 632 c 2,32,-1
 360 632 l 2,33,34
 338 632 338 632 329 623 c 128,-1,35
 320 614 320 614 320 597 c 2,36,-1
 320 546 l 1,37,-1
 234 546 l 1,38,-1
 234 597 l 2,39,40
 234 627 234 627 243 652 c 128,-1,41
 252 677 252 677 276.5 692.5 c 128,-1,42
 301 708 301 708 347 708 c 2,43,-1
 391 708 l 2,44,45
 437 708 437 708 460.5 692.5 c 128,-1,46
 484 677 484 677 492.5 652 c 128,-1,47
 501 627 501 627 501 597 c 2,48,-1
 501 517 l 2,49,50
 501 450 501 450 466.5 410 c 128,-1,51
 432 370 432 370 363 370 c 2,52,-1
 245 370 l 2,53,54
 181 370 181 370 145 392 c 128,-1,55
 109 414 109 414 94.5 449.5 c 128,-1,56
 80 485 80 485 80 527 c 2,57,-1
 80 696 l 2,58,59
 80 771 80 771 131 813 c 128,-1,60
 182 855 182 855 285 855 c 2,61,-1
 468 855 l 2,62,63
 564 855 564 855 610.5 809.5 c 128,-1,64
 657 764 657 764 657 696 c 2,65,-1
 657 397 l 2,66,67
 657 330 657 330 617.5 284 c 128,-1,68
 578 238 578 238 500 238 c 2,69,-1
 436 238 l 2,70,71
 393 238 393 238 374.5 221.5 c 128,-1,72
 356 205 356 205 356 164 c 2,73,-1
 356 -71 l 1,74,-1
 523 115 l 1,75,-1
 523 -4 l 1,76,-1
 323 -213 l 1,77,-1
 299 -213 l 1,0,-1
EndSplineSet
EndChar

StartChar: u16B50
Encoding: 93008 93008 78
Width: 270
Flags: W
HStem: 0 21G<90 180>
VStem: 90 90<0 714>
LayerCount: 2
Fore
SplineSet
90 0 m 1,0,-1
 90 714 l 1,1,-1
 180 714 l 1,2,-1
 180 0 l 1,3,-1
 90 0 l 1,0,-1
EndSplineSet
EndChar

StartChar: u16B51
Encoding: 93009 93009 79
Width: 639
Flags: W
HStem: 0 21G<459 549> 200 82<171.242 320.894>
VStem: 60 90<303.018 714> 459 90<0 316 403.154 714>
LayerCount: 2
Fore
SplineSet
459 0 m 1,0,-1
 459 316 l 1,1,2
 435 289 435 289 399.5 262 c 128,-1,3
 364 235 364 235 319.5 217.5 c 128,-1,4
 275 200 275 200 221 200 c 0,5,6
 158 200 158 200 123 226 c 128,-1,7
 88 252 88 252 74 300 c 128,-1,8
 60 348 60 348 60 414 c 2,9,-1
 60 714 l 1,10,-1
 150 714 l 1,11,-1
 150 411 l 2,12,13
 150 345 150 345 165 313.5 c 128,-1,14
 180 282 180 282 232 282 c 0,15,16
 270 282 270 282 308 298 c 128,-1,17
 346 314 346 314 378.5 340 c 128,-1,18
 411 366 411 366 432.5 396.5 c 128,-1,19
 454 427 454 427 459 456 c 1,20,-1
 459 714 l 1,21,-1
 549 714 l 1,22,-1
 549 0 l 1,23,-1
 459 0 l 1,0,-1
EndSplineSet
EndChar

StartChar: u16B61
Encoding: 93025 93025 80
Width: 721
Flags: W
HStem: 0 21G<90 180 260 330 410 500> 354 80<500 641> 634 80<500 641>
VStem: 90 90<0 714> 260 70<0 714> 410 231<354 434 634 714> 410 90<0 354 434 634>
LayerCount: 2
Fore
SplineSet
410 0 m 1,0,-1
 410 714 l 1,1,-1
 641 714 l 1,2,-1
 641 634 l 1,3,-1
 500 634 l 1,4,-1
 500 434 l 1,5,-1
 641 434 l 1,6,-1
 641 354 l 1,7,-1
 500 354 l 1,8,-1
 500 0 l 1,9,-1
 410 0 l 1,0,-1
90 0 m 1,10,-1
 90 714 l 1,11,-1
 180 714 l 1,12,-1
 180 0 l 1,13,-1
 90 0 l 1,10,-1
260 0 m 1,14,-1
 260 714 l 1,15,-1
 330 714 l 1,16,-1
 330 0 l 1,17,-1
 260 0 l 1,14,-1
EndSplineSet
EndChar

StartChar: u16B52
Encoding: 93010 93010 81
Width: 661
Flags: W
HStem: 0 80<164.081 471.916> 255 74<248.742 475.53> 390 74<241.474 475.53> 634 80<162.184 471.916>
VStem: 50 90<102.946 194 520 611.479> 167 74<334.749 386.26> 491 90<95.4724 241.592 477.408 618.528>
LayerCount: 2
Fore
SplineSet
207 0 m 2,0,1
 129 0 129 0 89.5 46 c 128,-1,2
 50 92 50 92 50 159 c 2,3,-1
 50 194 l 1,4,-1
 140 194 l 1,5,-1
 140 174 l 2,6,7
 140 134 140 134 158.5 107 c 128,-1,8
 177 80 177 80 220 80 c 2,9,-1
 411 80 l 2,10,11
 454 80 454 80 472.5 95 c 128,-1,12
 491 110 491 110 491 140 c 2,13,-1
 491 208 l 2,14,15
 491 229 491 229 476 242 c 128,-1,16
 461 255 461 255 439 255 c 2,17,-1
 252 255 l 2,18,19
 237 255 237 255 217 261.5 c 128,-1,20
 197 268 197 268 182 290.5 c 128,-1,21
 167 313 167 313 167 361 c 256,22,23
 167 409 167 409 179 430.5 c 128,-1,24
 191 452 191 452 213 458 c 128,-1,25
 235 464 235 464 264 464 c 2,26,-1
 439 464 l 2,27,28
 461 464 461 464 476 477 c 128,-1,29
 491 490 491 490 491 511 c 2,30,-1
 491 574 l 2,31,32
 491 604 491 604 472.5 619 c 128,-1,33
 454 634 454 634 411 634 c 2,34,-1
 220 634 l 2,35,36
 177 634 177 634 158.5 607.5 c 128,-1,37
 140 581 140 581 140 540 c 2,38,-1
 140 520 l 1,39,-1
 50 520 l 1,40,-1
 50 555 l 2,41,42
 50 623 50 623 89.5 668.5 c 128,-1,43
 129 714 129 714 207 714 c 2,44,-1
 424 714 l 2,45,46
 502 714 502 714 541.5 678.5 c 128,-1,47
 581 643 581 643 581 575 c 2,48,-1
 581 499 l 2,49,50
 581 446 581 446 549.5 418 c 128,-1,51
 518 390 518 390 470 390 c 2,52,-1
 302 390 l 2,53,54
 264 390 264 390 252.5 385.5 c 128,-1,55
 241 381 241 381 241 361 c 0,56,57
 241 345 241 345 248.5 337 c 128,-1,58
 256 329 256 329 294 329 c 2,59,-1
 470 329 l 2,60,61
 518 329 518 329 549.5 301 c 128,-1,62
 581 273 581 273 581 220 c 2,63,-1
 581 139 l 2,64,65
 581 72 581 72 541.5 36 c 128,-1,66
 502 0 502 0 424 0 c 2,67,-1
 207 0 l 2,0,1
EndSplineSet
EndChar

StartChar: u16B53
Encoding: 93011 93011 82
Width: 796
Flags: W
HStem: 0 21G<80 170 626 716> 34 58<339 457> 643 82<194.782 265.948 530.33 601.706>
VStem: 80 90<0 626.374> 254 288<34 182.222> 284 82<358.8 617.725> 430 82<353.481 617.725> 626 90<0 626.374>
LayerCount: 2
Fore
SplineSet
80 0 m 1,0,-1
 80 521 l 2,1,2
 80 623 80 623 119.5 674 c 128,-1,3
 159 725 159 725 226 725 c 0,4,5
 294 725 294 725 330 674 c 128,-1,6
 366 623 366 623 366 531 c 0,7,8
 366 506 366 506 366 486 c 128,-1,9
 366 466 366 466 364 445 c 2,10,-1
 339 92 l 1,11,-1
 457 92 l 1,12,-1
 432 445 l 2,13,14
 431 466 431 466 430.5 486 c 128,-1,15
 430 506 430 506 430 531 c 0,16,17
 430 623 430 623 466 674 c 128,-1,18
 502 725 502 725 570 725 c 256,19,20
 638 725 638 725 677 674 c 128,-1,21
 716 623 716 623 716 521 c 2,22,-1
 716 0 l 1,23,-1
 626 0 l 1,24,-1
 626 521 l 2,25,26
 626 575 626 575 617.5 601 c 128,-1,27
 609 627 609 627 596 635 c 128,-1,28
 583 643 583 643 569 643 c 0,29,30
 544 643 544 643 528 618.5 c 128,-1,31
 512 594 512 594 512 531 c 0,32,33
 512 512 512 512 512.5 489.5 c 128,-1,34
 513 467 513 467 515 440 c 2,35,-1
 542 92 l 1,36,-1
 542 34 l 1,37,-1
 254 34 l 1,38,-1
 254 92 l 1,39,-1
 281 440 l 2,40,41
 283 467 283 467 283.5 489.5 c 128,-1,42
 284 512 284 512 284 531 c 0,43,44
 284 594 284 594 268.5 618.5 c 128,-1,45
 253 643 253 643 227 643 c 0,46,47
 214 643 214 643 200.5 635 c 128,-1,48
 187 627 187 627 178.5 601 c 128,-1,49
 170 575 170 575 170 521 c 2,50,-1
 170 0 l 1,51,-1
 80 0 l 1,0,-1
EndSplineSet
EndChar

StartChar: u16B54
Encoding: 93012 93012 83
Width: 673
Flags: W
HStem: 0 80<207.349 422.856> 349 80<206.29 462 552 653> 634 80<70 462>
VStem: 80 90<113.375 312.442> 462 90<117.292 349 429 634>
LayerCount: 2
Fore
SplineSet
285 0 m 2,0,1
 182 0 182 0 131 42 c 128,-1,2
 80 84 80 84 80 159 c 2,3,-1
 80 268 l 2,4,5
 80 310 80 310 102 347 c 128,-1,6
 124 384 124 384 167.5 406.5 c 128,-1,7
 211 429 211 429 275 429 c 2,8,-1
 462 429 l 1,9,-1
 462 634 l 1,10,-1
 70 634 l 1,11,-1
 70 714 l 1,12,-1
 552 714 l 1,13,-1
 552 429 l 1,14,-1
 653 429 l 1,15,-1
 653 349 l 1,16,-1
 552 349 l 1,17,-1
 552 159 l 2,18,19
 552 92 552 92 505.5 46 c 128,-1,20
 459 0 459 0 363 0 c 2,21,-1
 285 0 l 2,0,1
285 80 m 2,22,-1
 354 80 l 2,23,24
 398 80 398 80 430 107 c 128,-1,25
 462 134 462 134 462 174 c 2,26,-1
 462 349 l 1,27,-1
 275 349 l 2,28,29
 226 349 226 349 198 320 c 128,-1,30
 170 291 170 291 170 253 c 2,31,-1
 170 174 l 2,32,33
 170 126 170 126 204.5 103 c 128,-1,34
 239 80 239 80 285 80 c 2,22,-1
EndSplineSet
EndChar

StartChar: u16B55
Encoding: 93013 93013 84
Width: 661
Flags: W
HStem: 0 80<164.081 466.919> 329 80<350 468.758> 634 80<162.184 468.816>
VStem: 50 90<102.946 194 520 611.479> 270 80<254 329 409 470> 491 90<102.946 306.479 430.417 611.479>
LayerCount: 2
Fore
SplineSet
207 0 m 2,0,1
 129 0 129 0 89.5 46 c 128,-1,2
 50 92 50 92 50 159 c 2,3,-1
 50 194 l 1,4,-1
 140 194 l 1,5,-1
 140 174 l 2,6,7
 140 134 140 134 158.5 107 c 128,-1,8
 177 80 177 80 220 80 c 2,9,-1
 411 80 l 2,10,11
 454 80 454 80 472.5 107 c 128,-1,12
 491 134 491 134 491 174 c 2,13,-1
 491 235 l 2,14,15
 491 276 491 276 472.5 302.5 c 128,-1,16
 454 329 454 329 411 329 c 2,17,-1
 350 329 l 1,18,-1
 350 254 l 1,19,-1
 270 254 l 1,20,-1
 270 470 l 1,21,-1
 350 470 l 1,22,-1
 350 409 l 1,23,-1
 415 409 l 2,24,25
 456 409 456 409 473.5 436 c 128,-1,26
 491 463 491 463 491 503 c 2,27,-1
 491 540 l 2,28,29
 491 581 491 581 472.5 607.5 c 128,-1,30
 454 634 454 634 411 634 c 2,31,-1
 220 634 l 2,32,33
 177 634 177 634 158.5 607.5 c 128,-1,34
 140 581 140 581 140 540 c 2,35,-1
 140 520 l 1,36,-1
 50 520 l 1,37,-1
 50 555 l 2,38,39
 50 623 50 623 89.5 668.5 c 128,-1,40
 129 714 129 714 207 714 c 2,41,-1
 424 714 l 2,42,43
 502 714 502 714 541.5 668.5 c 128,-1,44
 581 623 581 623 581 555 c 2,45,-1
 581 488 l 2,46,47
 581 452 581 452 566.5 421.5 c 128,-1,48
 552 391 552 391 528 369 c 1,49,50
 552 347 552 347 566.5 316.5 c 128,-1,51
 581 286 581 286 581 250 c 2,52,-1
 581 159 l 2,53,54
 581 92 581 92 541.5 46 c 128,-1,55
 502 0 502 0 424 0 c 2,56,-1
 207 0 l 2,0,1
EndSplineSet
EndChar

StartChar: u16B56
Encoding: 93014 93014 85
Width: 601
Flags: W
HStem: 0 80<194.081 436.919> 634 80<192.184 421.671>
VStem: 80 90<102.946 611.479> 461 90<102.946 215 480 596.229> 471 80<682 742>
LayerCount: 2
Fore
SplineSet
237 0 m 2,0,1
 159 0 159 0 119.5 46 c 128,-1,2
 80 92 80 92 80 159 c 2,3,-1
 80 555 l 2,4,5
 80 623 80 623 119.5 668.5 c 128,-1,6
 159 714 159 714 237 714 c 2,7,-1
 365 714 l 2,8,9
 396 714 396 714 422.5 705.5 c 128,-1,10
 449 697 449 697 471 682 c 1,11,-1
 471 742 l 1,12,-1
 551 742 l 1,13,-1
 551 480 l 1,14,-1
 461 480 l 1,15,-1
 461 540 l 2,16,17
 461 567 461 567 445.5 588.5 c 128,-1,18
 430 610 430 610 405.5 622 c 128,-1,19
 381 634 381 634 355 634 c 2,20,-1
 250 634 l 2,21,22
 207 634 207 634 188.5 607.5 c 128,-1,23
 170 581 170 581 170 540 c 2,24,-1
 170 174 l 2,25,26
 170 134 170 134 188.5 107 c 128,-1,27
 207 80 207 80 250 80 c 2,28,-1
 381 80 l 2,29,30
 424 80 424 80 442.5 107 c 128,-1,31
 461 134 461 134 461 174 c 2,32,-1
 461 215 l 1,33,-1
 551 215 l 1,34,-1
 551 159 l 2,35,36
 551 92 551 92 511.5 46 c 128,-1,37
 472 0 472 0 394 0 c 2,38,-1
 237 0 l 2,0,1
EndSplineSet
EndChar

StartChar: u16B57
Encoding: 93015 93015 86
Width: 649
Flags: W
HStem: 0 21G<90 180 501.798 629> 313 80<180 274.684> 655 70<394.3 475.125>
VStem: 90 90<0 313 393 714> 308 74<562.803 643.134> 487 74<562.195 643.066>
LayerCount: 2
Fore
SplineSet
90 0 m 1,0,-1
 90 714 l 1,1,-1
 180 714 l 1,2,-1
 180 393 l 1,3,4
 250 395 250 395 308.5 417 c 128,-1,5
 367 439 367 439 407 483 c 1,6,7
 364 494 364 494 336 527 c 128,-1,8
 308 560 308 560 308 603 c 0,9,10
 308 638 308 638 325.5 665.5 c 128,-1,11
 343 693 343 693 372 709 c 128,-1,12
 401 725 401 725 435 725 c 256,13,14
 469 725 469 725 497.5 708.5 c 128,-1,15
 526 692 526 692 543.5 662.5 c 128,-1,16
 561 633 561 633 561 593 c 0,17,18
 561 540 561 540 529 493.5 c 128,-1,19
 497 447 497 447 444.5 410.5 c 128,-1,20
 392 374 392 374 332 350 c 1,21,22
 341 343 341 343 348.5 335.5 c 128,-1,23
 356 328 356 328 362 321 c 2,24,-1
 629 0 l 1,25,-1
 518 0 l 1,26,-1
 309 258 l 2,27,28
 292 279 292 279 269.5 296 c 128,-1,29
 247 313 247 313 215 313 c 2,30,-1
 180 313 l 1,31,-1
 180 0 l 1,32,-1
 90 0 l 1,0,-1
435 550 m 0,33,34
 458 550 458 550 472.5 565 c 128,-1,35
 487 580 487 580 487 603 c 256,36,37
 487 626 487 626 472.5 640.5 c 128,-1,38
 458 655 458 655 435 655 c 0,39,40
 413 655 413 655 397.5 641 c 128,-1,41
 382 627 382 627 382 603 c 0,42,43
 382 580 382 580 397.5 565 c 128,-1,44
 413 550 413 550 435 550 c 0,33,34
EndSplineSet
EndChar

StartChar: u16B58
Encoding: 93016 93016 87
Width: 599
Flags: W
HStem: -11 70<404.3 485.125> 0 21G<90 180>
VStem: 90 90<0 321 402 714> 318 74<70.7305 151.197> 497 74<70.7589 151.647>
LayerCount: 2
Fore
SplineSet
445 -11 m 256,0,1
 411 -11 411 -11 382 5 c 128,-1,2
 353 21 353 21 335.5 49 c 128,-1,3
 318 77 318 77 318 111 c 0,4,5
 318 154 318 154 346 187 c 128,-1,6
 374 220 374 220 417 231 c 1,7,8
 375 277 375 277 314 298.5 c 128,-1,9
 253 320 253 320 180 321 c 1,10,-1
 180 0 l 1,11,-1
 90 0 l 1,12,-1
 90 714 l 1,13,-1
 180 714 l 1,14,-1
 180 402 l 1,15,16
 206 406 206 406 225 421.5 c 128,-1,17
 244 437 244 437 259 456 c 2,18,-1
 468 714 l 1,19,-1
 579 714 l 1,20,-1
 312 393 l 2,21,22
 309 389 309 389 306 385.5 c 128,-1,23
 303 382 303 382 299 379 c 1,24,25
 350 363 350 363 398.5 337.5 c 128,-1,26
 447 312 447 312 486 278.5 c 128,-1,27
 525 245 525 245 548 205 c 128,-1,28
 571 165 571 165 571 121 c 0,29,30
 571 82 571 82 553.5 52 c 128,-1,31
 536 22 536 22 507.5 5.5 c 128,-1,32
 479 -11 479 -11 445 -11 c 256,0,1
445 59 m 0,33,34
 468 59 468 59 482.5 73.5 c 128,-1,35
 497 88 497 88 497 111 c 256,36,37
 497 134 497 134 482.5 149 c 128,-1,38
 468 164 468 164 445 164 c 0,39,40
 423 164 423 164 407.5 149 c 128,-1,41
 392 134 392 134 392 111 c 0,42,43
 392 87 392 87 407.5 73 c 128,-1,44
 423 59 423 59 445 59 c 0,33,34
EndSplineSet
EndChar

StartChar: u16B59
Encoding: 93017 93017 88
Width: 654
Flags: W
HStem: 0 21G<90 180 515.358 634> 323 80<180 277.125>
VStem: 90 90<0 323 403 714>
LayerCount: 2
Fore
SplineSet
90 0 m 1,0,-1
 90 714 l 1,1,-1
 180 714 l 1,2,-1
 180 403 l 1,3,-1
 215 403 l 2,4,5
 247 403 247 403 267 417 c 128,-1,6
 287 431 287 431 309 458 c 2,7,-1
 520 714 l 1,8,-1
 622 714 l 1,9,-1
 354 395 l 2,10,11
 347 387 347 387 338 379 c 128,-1,12
 329 371 329 371 319 363 c 1,13,14
 329 355 329 355 338 347 c 128,-1,15
 347 339 347 339 354 331 c 2,16,-1
 634 0 l 1,17,-1
 532 0 l 1,18,-1
 309 268 l 2,19,20
 287 295 287 295 267 309 c 128,-1,21
 247 323 247 323 215 323 c 2,22,-1
 180 323 l 1,23,-1
 180 0 l 1,24,-1
 90 0 l 1,0,-1
EndSplineSet
EndChar

StartChar: u16B5B
Encoding: 93019 93019 89
Width: 825
Flags: W
HStem: -11 82<191.465 277.301 547.699 633.535> 344 68<375 450> 576 74<385.821 439.838>
VStem: 80 90<90.5974 714> 295 80<88.4434 344 412 553.818> 450 80<88.4434 344 412 553.818> 655 90<90.5974 714>
LayerCount: 2
Fore
SplineSet
233 -11 m 0,0,1
 169 -11 169 -11 136 16 c 128,-1,2
 103 43 103 43 91.5 95 c 128,-1,3
 80 147 80 147 80 221 c 2,4,-1
 80 714 l 1,5,-1
 170 714 l 1,6,-1
 170 221 l 2,7,8
 170 177 170 177 174 143 c 128,-1,9
 178 109 178 109 191.5 90 c 128,-1,10
 205 71 205 71 233 71 c 0,11,12
 274 71 274 71 284.5 110 c 128,-1,13
 295 149 295 149 295 222 c 2,14,-1
 295 471 l 2,15,16
 295 514 295 514 303 555 c 128,-1,17
 311 596 311 596 336.5 623 c 128,-1,18
 362 650 362 650 412 650 c 0,19,20
 463 650 463 650 488 623 c 128,-1,21
 513 596 513 596 521.5 555 c 128,-1,22
 530 514 530 514 530 471 c 2,23,-1
 530 222 l 2,24,25
 530 149 530 149 540.5 110 c 128,-1,26
 551 71 551 71 592 71 c 0,27,28
 620 71 620 71 633.5 90 c 128,-1,29
 647 109 647 109 651 143 c 128,-1,30
 655 177 655 177 655 221 c 2,31,-1
 655 714 l 1,32,-1
 745 714 l 1,33,-1
 745 221 l 2,34,35
 745 147 745 147 733.5 95 c 128,-1,36
 722 43 722 43 689 16 c 128,-1,37
 656 -11 656 -11 592 -11 c 0,38,39
 514 -11 514 -11 482 46.5 c 128,-1,40
 450 104 450 104 450 223 c 2,41,-1
 450 344 l 1,42,-1
 375 344 l 1,43,-1
 375 223 l 2,44,45
 375 104 375 104 343 46.5 c 128,-1,46
 311 -11 311 -11 233 -11 c 0,0,1
375 412 m 1,47,-1
 450 412 l 1,48,-1
 450 471 l 2,49,50
 450 533 450 533 440 554.5 c 128,-1,51
 430 576 430 576 413 576 c 256,52,53
 396 576 396 576 385.5 554.5 c 128,-1,54
 375 533 375 533 375 471 c 2,55,-1
 375 412 l 1,47,-1
EndSplineSet
EndChar

StartChar: u16B5C
Encoding: 93020 93020 90
Width: 797
Flags: W
HStem: -10 68<120.181 191.766> 0 21G<502 592> 657 68<605.492 676.448>
VStem: 40 72<67.496 150.403> 205 90<77.5962 197 337 715> 502 90<0 377 518 637.404> 685 72<564.597 647.504>
LayerCount: 2
Fore
SplineSet
152 -10 m 256,0,1
 106 -10 106 -10 73 18.5 c 128,-1,2
 40 47 40 47 40 103 c 0,3,4
 40 142 40 142 60.5 176.5 c 128,-1,5
 81 211 81 211 141 246 c 2,6,-1
 205 284 l 1,7,-1
 205 715 l 1,8,-1
 295 715 l 1,9,-1
 295 337 l 1,10,-1
 502 463 l 1,11,-1
 502 560 l 2,12,13
 502 588 502 588 507.5 617 c 128,-1,14
 513 646 513 646 527.5 670.5 c 128,-1,15
 542 695 542 695 570.5 710 c 128,-1,16
 599 725 599 725 645 725 c 0,17,18
 692 725 692 725 724.5 696.5 c 128,-1,19
 757 668 757 668 757 612 c 0,20,21
 757 573 757 573 736.5 538.5 c 128,-1,22
 716 504 716 504 656 469 c 2,23,-1
 592 431 l 1,24,-1
 592 0 l 1,25,-1
 502 0 l 1,26,-1
 502 377 l 1,27,-1
 295 251 l 1,28,-1
 295 155 l 2,29,30
 295 127 295 127 289.5 98 c 128,-1,31
 284 69 284 69 269.5 44.5 c 128,-1,32
 255 20 255 20 226.5 5 c 128,-1,33
 198 -10 198 -10 152 -10 c 256,0,1
592 518 m 1,34,-1
 625 538 l 2,35,36
 664 561 664 561 674.5 576 c 128,-1,37
 685 591 685 591 685 612 c 0,38,39
 685 628 685 628 675 642.5 c 128,-1,40
 665 657 665 657 645 657 c 0,41,42
 620 657 620 657 606 638 c 128,-1,43
 592 619 592 619 592 590 c 2,44,-1
 592 518 l 1,34,-1
152 58 m 0,45,46
 178 58 178 58 191.5 77 c 128,-1,47
 205 96 205 96 205 125 c 2,48,-1
 205 197 l 1,49,-1
 172 177 l 2,50,51
 133 154 133 154 122.5 139 c 128,-1,52
 112 124 112 124 112 103 c 0,53,54
 112 87 112 87 122 72.5 c 128,-1,55
 132 58 132 58 152 58 c 0,45,46
EndSplineSet
EndChar

StartChar: u16B5D
Encoding: 93021 93021 91
Width: 741
Flags: W
HStem: 0 80<138.3 223.861 517.612 602.7> 322 80<321 420> 634 80<140.094 223.861 519.031 600.906>
VStem: 40 86<88.55 215 500 606.668> 231 90<85.1418 322 402 629.52> 420 90<107.847 322 402 606.668> 615 86<88.55 215 500 606.668>
LayerCount: 2
Fore
SplineSet
171 0 m 2,0,1
 109 0 109 0 74.5 46 c 128,-1,2
 40 92 40 92 40 159 c 2,3,-1
 40 215 l 1,4,-1
 126 215 l 1,5,-1
 126 174 l 2,6,7
 126 134 126 134 135 107 c 128,-1,8
 144 80 144 80 179 80 c 2,9,-1
 188 80 l 2,10,11
 220 80 220 80 225.5 107 c 128,-1,12
 231 134 231 134 231 174 c 2,13,-1
 231 540 l 2,14,15
 231 581 231 581 225.5 607.5 c 128,-1,16
 220 634 220 634 188 634 c 2,17,-1
 179 634 l 2,18,19
 149 634 149 634 137.5 607.5 c 128,-1,20
 126 581 126 581 126 540 c 2,21,-1
 126 500 l 1,22,-1
 40 500 l 1,23,-1
 40 555 l 2,24,25
 40 623 40 623 72.5 668.5 c 128,-1,26
 105 714 105 714 171 714 c 2,27,-1
 189 714 l 2,28,29
 260 714 260 714 290.5 668.5 c 128,-1,30
 321 623 321 623 321 555 c 2,31,-1
 321 402 l 1,32,-1
 420 402 l 1,33,-1
 420 555 l 2,34,35
 420 623 420 623 450.5 668.5 c 128,-1,36
 481 714 481 714 552 714 c 2,37,-1
 570 714 l 2,38,39
 636 714 636 714 668.5 668.5 c 128,-1,40
 701 623 701 623 701 555 c 2,41,-1
 701 500 l 1,42,-1
 615 500 l 1,43,-1
 615 540 l 2,44,45
 615 581 615 581 603.5 607.5 c 128,-1,46
 592 634 592 634 562 634 c 2,47,-1
 553 634 l 2,48,49
 522 634 522 634 516 607.5 c 128,-1,50
 510 581 510 581 510 540 c 2,51,-1
 510 174 l 2,52,53
 510 134 510 134 516 107 c 128,-1,54
 522 80 522 80 553 80 c 2,55,-1
 562 80 l 2,56,57
 597 80 597 80 606 107 c 128,-1,58
 615 134 615 134 615 174 c 2,59,-1
 615 215 l 1,60,-1
 701 215 l 1,61,-1
 701 159 l 2,62,63
 701 92 701 92 666.5 46 c 128,-1,64
 632 0 632 0 570 0 c 2,65,-1
 552 0 l 2,66,67
 482 0 482 0 451 46 c 128,-1,68
 420 92 420 92 420 159 c 2,69,-1
 420 322 l 1,70,-1
 321 322 l 1,71,-1
 321 159 l 2,72,73
 321 92 321 92 290.5 46 c 128,-1,74
 260 0 260 0 189 0 c 2,75,-1
 171 0 l 2,0,1
EndSplineSet
EndChar

StartChar: u16B5E
Encoding: 93022 93022 92
Width: 781
Flags: W
HStem: 0 80<138.3 223.861 518.3 603.861> 174 80<321 420> 634 80<140.094 223.861>
VStem: 40 86<88.55 215 500 606.668> 231 90<85.1418 174 254 629.52> 420 86<88.55 174> 611 90<85.1418 714>
LayerCount: 2
Fore
SplineSet
171 0 m 2,0,1
 109 0 109 0 74.5 46 c 128,-1,2
 40 92 40 92 40 159 c 2,3,-1
 40 215 l 1,4,-1
 126 215 l 1,5,-1
 126 174 l 2,6,7
 126 134 126 134 135 107 c 128,-1,8
 144 80 144 80 179 80 c 2,9,-1
 188 80 l 2,10,11
 220 80 220 80 225.5 107 c 128,-1,12
 231 134 231 134 231 174 c 2,13,-1
 231 540 l 2,14,15
 231 581 231 581 225.5 607.5 c 128,-1,16
 220 634 220 634 188 634 c 2,17,-1
 179 634 l 2,18,19
 149 634 149 634 137.5 607.5 c 128,-1,20
 126 581 126 581 126 540 c 2,21,-1
 126 500 l 1,22,-1
 40 500 l 1,23,-1
 40 555 l 2,24,25
 40 623 40 623 72.5 668.5 c 128,-1,26
 105 714 105 714 171 714 c 2,27,-1
 189 714 l 2,28,29
 260 714 260 714 290.5 668.5 c 128,-1,30
 321 623 321 623 321 555 c 2,31,-1
 321 254 l 1,32,-1
 506 254 l 1,33,-1
 506 174 l 2,34,35
 506 134 506 134 515 107 c 128,-1,36
 524 80 524 80 559 80 c 2,37,-1
 568 80 l 2,38,39
 600 80 600 80 605.5 107 c 128,-1,40
 611 134 611 134 611 174 c 2,41,-1
 611 714 l 1,42,-1
 701 714 l 1,43,-1
 701 159 l 2,44,45
 701 92 701 92 670.5 46 c 128,-1,46
 640 0 640 0 569 0 c 2,47,-1
 551 0 l 2,48,49
 489 0 489 0 454.5 46 c 128,-1,50
 420 92 420 92 420 159 c 2,51,-1
 420 174 l 1,52,-1
 321 174 l 1,53,-1
 321 159 l 2,54,55
 321 92 321 92 290.5 46 c 128,-1,56
 260 0 260 0 189 0 c 2,57,-1
 171 0 l 2,0,1
EndSplineSet
EndChar

StartChar: u16B5F
Encoding: 93023 93023 93
Width: 744
Flags: W
LayerCount: 2
Fore
SplineSet
321 -3 m 1,0,-1
 151 511 l 1,1,-1
 71 437 l 1,2,-1
 20 494 l 1,3,-1
 268 725 l 1,4,-1
 325 674 l 1,5,-1
 220 576 l 1,6,-1
 339 197 l 2,7,8
 342 189 342 189 348.5 167.5 c 128,-1,9
 355 146 355 146 362.5 123 c 128,-1,10
 370 100 370 100 373 87 c 1,11,12
 381 118 381 118 389.5 148.5 c 128,-1,13
 398 179 398 179 404 197 c 2,14,-1
 525 574 l 1,15,-1
 419 674 l 1,16,-1
 476 725 l 1,17,-1
 724 494 l 1,18,-1
 673 437 l 1,19,-1
 593 511 l 1,20,-1
 422 -3 l 1,21,-1
 321 -3 l 1,0,-1
EndSplineSet
EndChar

StartChar: u16B60
Encoding: 93024 93024 94
Width: 640
Flags: W
HStem: 0 21G<80 170 470 560> 480 70<182.458 262.48> 655 70<182.065 262.958>
VStem: 80 90<0 80 201 491 565.471 640.045> 275 74<562.746 643.134> 470 90<0 521 645 714>
LayerCount: 2
Fore
SplineSet
80 0 m 1,0,-1
 80 564 l 2,1,2
 80 585 80 585 86 612.5 c 128,-1,3
 92 640 92 640 107 665.5 c 128,-1,4
 122 691 122 691 150 708 c 128,-1,5
 178 725 178 725 222 725 c 0,6,7
 256 725 256 725 285 709 c 128,-1,8
 314 693 314 693 331.5 665.5 c 128,-1,9
 349 638 349 638 349 603 c 0,10,11
 349 569 349 569 331.5 541 c 128,-1,12
 314 513 314 513 285 496.5 c 128,-1,13
 256 480 256 480 222 480 c 0,14,15
 195 480 195 480 170 491 c 1,16,-1
 170 201 l 1,17,-1
 470 645 l 1,18,-1
 470 714 l 1,19,-1
 560 714 l 1,20,-1
 560 0 l 1,21,-1
 470 0 l 1,22,-1
 470 521 l 1,23,-1
 170 80 l 1,24,-1
 170 0 l 1,25,-1
 80 0 l 1,0,-1
222 550 m 0,26,27
 245 550 245 550 260 565 c 128,-1,28
 275 580 275 580 275 603 c 0,29,30
 275 627 275 627 260 641 c 128,-1,31
 245 655 245 655 222 655 c 0,32,33
 200 655 200 655 185 640.5 c 128,-1,34
 170 626 170 626 170 603 c 256,35,36
 170 580 170 580 185 565 c 128,-1,37
 200 550 200 550 222 550 c 0,26,27
EndSplineSet
EndChar

StartChar: u16B63
Encoding: 93027 93027 95
Width: 636
Flags: W
HStem: 0 80<50 216 306 586> 643 82<333.76 467.103>
VStem: 216 90<80 477> 496 90<459 613.306>
LayerCount: 2
Fore
SplineSet
50 0 m 1,0,-1
 50 80 l 1,1,-1
 216 80 l 1,2,-1
 216 477 l 1,3,-1
 30 656 l 1,4,-1
 87 714 l 1,5,-1
 223 584 l 1,6,7
 235 651 235 651 275 688 c 128,-1,8
 315 725 315 725 404 725 c 0,9,10
 481 725 481 725 520 697 c 128,-1,11
 559 669 559 669 572.5 615 c 128,-1,12
 586 561 586 561 586 481 c 2,13,-1
 586 459 l 1,14,-1
 496 459 l 1,15,-1
 496 482 l 2,16,17
 496 531 496 531 491.5 567 c 128,-1,18
 487 603 487 603 467 623 c 128,-1,19
 447 643 447 643 399 643 c 0,20,21
 353 643 353 643 333.5 621.5 c 128,-1,22
 314 600 314 600 310 563.5 c 128,-1,23
 306 527 306 527 306 483 c 2,24,-1
 306 80 l 1,25,-1
 586 80 l 1,26,-1
 586 0 l 1,27,-1
 50 0 l 1,0,-1
EndSplineSet
EndChar

StartChar: u16B64
Encoding: 93028 93028 96
Width: 589
Flags: W
HStem: 0 21G<90 180> 148 79<180.626 379.681> 454 79<180.626 382.876> 634 80<180 444>
VStem: 90 90<0 152 523 634> 450 89<282.245 400.455>
LayerCount: 2
Fore
SplineSet
90 0 m 1,0,-1
 90 237 l 1,1,-1
 180 237 l 2,2,3
 190 234 190 234 207 230.5 c 128,-1,4
 224 227 224 227 260 227 c 0,5,6
 344 227 344 227 397 257.5 c 128,-1,7
 450 288 450 288 450 340 c 0,8,9
 450 394 450 394 399.5 424 c 128,-1,10
 349 454 349 454 264 454 c 0,11,12
 243 454 243 454 216 451.5 c 128,-1,13
 189 449 189 449 180 444 c 1,14,-1
 90 444 l 1,15,-1
 90 714 l 1,16,-1
 444 714 l 1,17,-1
 444 634 l 1,18,-1
 180 634 l 1,19,-1
 180 523 l 1,20,21
 200 528 200 528 223 530.5 c 128,-1,22
 246 533 246 533 269 533 c 0,23,24
 358 533 358 533 418 506 c 128,-1,25
 478 479 478 479 508.5 435.5 c 128,-1,26
 539 392 539 392 539 341 c 0,27,28
 539 291 539 291 508.5 247 c 128,-1,29
 478 203 478 203 418 175.5 c 128,-1,30
 358 148 358 148 269 148 c 0,31,32
 247 148 247 148 223.5 149 c 128,-1,33
 200 150 200 150 180 152 c 1,34,-1
 180 0 l 1,35,-1
 90 0 l 1,0,-1
EndSplineSet
EndChar

StartChar: u16B65
Encoding: 93029 93029 97
Width: 574
Flags: W
HStem: 0 21G<147.6 253.2 320.8 426.4> 680 157<232.632 339.278>
VStem: 20 86<568.182 600> 208 157<704.632 811.278> 468 86<568.182 600>
LayerCount: 2
Fore
SplineSet
286 680 m 0,0,1
 253 680 253 680 230.5 702.5 c 128,-1,2
 208 725 208 725 208 758 c 0,3,4
 208 790 208 790 230.5 813.5 c 128,-1,5
 253 837 253 837 286 837 c 0,6,7
 318 837 318 837 341.5 813.5 c 128,-1,8
 365 790 365 790 365 758 c 0,9,10
 365 725 365 725 341.5 702.5 c 128,-1,11
 318 680 318 680 286 680 c 0,0,1
152 0 m 1,12,-1
 20 600 l 1,13,-1
 106 600 l 1,14,-1
 203 90 l 1,15,-1
 249 295 l 1,16,-1
 170 600 l 1,17,-1
 256 600 l 1,18,-1
 287 447 l 1,19,-1
 318 600 l 1,20,-1
 404 600 l 1,21,-1
 324 295 l 1,22,-1
 371 90 l 1,23,-1
 468 600 l 1,24,-1
 554 600 l 1,25,-1
 422 0 l 1,26,-1
 326 0 l 1,27,-1
 287 150 l 1,28,-1
 248 0 l 1,29,-1
 152 0 l 1,12,-1
EndSplineSet
EndChar

StartChar: u16B66
Encoding: 93030 93030 98
Width: 690
Flags: W
HStem: 0 21G<80 170 520 610> 463 80<232.35 306 396 455.739> 634 80<60 306 396 630>
VStem: 80 90<0 400.076> 306 90<540.958 634> 520 90<0 401.777>
LayerCount: 2
Fore
SplineSet
170 0 m 1,0,-1
 80 0 l 1,1,-1
 80 311 l 2,2,3
 80 413 80 413 133.5 473.5 c 128,-1,4
 187 534 187 534 306 543 c 1,5,-1
 306 634 l 1,6,-1
 60 634 l 1,7,-1
 60 714 l 1,8,-1
 630 714 l 1,9,-1
 630 634 l 1,10,-1
 396 634 l 1,11,-1
 396 542 l 1,12,13
 505 532 505 532 557.5 474.5 c 128,-1,14
 610 417 610 417 610 309 c 2,15,-1
 610 0 l 1,16,-1
 520 0 l 1,17,-1
 520 304 l 2,18,19
 520 391 520 391 478.5 427 c 128,-1,20
 437 463 437 463 343 463 c 0,21,22
 246 463 246 463 208 423.5 c 128,-1,23
 170 384 170 384 170 303 c 2,24,-1
 170 0 l 1,0,-1
EndSplineSet
EndChar

StartChar: u16B67
Encoding: 93031 93031 99
Width: 780
Flags: W
HStem: -11 82<454.538 580.934> 0 21G<90 180> 322 80<180 330> 643 82<454.538 580.934>
VStem: 90 90<0 322 402 714> 330 90<107.166 322 402 606.947> 610 90<103.125 611>
LayerCount: 2
Fore
SplineSet
512 -11 m 0,0,1
 433 -11 433 -11 394 22 c 128,-1,2
 355 55 355 55 342.5 114.5 c 128,-1,3
 330 174 330 174 330 253 c 2,4,-1
 330 322 l 1,5,-1
 180 322 l 1,6,-1
 180 0 l 1,7,-1
 90 0 l 1,8,-1
 90 714 l 1,9,-1
 180 714 l 1,10,-1
 180 402 l 1,11,-1
 330 402 l 1,12,-1
 330 461 l 2,13,14
 330 541 330 541 342.5 600 c 128,-1,15
 355 659 355 659 394 692 c 128,-1,16
 433 725 433 725 512 725 c 0,17,18
 575 725 575 725 613 705 c 128,-1,19
 651 685 651 685 669.5 649.5 c 128,-1,20
 688 614 688 614 694 566.5 c 128,-1,21
 700 519 700 519 700 463 c 2,22,-1
 700 251 l 2,23,24
 700 196 700 196 694 148 c 128,-1,25
 688 100 688 100 669.5 64.5 c 128,-1,26
 651 29 651 29 613 9 c 128,-1,27
 575 -11 575 -11 512 -11 c 0,0,1
517 71 m 0,28,29
 562 71 562 71 581.5 93.5 c 128,-1,30
 601 116 601 116 605.5 156.5 c 128,-1,31
 610 197 610 197 610 251 c 2,32,-1
 610 463 l 2,33,34
 610 517 610 517 605.5 557.5 c 128,-1,35
 601 598 601 598 581.5 620.5 c 128,-1,36
 562 643 562 643 517 643 c 0,37,38
 475 643 475 643 454 622.5 c 128,-1,39
 433 602 433 602 426.5 562 c 128,-1,40
 420 522 420 522 420 464 c 2,41,-1
 420 250 l 2,42,43
 420 192 420 192 426.5 152 c 128,-1,44
 433 112 433 112 454 91.5 c 128,-1,45
 475 71 475 71 517 71 c 0,28,29
EndSplineSet
EndChar

StartChar: u16B68
Encoding: 93032 93032 100
Width: 610
Flags: W
HStem: 0 80<50 266 356 560> 634 80<50 266 359 560>
VStem: 266 90<80 528>
LayerCount: 2
Fore
SplineSet
50 0 m 1,0,-1
 50 80 l 1,1,-1
 266 80 l 1,2,-1
 266 634 l 1,3,-1
 50 634 l 1,4,-1
 50 714 l 1,5,-1
 560 714 l 1,6,-1
 560 634 l 1,7,-1
 359 634 l 1,8,-1
 528 478 l 1,9,-1
 485 412 l 1,10,-1
 356 528 l 1,11,-1
 356 80 l 1,12,-1
 560 80 l 1,13,-1
 560 0 l 1,14,-1
 50 0 l 1,0,-1
EndSplineSet
EndChar

StartChar: u16B69
Encoding: 93033 93033 101
Width: 610
Flags: W
HStem: 0 80<50 266 356 560>
VStem: 266 90<80 595>
LayerCount: 2
Fore
SplineSet
50 0 m 1,0,-1
 50 80 l 1,1,-1
 266 80 l 1,2,-1
 266 595 l 1,3,-1
 82 419 l 1,4,-1
 82 521 l 1,5,-1
 295 725 l 1,6,-1
 327 725 l 1,7,-1
 540 521 l 1,8,-1
 540 419 l 1,9,-1
 356 595 l 1,10,-1
 356 80 l 1,11,-1
 560 80 l 1,12,-1
 560 0 l 1,13,-1
 50 0 l 1,0,-1
EndSplineSet
EndChar

StartChar: u16B6A
Encoding: 93034 93034 102
Width: 610
Flags: W
HStem: 634 80<50 266 356 560> 780 145<259.658 360.826>
VStem: 238 145<801.658 902.826> 266 90<119 634>
LayerCount: 2
Fore
SplineSet
310 780 m 256,0,1
 280 780 280 780 259 801 c 128,-1,2
 238 822 238 822 238 852 c 256,3,4
 238 882 238 882 259 903.5 c 128,-1,5
 280 925 280 925 310 925 c 256,6,7
 340 925 340 925 361.5 903.5 c 128,-1,8
 383 882 383 882 383 852 c 256,9,10
 383 822 383 822 361.5 801 c 128,-1,11
 340 780 340 780 310 780 c 256,0,1
295 -11 m 1,12,-1
 82 193 l 1,13,-1
 82 295 l 1,14,-1
 266 119 l 1,15,-1
 266 634 l 1,16,-1
 50 634 l 1,17,-1
 50 714 l 1,18,-1
 560 714 l 1,19,-1
 560 634 l 1,20,-1
 356 634 l 1,21,-1
 356 119 l 1,22,-1
 540 295 l 1,23,-1
 540 193 l 1,24,-1
 327 -11 l 1,25,-1
 295 -11 l 1,12,-1
EndSplineSet
EndChar

StartChar: u16B6B
Encoding: 93035 93035 103
Width: 610
Flags: W
HStem: -1 21G<266 356> 634 80<50 266 356 560> 780 145<259.658 360.826>
VStem: 238 145<801.658 902.826> 266 90<-1 634>
LayerCount: 2
Fore
SplineSet
310 780 m 256,0,1
 280 780 280 780 259 801 c 128,-1,2
 238 822 238 822 238 852 c 256,3,4
 238 882 238 882 259 903.5 c 128,-1,5
 280 925 280 925 310 925 c 256,6,7
 340 925 340 925 361.5 903.5 c 128,-1,8
 383 882 383 882 383 852 c 256,9,10
 383 822 383 822 361.5 801 c 128,-1,11
 340 780 340 780 310 780 c 256,0,1
266 -1 m 1,12,-1
 266 634 l 1,13,-1
 50 634 l 1,14,-1
 50 714 l 1,15,-1
 560 714 l 1,16,-1
 560 634 l 1,17,-1
 356 634 l 1,18,-1
 356 -1 l 1,19,-1
 266 -1 l 1,12,-1
EndSplineSet
EndChar

StartChar: u16B6C
Encoding: 93036 93036 104
Width: 610
Flags: W
HStem: -211 145<259.658 360.826> 0 80<50 266 356 560>
VStem: 238 145<-188.826 -87.6584> 266 90<80 715>
LayerCount: 2
Fore
SplineSet
50 0 m 1,0,-1
 50 80 l 1,1,-1
 266 80 l 1,2,-1
 266 715 l 1,3,-1
 356 715 l 1,4,-1
 356 80 l 1,5,-1
 560 80 l 1,6,-1
 560 0 l 1,7,-1
 50 0 l 1,0,-1
310 -211 m 256,8,9
 280 -211 280 -211 259 -189.5 c 128,-1,10
 238 -168 238 -168 238 -138 c 256,11,12
 238 -108 238 -108 259 -87 c 128,-1,13
 280 -66 280 -66 310 -66 c 256,14,15
 340 -66 340 -66 361.5 -87 c 128,-1,16
 383 -108 383 -108 383 -138 c 256,17,18
 383 -168 383 -168 361.5 -189.5 c 128,-1,19
 340 -211 340 -211 310 -211 c 256,8,9
EndSplineSet
EndChar

StartChar: u16B6D
Encoding: 93037 93037 105
Width: 690
Flags: W
HStem: 0 21G<90 199.075 510 600>
VStem: 90 90<109 714> 510 90<0 346 456 605>
LayerCount: 2
Fore
SplineSet
90 0 m 1,0,-1
 90 714 l 1,1,-1
 180 714 l 1,2,-1
 180 109 l 1,3,-1
 510 456 l 1,4,-1
 510 605 l 1,5,-1
 440 527 l 1,6,-1
 386 579 l 1,7,-1
 510 714 l 1,8,-1
 600 714 l 1,9,-1
 600 0 l 1,10,-1
 510 0 l 1,11,-1
 510 346 l 1,12,-1
 180 0 l 1,13,-1
 90 0 l 1,0,-1
EndSplineSet
EndChar

StartChar: u16B6E
Encoding: 93038 93038 106
Width: 820
Flags: W
HStem: 0 80<600 770>
VStem: 90 90<109 714> 510 90<80 346 456 605>
LayerCount: 2
Fore
SplineSet
90 0 m 1,0,-1
 90 714 l 1,1,-1
 180 714 l 1,2,-1
 180 109 l 1,3,-1
 510 456 l 1,4,-1
 510 605 l 1,5,-1
 440 527 l 1,6,-1
 386 579 l 1,7,-1
 510 714 l 1,8,-1
 600 714 l 1,9,-1
 600 80 l 1,10,-1
 770 80 l 1,11,-1
 770 0 l 1,12,-1
 510 0 l 1,13,-1
 510 346 l 1,14,-1
 180 0 l 1,15,-1
 90 0 l 1,0,-1
EndSplineSet
EndChar

StartChar: u16B6F
Encoding: 93039 93039 107
Width: 650
Flags: W
HStem: 0 80<180 600>
VStem: 90 90<80 714>
LayerCount: 2
Fore
SplineSet
90 0 m 1,0,-1
 90 714 l 1,1,-1
 180 714 l 1,2,-1
 180 80 l 1,3,-1
 600 80 l 1,4,-1
 600 0 l 1,5,-1
 90 0 l 1,0,-1
EndSplineSet
EndChar

StartChar: u16B70
Encoding: 93040 93040 108
Width: 680
Flags: W
HStem: 0 21G<90 180> 260 80<180 630>
VStem: 90 90<0 260 340 600>
LayerCount: 2
Fore
SplineSet
90 0 m 1,0,-1
 90 600 l 1,1,-1
 180 600 l 1,2,-1
 180 340 l 1,3,-1
 630 340 l 1,4,-1
 630 260 l 1,5,-1
 180 260 l 1,6,-1
 180 0 l 1,7,-1
 90 0 l 1,0,-1
EndSplineSet
EndChar

StartChar: u16B71
Encoding: 93041 93041 109
Width: 680
Flags: W
HStem: 0 21G<500 590> 260 80<50 500>
VStem: 500 90<0 260 340 600>
LayerCount: 2
Fore
SplineSet
500 0 m 1,0,-1
 500 260 l 1,1,-1
 50 260 l 1,2,-1
 50 340 l 1,3,-1
 500 340 l 1,4,-1
 500 600 l 1,5,-1
 590 600 l 1,6,-1
 590 0 l 1,7,-1
 500 0 l 1,0,-1
EndSplineSet
EndChar

StartChar: u16B72
Encoding: 93042 93042 110
Width: 780
Flags: W
HStem: 0 21G<90 180> 90 80<260 730> 430 80<260 730>
VStem: 90 90<0 600>
LayerCount: 2
Fore
SplineSet
90 0 m 1,0,-1
 90 600 l 1,1,-1
 180 600 l 1,2,-1
 180 0 l 1,3,-1
 90 0 l 1,0,-1
260 430 m 1,4,-1
 260 510 l 1,5,-1
 730 510 l 1,6,-1
 730 430 l 1,7,-1
 260 430 l 1,4,-1
260 90 m 1,8,-1
 260 170 l 1,9,-1
 730 170 l 1,10,-1
 730 90 l 1,11,-1
 260 90 l 1,8,-1
EndSplineSet
EndChar

StartChar: u16B73
Encoding: 93043 93043 111
Width: 749
Flags: W
HStem: 0 21G<324 414 569 659> 330 80<170 324 414 569> 634 80<414 569>
VStem: 80 90<410 714> 324 90<0 330 410 634> 569 90<0 330 504 634>
LayerCount: 2
Fore
SplineSet
324 0 m 1,0,-1
 324 330 l 1,1,-1
 80 330 l 1,2,-1
 80 714 l 1,3,-1
 170 714 l 1,4,-1
 170 410 l 1,5,-1
 324 410 l 1,6,-1
 324 714 l 1,7,-1
 659 714 l 1,8,-1
 659 504 l 1,9,-1
 569 504 l 1,10,-1
 569 634 l 1,11,-1
 414 634 l 1,12,-1
 414 410 l 1,13,-1
 659 410 l 1,14,-1
 659 0 l 1,15,-1
 569 0 l 1,16,-1
 569 330 l 1,17,-1
 414 330 l 1,18,-1
 414 0 l 1,19,-1
 324 0 l 1,0,-1
EndSplineSet
EndChar

StartChar: u16B74
Encoding: 93044 93044 112
Width: 780
Flags: W
HStem: -11 82<454.377 577.575> 0 21G<90 200.261> 643 82<454.538 579.993>
VStem: 90 90<112 714> 330 90<352 606.947> 610 90<102.814 215 500 614.328>
LayerCount: 2
Fore
SplineSet
90 0 m 1,0,-1
 90 714 l 1,1,-1
 180 714 l 1,2,-1
 180 112 l 1,3,-1
 330 262 l 1,4,-1
 330 461 l 2,5,6
 330 541 330 541 342.5 600 c 128,-1,7
 355 659 355 659 394 692 c 128,-1,8
 433 725 433 725 512 725 c 256,9,10
 591 725 591 725 631 696.5 c 128,-1,11
 671 668 671 668 685 617.5 c 128,-1,12
 699 567 699 567 700 500 c 1,13,-1
 610 500 l 1,14,15
 610 547 610 547 603.5 578.5 c 128,-1,16
 597 610 597 610 577.5 626.5 c 128,-1,17
 558 643 558 643 517 643 c 0,18,19
 475 643 475 643 454 622.5 c 128,-1,20
 433 602 433 602 426.5 562 c 128,-1,21
 420 522 420 522 420 464 c 2,22,-1
 420 352 l 1,23,-1
 491 423 l 1,24,-1
 546 360 l 1,25,-1
 420 236 l 1,26,27
 421 182 421 182 428 145.5 c 128,-1,28
 435 109 435 109 455.5 90 c 128,-1,29
 476 71 476 71 517 71 c 0,30,31
 557 71 557 71 576.5 88.5 c 128,-1,32
 596 106 596 106 602.5 138.5 c 128,-1,33
 609 171 609 171 610 215 c 1,34,-1
 700 215 l 1,35,36
 699 149 699 149 684.5 98 c 128,-1,37
 670 47 670 47 630.5 18 c 128,-1,38
 591 -11 591 -11 512 -11 c 0,39,40
 451 -11 451 -11 414.5 9 c 128,-1,41
 378 29 378 29 360 65.5 c 128,-1,42
 342 102 342 102 335 153 c 1,43,-1
 180 0 l 1,44,-1
 90 0 l 1,0,-1
EndSplineSet
EndChar

StartChar: u16B75
Encoding: 93045 93045 113
Width: 770
Flags: W
HStem: -11 82<201.807 326.695> 0 21G<600 690> 330 80<161 360 450 600> 643 82<200.007 326.695>
VStem: 80 90<101.814 214 500 614.328> 360 90<107.166 330 410 606.947> 600 90<0 330>
LayerCount: 2
Fore
SplineSet
268 -11 m 0,0,1
 190 -11 190 -11 150 17.5 c 128,-1,2
 110 46 110 46 96 97 c 128,-1,3
 82 148 82 148 80 214 c 1,4,-1
 170 214 l 1,5,6
 171 170 171 170 177.5 137.5 c 128,-1,7
 184 105 184 105 203.5 88 c 128,-1,8
 223 71 223 71 263 71 c 0,9,10
 306 71 306 71 326.5 91.5 c 128,-1,11
 347 112 347 112 353.5 152 c 128,-1,12
 360 192 360 192 360 250 c 2,13,-1
 360 330 l 1,14,-1
 161 330 l 1,15,-1
 161 410 l 1,16,-1
 360 410 l 1,17,-1
 360 464 l 2,18,19
 360 522 360 522 353.5 562 c 128,-1,20
 347 602 347 602 326.5 622.5 c 128,-1,21
 306 643 306 643 263 643 c 0,22,23
 222 643 222 643 202.5 626.5 c 128,-1,24
 183 610 183 610 177 578.5 c 128,-1,25
 171 547 171 547 170 500 c 1,26,-1
 80 500 l 1,27,28
 82 567 82 567 95.5 617.5 c 128,-1,29
 109 668 109 668 149 696.5 c 128,-1,30
 189 725 189 725 268 725 c 256,31,32
 347 725 347 725 386 692 c 128,-1,33
 425 659 425 659 437.5 600 c 128,-1,34
 450 541 450 541 450 461 c 2,35,-1
 450 410 l 1,36,-1
 690 410 l 1,37,-1
 690 0 l 1,38,-1
 600 0 l 1,39,-1
 600 330 l 1,40,-1
 450 330 l 1,41,-1
 450 253 l 2,42,43
 450 174 450 174 437.5 114.5 c 128,-1,44
 425 55 425 55 386 22 c 128,-1,45
 347 -11 347 -11 268 -11 c 0,0,1
EndSplineSet
EndChar

StartChar: u16B76
Encoding: 93046 93046 114
Width: 800
Flags: W
HStem: -11 70<482.065 562.958> 0 21G<90 180> 164 70<482.458 562.48> 342 80<180 380> 643 82<504.538 629.993>
VStem: 90 90<0 342 422 714> 380 90<73.9552 148.529 223 342 422 606.947> 575 74<70.7305 151.587> 660 90<500 614.328>
LayerCount: 2
Fore
SplineSet
522 -11 m 0,0,1
 478 -11 478 -11 450 6 c 128,-1,2
 422 23 422 23 407 48.5 c 128,-1,3
 392 74 392 74 386 101.5 c 128,-1,4
 380 129 380 129 380 150 c 2,5,-1
 380 342 l 1,6,-1
 180 342 l 1,7,-1
 180 0 l 1,8,-1
 90 0 l 1,9,-1
 90 714 l 1,10,-1
 180 714 l 1,11,-1
 180 422 l 1,12,-1
 380 422 l 1,13,-1
 380 461 l 2,14,15
 380 541 380 541 392.5 600 c 128,-1,16
 405 659 405 659 444 692 c 128,-1,17
 483 725 483 725 562 725 c 256,18,19
 641 725 641 725 681 696.5 c 128,-1,20
 721 668 721 668 735 617.5 c 128,-1,21
 749 567 749 567 750 500 c 1,22,-1
 660 500 l 1,23,24
 660 547 660 547 653.5 578.5 c 128,-1,25
 647 610 647 610 627.5 626.5 c 128,-1,26
 608 643 608 643 567 643 c 0,27,28
 525 643 525 643 504 622.5 c 128,-1,29
 483 602 483 602 476.5 562 c 128,-1,30
 470 522 470 522 470 464 c 2,31,-1
 470 223 l 1,32,33
 495 234 495 234 522 234 c 0,34,35
 556 234 556 234 585 217.5 c 128,-1,36
 614 201 614 201 631.5 173.5 c 128,-1,37
 649 146 649 146 649 111 c 0,38,39
 649 77 649 77 631.5 49 c 128,-1,40
 614 21 614 21 585 5 c 128,-1,41
 556 -11 556 -11 522 -11 c 0,0,1
522 59 m 0,42,43
 545 59 545 59 560 73 c 128,-1,44
 575 87 575 87 575 111 c 0,45,46
 575 134 575 134 560 149 c 128,-1,47
 545 164 545 164 522 164 c 0,48,49
 500 164 500 164 485 149 c 128,-1,50
 470 134 470 134 470 111 c 256,51,52
 470 88 470 88 485 73.5 c 128,-1,53
 500 59 500 59 522 59 c 0,42,43
EndSplineSet
EndChar

StartChar: u16B77
Encoding: 93047 93047 115
Width: 708
Flags: W
HStem: 0 21G<309 399> 138 82<50 112.369 596.146 658> 383 80<235 309 399 473> 632 82<50 112.369 596.146 658>
VStem: 145 90<253.574 383 463 598.426> 309 90<0 383> 473 90<255.239 383 463 596.744>
CounterMasks: 1 0e
LayerCount: 2
Fore
SplineSet
309 0 m 1,0,-1
 309 383 l 1,1,-1
 235 383 l 1,2,3
 234 309 234 309 219 253.5 c 128,-1,4
 204 198 204 198 165 168 c 128,-1,5
 126 138 126 138 50 138 c 1,6,-1
 50 220 l 1,7,8
 93 220 93 220 113 240.5 c 128,-1,9
 133 261 133 261 139 301 c 128,-1,10
 145 341 145 341 145 399 c 2,11,-1
 145 453 l 2,12,13
 145 511 145 511 139 551 c 128,-1,14
 133 591 133 591 113 611.5 c 128,-1,15
 93 632 93 632 50 632 c 1,16,-1
 50 714 l 1,17,18
 127 714 127 714 166 682.5 c 128,-1,19
 205 651 205 651 219.5 595 c 128,-1,20
 234 539 234 539 235 463 c 1,21,-1
 473 463 l 1,22,23
 474 539 474 539 488 595 c 128,-1,24
 502 651 502 651 541.5 682.5 c 128,-1,25
 581 714 581 714 658 714 c 1,26,-1
 658 632 l 1,27,28
 616 632 616 632 595.5 611.5 c 128,-1,29
 575 591 575 591 569 551 c 128,-1,30
 563 511 563 511 563 453 c 2,31,-1
 563 399 l 2,32,33
 563 341 563 341 569 301 c 128,-1,34
 575 261 575 261 595.5 240.5 c 128,-1,35
 616 220 616 220 658 220 c 1,36,-1
 658 138 l 1,37,38
 582 138 582 138 542.5 168 c 128,-1,39
 503 198 503 198 488.5 253.5 c 128,-1,40
 474 309 474 309 473 383 c 1,41,-1
 399 383 l 1,42,-1
 399 0 l 1,43,-1
 309 0 l 1,0,-1
EndSplineSet
EndChar

StartChar: u16B7E
Encoding: 93054 93054 117
Width: 799
Flags: W
HStem: 0 21G<90 180 374 464 659 749> 230 80<180 374 464 659> 434 70<180 374> 634 80<180 374 464 599>
VStem: 90 90<0 230 310 434 504 634> 374 90<0 230 310 434 504 634> 659 90<0 230>
LayerCount: 2
Fore
SplineSet
90 0 m 1,0,-1
 90 714 l 1,1,-1
 599 714 l 1,2,-1
 599 634 l 1,3,-1
 464 634 l 1,4,-1
 464 310 l 1,5,-1
 749 310 l 1,6,-1
 749 0 l 1,7,-1
 659 0 l 1,8,-1
 659 230 l 1,9,-1
 464 230 l 1,10,-1
 464 0 l 1,11,-1
 374 0 l 1,12,-1
 374 230 l 1,13,-1
 180 230 l 1,14,-1
 180 0 l 1,15,-1
 90 0 l 1,0,-1
180 504 m 1,16,-1
 374 504 l 1,17,-1
 374 634 l 1,18,-1
 180 634 l 1,19,-1
 180 504 l 1,16,-1
180 310 m 1,20,-1
 374 310 l 1,21,-1
 374 434 l 1,22,-1
 180 434 l 1,23,-1
 180 310 l 1,20,-1
EndSplineSet
EndChar

StartChar: u16B7F
Encoding: 93055 93055 118
Width: 848
Flags: W
HStem: 0 21G<46.3559 84.8049 268 358 490 580 763.195 801.644>
VStem: 268 90<0 205 318 395 509 714> 490 90<0 205 318 395 509 714>
LayerCount: 2
Fore
SplineSet
490 0 m 1,0,-1
 490 714 l 1,1,-1
 580 714 l 1,2,-1
 580 509 l 1,3,-1
 783 714 l 1,4,-1
 838 655 l 1,5,-1
 580 395 l 1,6,-1
 580 318 l 1,7,-1
 838 59 l 1,8,-1
 783 0 l 1,9,-1
 580 205 l 1,10,-1
 580 0 l 1,11,-1
 490 0 l 1,0,-1
65 0 m 1,12,-1
 10 59 l 1,13,-1
 268 318 l 1,14,-1
 268 395 l 1,15,-1
 10 655 l 1,16,-1
 65 714 l 1,17,-1
 268 509 l 1,18,-1
 268 714 l 1,19,-1
 358 714 l 1,20,-1
 358 0 l 1,21,-1
 268 0 l 1,22,-1
 268 205 l 1,23,-1
 65 0 l 1,12,-1
EndSplineSet
EndChar

StartChar: u16B80
Encoding: 93056 93056 119
Width: 850
Flags: W
HStem: 0 80<180 550> 194 68<360.559 570> 347 68<365.381 570> 500 68<375.176 570> 634 80<300 670>
VStem: 90 90<80 714> 279 74<273.177 336.059 426.029 489.367> 670 90<0 634>
LayerCount: 2
Fore
SplineSet
670 0 m 1,0,-1
 670 634 l 1,1,-1
 300 634 l 1,2,-1
 300 714 l 1,3,-1
 760 714 l 1,4,-1
 760 0 l 1,5,-1
 670 0 l 1,0,-1
90 0 m 1,6,-1
 90 714 l 1,7,-1
 180 714 l 1,8,-1
 180 80 l 1,9,-1
 550 80 l 1,10,-1
 550 0 l 1,11,-1
 90 0 l 1,6,-1
426 194 m 2,12,13
 404 194 404 194 378.5 198 c 128,-1,14
 353 202 353 202 330.5 213 c 128,-1,15
 308 224 308 224 293.5 245.5 c 128,-1,16
 279 267 279 267 279 303 c 0,17,18
 279 334 279 334 292 350.5 c 128,-1,19
 305 367 305 367 320 380 c 1,20,21
 305 393 305 393 292 409.5 c 128,-1,22
 279 426 279 426 279 459 c 0,23,24
 279 495 279 495 293.5 516.5 c 128,-1,25
 308 538 308 538 330.5 549 c 128,-1,26
 353 560 353 560 378.5 564 c 128,-1,27
 404 568 404 568 426 568 c 2,28,-1
 570 568 l 1,29,-1
 570 500 l 1,30,-1
 434 500 l 2,31,32
 396 500 396 500 374.5 489.5 c 128,-1,33
 353 479 353 479 353 459 c 0,34,35
 353 444 353 444 365 429.5 c 128,-1,36
 377 415 377 415 414 415 c 2,37,-1
 570 415 l 1,38,-1
 570 347 l 1,39,-1
 414 347 l 2,40,41
 376 347 376 347 364.5 332.5 c 128,-1,42
 353 318 353 318 353 303 c 0,43,44
 353 284 353 284 374.5 273 c 128,-1,45
 396 262 396 262 434 262 c 2,46,-1
 570 262 l 1,47,-1
 570 194 l 1,48,-1
 426 194 l 2,12,13
EndSplineSet
EndChar

StartChar: u16B81
Encoding: 93057 93057 120
Width: 669
Flags: W
LayerCount: 2
Fore
SplineSet
90 -23 m 1,0,-1
 90 79 l 1,1,-1
 272 238 l 1,2,-1
 203 298 l 1,3,-1
 90 199 l 1,4,-1
 90 301 l 1,5,-1
 272 460 l 1,6,-1
 205 519 l 1,7,-1
 90 419 l 1,8,-1
 90 521 l 1,9,-1
 146 570 l 1,10,-1
 80 629 l 1,11,-1
 131 684 l 1,12,-1
 203 620 l 1,13,-1
 323 725 l 1,14,-1
 345 725 l 1,15,-1
 465 620 l 1,16,-1
 538 684 l 1,17,-1
 589 629 l 1,18,-1
 522 570 l 1,19,-1
 578 521 l 1,20,-1
 578 419 l 1,21,-1
 463 519 l 1,22,-1
 396 460 l 1,23,-1
 578 301 l 1,24,-1
 578 199 l 1,25,-1
 465 298 l 1,26,-1
 396 238 l 1,27,-1
 578 79 l 1,28,-1
 578 -23 l 1,29,-1
 334 190 l 1,30,-1
 90 -23 l 1,0,-1
335 505 m 1,31,-1
 407 568 l 1,32,-1
 334 632 l 1,33,-1
 261 568 l 1,34,-1
 335 505 l 1,31,-1
335 283 m 1,35,-1
 408 347 l 1,36,-1
 334 412 l 1,37,-1
 260 347 l 1,38,-1
 335 283 l 1,35,-1
EndSplineSet
EndChar

StartChar: u16B82
Encoding: 93058 93058 121
Width: 790
Flags: W
HStem: 0 21G<90 180 610 700> 169 76<337.383 438.899> 634 209<270 350 440 520> 634 80<180 270 520 610>
VStem: 90 90<0 634> 238 80<270.793 368> 270 80<714 843> 440 80<714 843> 458 80<270.793 368> 610 90<0 634>
LayerCount: 2
Fore
SplineSet
610 0 m 1,0,-1
 610 634 l 1,1,-1
 440 634 l 1,2,-1
 440 843 l 1,3,-1
 520 843 l 1,4,-1
 520 714 l 1,5,-1
 700 714 l 1,6,-1
 700 0 l 1,7,-1
 610 0 l 1,0,-1
90 0 m 1,8,-1
 90 714 l 1,9,-1
 270 714 l 1,10,-1
 270 843 l 1,11,-1
 350 843 l 1,12,-1
 350 634 l 1,13,-1
 180 634 l 1,14,-1
 180 0 l 1,15,-1
 90 0 l 1,8,-1
388 169 m 256,16,17
 314 169 314 169 276 216.5 c 128,-1,18
 238 264 238 264 238 368 c 1,19,-1
 318 368 l 1,20,21
 318 295 318 295 335 270 c 128,-1,22
 352 245 352 245 389 245 c 0,23,24
 425 245 425 245 441.5 270 c 128,-1,25
 458 295 458 295 458 368 c 1,26,-1
 538 368 l 1,27,28
 538 264 538 264 500 216.5 c 128,-1,29
 462 169 462 169 388 169 c 256,16,17
EndSplineSet
EndChar

StartChar: u16B83
Encoding: 93059 93059 122
Width: 757
Flags: W
HStem: 0 80<83 213 544 674> 634 80<149.084 607.916>
VStem: 50 80<540 616.978> 213 90<80 554> 454 90<80 554> 627 80<540 616.978>
LayerCount: 2
Fore
SplineSet
50 540 m 1,0,-1
 50 575 l 2,1,2
 50 643 50 643 89.5 678.5 c 128,-1,3
 129 714 129 714 207 714 c 2,4,-1
 550 714 l 2,5,6
 628 714 628 714 667.5 678.5 c 128,-1,7
 707 643 707 643 707 575 c 2,8,-1
 707 540 l 1,9,-1
 627 540 l 1,10,-1
 627 560 l 2,11,12
 627 601 627 601 608.5 617.5 c 128,-1,13
 590 634 590 634 547 634 c 2,14,-1
 210 634 l 2,15,16
 167 634 167 634 148.5 617.5 c 128,-1,17
 130 601 130 601 130 560 c 2,18,-1
 130 540 l 1,19,-1
 50 540 l 1,0,-1
454 0 m 1,20,-1
 454 554 l 1,21,-1
 544 554 l 1,22,-1
 544 80 l 1,23,-1
 674 80 l 1,24,-1
 674 0 l 1,25,-1
 454 0 l 1,20,-1
83 0 m 1,26,-1
 83 80 l 1,27,-1
 213 80 l 1,28,-1
 213 554 l 1,29,-1
 303 554 l 1,30,-1
 303 0 l 1,31,-1
 83 0 l 1,26,-1
EndSplineSet
EndChar

StartChar: u16B84
Encoding: 93060 93060 123
Width: 788
Flags: W
HStem: 0 21G<274 354 434 514 618 708> 330 80<170 274 354 434 514 618>
VStem: 80 90<410 714> 274 80<0 330 410 714> 434 80<0 330 410 714> 618 90<0 330>
LayerCount: 2
Fore
SplineSet
274 0 m 1,0,-1
 274 330 l 1,1,-1
 80 330 l 1,2,-1
 80 714 l 1,3,-1
 170 714 l 1,4,-1
 170 410 l 1,5,-1
 274 410 l 1,6,-1
 274 714 l 1,7,-1
 354 714 l 1,8,-1
 354 410 l 1,9,-1
 434 410 l 1,10,-1
 434 714 l 1,11,-1
 514 714 l 1,12,-1
 514 410 l 1,13,-1
 708 410 l 1,14,-1
 708 0 l 1,15,-1
 618 0 l 1,16,-1
 618 330 l 1,17,-1
 514 330 l 1,18,-1
 514 0 l 1,19,-1
 434 0 l 1,20,-1
 434 330 l 1,21,-1
 354 330 l 1,22,-1
 354 0 l 1,23,-1
 274 0 l 1,0,-1
EndSplineSet
EndChar

StartChar: u16B85
Encoding: 93061 93061 124
Width: 837
Flags: W
HStem: 0 21G<130 220 617 707> 330 80<220 307 530 617> 634 80<149.084 687.916>
VStem: 50 80<540 616.978> 130 90<0 330> 307 80<30 330 410 450> 450 80<30 330 410 450> 617 90<0 330> 707 80<540 616.978>
LayerCount: 2
Fore
SplineSet
50 540 m 1,0,-1
 50 575 l 2,1,2
 50 643 50 643 89.5 678.5 c 128,-1,3
 129 714 129 714 207 714 c 2,4,-1
 630 714 l 2,5,6
 708 714 708 714 747.5 678.5 c 128,-1,7
 787 643 787 643 787 575 c 2,8,-1
 787 540 l 1,9,-1
 707 540 l 1,10,-1
 707 560 l 2,11,12
 707 601 707 601 688.5 617.5 c 128,-1,13
 670 634 670 634 627 634 c 2,14,-1
 210 634 l 2,15,16
 167 634 167 634 148.5 617.5 c 128,-1,17
 130 601 130 601 130 560 c 2,18,-1
 130 540 l 1,19,-1
 50 540 l 1,0,-1
130 0 m 1,20,-1
 130 410 l 1,21,-1
 307 410 l 1,22,-1
 307 450 l 1,23,-1
 387 450 l 1,24,-1
 387 30 l 1,25,-1
 307 30 l 1,26,-1
 307 330 l 1,27,-1
 220 330 l 1,28,-1
 220 0 l 1,29,-1
 130 0 l 1,20,-1
617 0 m 1,30,-1
 617 330 l 1,31,-1
 530 330 l 1,32,-1
 530 30 l 1,33,-1
 450 30 l 1,34,-1
 450 450 l 1,35,-1
 530 450 l 1,36,-1
 530 410 l 1,37,-1
 707 410 l 1,38,-1
 707 0 l 1,39,-1
 617 0 l 1,30,-1
EndSplineSet
EndChar

StartChar: u16B86
Encoding: 93062 93062 125
Width: 667
Flags: W
HStem: 0 21G<288 378> 254 80<48 288 378 619>
VStem: 288 90<0 254 334 384>
LayerCount: 2
Fore
SplineSet
288 0 m 1,0,-1
 288 254 l 1,1,-1
 48 254 l 1,2,-1
 48 334 l 1,3,-1
 288 334 l 1,4,-1
 288 385 l 1,5,-1
 168 490 l 1,6,-1
 48 388 l 1,7,-1
 48 490 l 1,8,-1
 109 542 l 1,9,-1
 40 602 l 1,10,-1
 91 657 l 1,11,-1
 166 591 l 1,12,-1
 323 725 l 1,13,-1
 345 725 l 1,14,-1
 501 591 l 1,15,-1
 576 657 l 1,16,-1
 627 602 l 1,17,-1
 558 542 l 1,18,-1
 619 490 l 1,19,-1
 619 388 l 1,20,-1
 499 490 l 1,21,-1
 378 384 l 1,22,-1
 378 334 l 1,23,-1
 619 334 l 1,24,-1
 619 254 l 1,25,-1
 378 254 l 1,26,-1
 378 0 l 1,27,-1
 288 0 l 1,0,-1
334 444 m 1,28,-1
 442 539 l 1,29,-1
 334 632 l 1,30,-1
 225 539 l 1,31,-1
 334 444 l 1,28,-1
EndSplineSet
EndChar

StartChar: u16B87
Encoding: 93063 93063 126
Width: 766
Flags: W
HStem: 0 21G<238 328 481 571> 657 68<584.492 655.448>
VStem: 238 90<0 246 379 618> 481 90<0 382 519 637.404> 664 72<564.499 647.504>
LayerCount: 2
Fore
SplineSet
238 0 m 1,0,-1
 238 246 l 1,1,-1
 153 198 l 1,2,-1
 122 261 l 1,3,-1
 238 327 l 1,4,-1
 238 618 l 1,5,-1
 141 486 l 1,6,-1
 80 539 l 1,7,-1
 219 714 l 1,8,-1
 328 714 l 1,9,-1
 328 379 l 1,10,-1
 481 467 l 1,11,-1
 481 560 l 2,12,13
 481 588 481 588 486.5 617 c 128,-1,14
 492 646 492 646 506.5 670.5 c 128,-1,15
 521 695 521 695 549.5 710 c 128,-1,16
 578 725 578 725 624 725 c 0,17,18
 671 725 671 725 703.5 696.5 c 128,-1,19
 736 668 736 668 736 612 c 0,20,21
 736 573 736 573 716 538 c 128,-1,22
 696 503 696 503 635 469 c 2,23,-1
 571 433 l 1,24,-1
 571 0 l 1,25,-1
 481 0 l 1,26,-1
 481 382 l 1,27,-1
 328 296 l 1,28,-1
 328 0 l 1,29,-1
 238 0 l 1,0,-1
571 519 m 1,30,-1
 604 538 l 2,31,32
 643 561 643 561 653.5 576 c 128,-1,33
 664 591 664 591 664 612 c 0,34,35
 664 628 664 628 654 642.5 c 128,-1,36
 644 657 644 657 624 657 c 0,37,38
 599 657 599 657 585 638 c 128,-1,39
 571 619 571 619 571 590 c 2,40,-1
 571 519 l 1,30,-1
EndSplineSet
EndChar

StartChar: u16B88
Encoding: 93064 93064 127
Width: 768
Flags: W
HStem: 0 21G<90 180 344 424 588 678> 634 80<180 344 424 588> 800 74<212 557>
VStem: 90 90<0 634> 344 80<0 634> 588 90<0 634>
CounterMasks: 1 1c
LayerCount: 2
Fore
SplineSet
212 800 m 1,0,-1
 212 874 l 1,1,-1
 557 874 l 1,2,-1
 557 800 l 1,3,-1
 212 800 l 1,0,-1
90 0 m 1,4,-1
 90 714 l 1,5,-1
 678 714 l 1,6,-1
 678 0 l 1,7,-1
 588 0 l 1,8,-1
 588 634 l 1,9,-1
 424 634 l 1,10,-1
 424 0 l 1,11,-1
 344 0 l 1,12,-1
 344 634 l 1,13,-1
 180 634 l 1,14,-1
 180 0 l 1,15,-1
 90 0 l 1,4,-1
EndSplineSet
EndChar

StartChar: u16B89
Encoding: 93065 93065 128
Width: 788
Flags: W
HStem: 0 80<70 160 250 354 434 538 628 718> 340 80<70 160 628 718> 634 80<70 160 250 354 434 538 628 718>
VStem: 160 90<80 340 420 634> 354 80<80 634> 538 90<80 340 420 634>
CounterMasks: 1 1c
LayerCount: 2
Fore
SplineSet
70 0 m 1,0,-1
 70 80 l 1,1,-1
 160 80 l 1,2,-1
 160 340 l 1,3,-1
 70 340 l 1,4,-1
 70 420 l 1,5,-1
 160 420 l 1,6,-1
 160 634 l 1,7,-1
 70 634 l 1,8,-1
 70 714 l 1,9,-1
 718 714 l 1,10,-1
 718 634 l 1,11,-1
 628 634 l 1,12,-1
 628 420 l 1,13,-1
 718 420 l 1,14,-1
 718 340 l 1,15,-1
 628 340 l 1,16,-1
 628 80 l 1,17,-1
 718 80 l 1,18,-1
 718 0 l 1,19,-1
 70 0 l 1,0,-1
250 80 m 1,20,-1
 354 80 l 1,21,-1
 354 634 l 1,22,-1
 250 634 l 1,23,-1
 250 80 l 1,20,-1
434 80 m 1,24,-1
 538 80 l 1,25,-1
 538 634 l 1,26,-1
 434 634 l 1,27,-1
 434 80 l 1,24,-1
EndSplineSet
EndChar

StartChar: u16B8A
Encoding: 93066 93066 129
Width: 790
Flags: W
HStem: 0 21G<90 180 610 700> 169 76<337.383 438.899> 634 80<180 350 440 610>
VStem: 90 90<0 634> 238 80<270.793 368> 458 80<270.793 368> 610 90<0 634>
LayerCount: 2
Fore
SplineSet
610 0 m 1,0,-1
 610 634 l 1,1,-1
 440 634 l 1,2,-1
 440 714 l 1,3,-1
 700 714 l 1,4,-1
 700 0 l 1,5,-1
 610 0 l 1,0,-1
90 0 m 1,6,-1
 90 714 l 1,7,-1
 350 714 l 1,8,-1
 350 634 l 1,9,-1
 180 634 l 1,10,-1
 180 0 l 1,11,-1
 90 0 l 1,6,-1
388 169 m 256,12,13
 314 169 314 169 276 216.5 c 128,-1,14
 238 264 238 264 238 368 c 1,15,-1
 318 368 l 1,16,17
 318 295 318 295 335 270 c 128,-1,18
 352 245 352 245 389 245 c 0,19,20
 425 245 425 245 441.5 270 c 128,-1,21
 458 295 458 295 458 368 c 1,22,-1
 538 368 l 1,23,24
 538 264 538 264 500 216.5 c 128,-1,25
 462 169 462 169 388 169 c 256,12,13
EndSplineSet
EndChar

StartChar: u16B8C
Encoding: 93068 93068 131
Width: 698
Flags: W
HStem: 445 75<266.122 433.994>
VStem: 224 80<137 391> 394 80<137 391>
LayerCount: 2
Fore
SplineSet
64 388 m 1,0,-1
 64 490 l 1,1,-1
 130 546 l 1,2,3
 109 566 109 566 91 586 c 128,-1,4
 73 606 73 606 56 622 c 1,5,-1
 107 677 l 1,6,7
 127 659 127 659 147.5 638 c 128,-1,8
 168 617 168 617 190 597 c 1,9,-1
 339 725 l 1,10,-1
 361 725 l 1,11,-1
 509 598 l 1,12,13
 529 616 529 616 549.5 636 c 128,-1,14
 570 656 570 656 592 677 c 1,15,-1
 643 622 l 1,16,17
 625 604 625 604 607.5 584.5 c 128,-1,18
 590 565 590 565 570 546 c 1,19,-1
 635 490 l 1,20,-1
 635 388 l 1,21,-1
 510 495 l 1,22,23
 478 473 478 473 438 459 c 128,-1,24
 398 445 398 445 347 445 c 0,25,26
 298 445 298 445 260 459 c 128,-1,27
 222 473 222 473 190 495 c 1,28,-1
 64 388 l 1,0,-1
350 520 m 256,29,30
 377 520 377 520 401 528 c 128,-1,31
 425 536 425 536 447 549 c 1,32,-1
 350 632 l 1,33,-1
 253 549 l 1,34,35
 275 536 275 536 299 528 c 128,-1,36
 323 520 323 520 350 520 c 256,29,30
283 -11 m 1,37,-1
 40 204 l 1,38,-1
 40 306 l 1,39,-1
 224 137 l 1,40,-1
 224 391 l 1,41,-1
 304 391 l 1,42,-1
 304 -11 l 1,43,-1
 283 -11 l 1,37,-1
394 -11 m 1,44,-1
 394 391 l 1,45,-1
 474 391 l 1,46,-1
 474 137 l 1,47,-1
 658 306 l 1,48,-1
 658 204 l 1,49,-1
 415 -11 l 1,50,-1
 394 -11 l 1,44,-1
EndSplineSet
EndChar

StartChar: u16B8D
Encoding: 93069 93069 132
Width: 693
Flags: W
HStem: 0 21G<170 260 433 523> 342 80<260 433> 634 80<20 170 523 673> 800 74<174 519>
VStem: 170 90<0 342 422 634> 433 90<0 342 422 634>
LayerCount: 2
Fore
SplineSet
174 800 m 1,0,-1
 174 874 l 1,1,-1
 519 874 l 1,2,-1
 519 800 l 1,3,-1
 174 800 l 1,0,-1
170 0 m 1,4,-1
 170 634 l 1,5,-1
 20 634 l 1,6,-1
 20 714 l 1,7,-1
 260 714 l 1,8,-1
 260 422 l 1,9,-1
 433 422 l 1,10,-1
 433 714 l 1,11,-1
 673 714 l 1,12,-1
 673 634 l 1,13,-1
 523 634 l 1,14,-1
 523 0 l 1,15,-1
 433 0 l 1,16,-1
 433 342 l 1,17,-1
 260 342 l 1,18,-1
 260 0 l 1,19,-1
 170 0 l 1,4,-1
EndSplineSet
EndChar

StartChar: u16B8E
Encoding: 93070 93070 133
Width: 693
Flags: W
HStem: 0 21G<170 260 433 523> 342 80<260 433> 634 80<20 170 523 673> 800 74<174 322 366 519>
VStem: 170 90<0 342 422 634> 433 90<0 342 422 634>
LayerCount: 2
Fore
SplineSet
174 800 m 1,0,-1
 174 874 l 1,1,-1
 322 874 l 1,2,-1
 244 1030 l 1,3,-1
 444 1030 l 1,4,-1
 366 874 l 1,5,-1
 519 874 l 1,6,-1
 519 800 l 1,7,-1
 174 800 l 1,0,-1
170 0 m 1,8,-1
 170 634 l 1,9,-1
 20 634 l 1,10,-1
 20 714 l 1,11,-1
 260 714 l 1,12,-1
 260 422 l 1,13,-1
 433 422 l 1,14,-1
 433 714 l 1,15,-1
 673 714 l 1,16,-1
 673 634 l 1,17,-1
 523 634 l 1,18,-1
 523 0 l 1,19,-1
 433 0 l 1,20,-1
 433 342 l 1,21,-1
 260 342 l 1,22,-1
 260 0 l 1,23,-1
 170 0 l 1,8,-1
EndSplineSet
EndChar

StartChar: u16B8F
Encoding: 93071 93071 134
Width: 670
Flags: W
HStem: 0 21G<488.02 603> 245 70<40 297 444 630> 360 70<40 223 414 630>
LayerCount: 2
Fore
SplineSet
501 0 m 1,0,-1
 342 245 l 1,1,-1
 40 245 l 1,2,-1
 40 315 l 1,3,-1
 297 315 l 1,4,-1
 268 360 l 1,5,-1
 40 360 l 1,6,-1
 40 430 l 1,7,-1
 223 430 l 1,8,-1
 40 714 l 1,9,-1
 140 714 l 1,10,-1
 321 434 l 1,11,-1
 535 714 l 1,12,-1
 630 714 l 1,13,-1
 414 430 l 1,14,-1
 630 430 l 1,15,-1
 630 360 l 1,16,-1
 369 360 l 1,17,-1
 398 315 l 1,18,-1
 630 315 l 1,19,-1
 630 245 l 1,20,-1
 444 245 l 1,21,-1
 603 0 l 1,22,-1
 501 0 l 1,0,-1
EndSplineSet
EndChar
